<svg width="1024" height="576" viewBox="0 0 1024 576" fill="none" xmlns="http://www.w3.org/2000/svg">
<rect width="1024" height="576" fill="url(#paint0_linear_2_2)"/>
<g clip-path="url(#clip0_2_2)">
<path d="M444.377 351.609C443.801 351.61 443.248 351.839 442.84 352.247C442.432 352.655 442.203 353.208 442.202 353.784V440.673C442.203 441.25 442.432 441.803 442.84 442.211C443.248 442.618 443.801 442.848 444.377 442.849H459.127C459.704 442.848 460.257 442.618 460.665 442.211C461.072 441.803 461.302 441.25 461.302 440.673V353.784C461.302 353.208 461.072 352.655 460.665 352.247C460.257 351.839 459.704 351.61 459.127 351.609H444.377Z" fill="#3F3D56"/>
<path d="M567.034 351.609C566.458 351.61 565.905 351.839 565.497 352.247C565.089 352.655 564.86 353.208 564.859 353.784V440.673C564.86 441.25 565.089 441.803 565.497 442.211C565.905 442.618 566.458 442.848 567.034 442.849H581.784C582.361 442.848 582.914 442.618 583.321 442.211C583.729 441.803 583.959 441.25 583.959 440.673V353.784C583.959 353.208 583.729 352.655 583.321 352.247C582.914 351.839 582.361 351.61 581.784 351.609H567.034Z" fill="#3F3D56"/>
<path d="M635.945 282.576L522.852 273.845L613.077 289.229L634.698 285.486L635.945 282.576Z" fill="#3F3D56"/>
<path d="M613.909 287.86L635.53 284.118L635.742 283.622L636.777 283.702L635.53 286.613L613.909 290.355L523.684 273.845L550.422 277.035L613.909 287.86Z" fill="#00A0D2"/>
<path d="M379.821 282.576L266.727 273.845L356.953 289.229L378.574 285.486L379.821 282.576Z" fill="#3F3D56"/>
<path d="M355.706 287.86L377.327 284.118L377.539 283.622L378.574 283.702L377.327 286.613L355.706 290.355L265.48 273.845L292.218 277.035L355.706 287.86Z" fill="#00A0D2"/>
<path d="M655.072 327.897L645.509 328.312L557.898 365.276L552.884 369.475L536.988 382.78H487.094L472.068 369.475L466.355 364.415L382.316 328.728L374.832 327.897L399.779 315.839H399.912C405.567 310.471 454.538 306.276 514.12 306.276C573.702 306.276 622.674 310.471 628.328 315.839H628.877L655.072 327.897Z" fill="#3F3D56"/>
<path d="M399.094 316.455C399.271 315.957 399.362 315.432 399.363 314.902V295.154C399.363 293.914 398.871 292.724 397.993 291.846C397.116 290.969 395.926 290.476 394.685 290.476H392.785C394.345 288.902 395.404 286.901 395.829 284.727C396.254 282.552 396.025 280.3 395.173 278.254C394.32 276.209 392.881 274.462 391.037 273.233C389.193 272.004 387.027 271.348 384.811 271.348C382.595 271.348 380.429 272.004 378.585 273.233C376.741 274.462 375.302 276.209 374.449 278.254C373.596 280.3 373.368 282.552 373.793 284.727C374.218 286.901 375.277 288.902 376.836 290.476H374.937C374.322 290.476 373.714 290.597 373.146 290.832C372.579 291.067 372.063 291.412 371.629 291.846C371.194 292.281 370.85 292.796 370.615 293.364C370.379 293.932 370.258 294.54 370.258 295.154V314.902C370.258 315.711 370.469 316.506 370.869 317.208C369.457 317.456 368.045 317.725 366.633 318.035C365.773 318.228 365.004 318.708 364.454 319.396C363.903 320.084 363.604 320.94 363.606 321.821V326.513C363.606 327.542 364.014 328.528 364.742 329.256C365.469 329.983 366.455 330.391 367.484 330.391H411.421V318.749C407.364 317.728 403.247 316.961 399.094 316.455V316.455Z" fill="#3F3D56"/>
<path d="M659.113 318.035C657.701 317.725 656.289 317.456 654.877 317.208C655.277 316.506 655.488 315.711 655.487 314.902V295.154C655.487 294.54 655.366 293.932 655.131 293.364C654.896 292.796 654.552 292.281 654.117 291.846C653.683 291.412 653.167 291.067 652.599 290.832C652.032 290.597 651.423 290.476 650.809 290.476H648.91C650.469 288.902 651.528 286.901 651.953 284.726C652.378 282.552 652.149 280.3 651.297 278.254C650.444 276.209 649.005 274.462 647.161 273.233C645.317 272.004 643.151 271.348 640.935 271.348C638.719 271.348 636.553 272.004 634.709 273.233C632.865 274.462 631.426 276.209 630.573 278.254C629.72 280.3 629.492 282.552 629.917 284.726C630.342 286.901 631.401 288.902 632.96 290.476H631.061C630.446 290.476 629.838 290.597 629.27 290.832C628.703 291.067 628.187 291.412 627.753 291.846C627.318 292.281 626.974 292.796 626.739 293.364C626.503 293.932 626.382 294.54 626.382 295.154V314.902C626.383 315.432 626.475 315.957 626.652 316.455C622.499 316.961 618.382 317.728 614.325 318.749V330.391H658.262C659.291 330.391 660.277 329.983 661.004 329.256C661.732 328.528 662.14 327.542 662.14 326.513V321.821C662.142 320.94 661.843 320.084 661.292 319.396C660.742 318.708 659.973 318.228 659.113 318.035V318.035Z" fill="#3F3D56"/>
<path d="M645.925 282.576L759.018 273.845L668.793 289.229L647.172 285.486L645.925 282.576Z" fill="#3F3D56"/>
<path d="M520.814 379.038H503.269C502.619 379.038 501.976 379.166 501.375 379.415C500.775 379.664 500.229 380.028 499.77 380.488C499.31 380.947 498.946 381.493 498.697 382.093C498.448 382.693 498.32 383.337 498.32 383.987V387.811C498.321 388.815 498.627 389.796 499.199 390.622C499.77 391.448 500.58 392.08 501.52 392.435C500.794 393.306 500.398 394.404 500.399 395.537V396.634C500.399 397.416 500.588 398.186 500.95 398.879C501.312 399.573 501.836 400.168 502.478 400.615V415.212H521.604V400.615C522.246 400.168 522.771 399.573 523.133 398.879C523.495 398.186 523.684 397.416 523.683 396.634V395.537C523.685 394.404 523.288 393.306 522.563 392.435C523.503 392.08 524.312 391.448 524.884 390.622C525.455 389.796 525.762 388.815 525.762 387.811V383.987C525.762 383.337 525.634 382.693 525.386 382.093C525.137 381.493 524.772 380.947 524.313 380.488C523.853 380.028 523.308 379.664 522.708 379.415C522.107 379.166 521.464 379.038 520.814 379.038V379.038Z" fill="#3F3D56"/>
<path d="M494.212 413.146C493.43 413.147 492.682 413.458 492.129 414.01C491.577 414.562 491.266 415.311 491.265 416.092V439.694C491.266 440.475 491.577 441.224 492.129 441.777C492.681 442.329 493.43 442.64 494.212 442.641H529.871C530.652 442.64 531.401 442.329 531.954 441.777C532.506 441.224 532.817 440.475 532.817 439.694V416.092C532.816 415.311 532.506 414.562 531.953 414.01C531.401 413.458 530.652 413.147 529.871 413.146H494.212Z" fill="#00A0D2"/>
<path d="M552.884 369.475L536.989 382.78H487.094L472.068 369.475H487.011L487.664 366.22C487.855 365.262 488.372 364.4 489.127 363.781C489.882 363.162 490.829 362.823 491.805 362.823H533.525C534.502 362.823 535.448 363.162 536.203 363.781C536.958 364.4 537.475 365.262 537.666 366.22L538.319 369.475H552.884Z" fill="#00A0D2"/>
<path d="M512.041 439.535C518.471 439.535 523.683 434.323 523.683 427.893C523.683 421.463 518.471 416.251 512.041 416.251C505.612 416.251 500.399 421.463 500.399 427.893C500.399 434.323 505.612 439.535 512.041 439.535Z" fill="#3F3D56"/>
<path d="M512.041 434.546C515.715 434.546 518.694 431.567 518.694 427.893C518.694 424.219 515.715 421.241 512.041 421.241C508.367 421.241 505.389 424.219 505.389 427.893C505.389 431.567 508.367 434.546 512.041 434.546Z" fill="#E6E6E6"/>
<path d="M516.063 422.602C517.038 423.881 517.517 425.471 517.41 427.076C517.302 428.681 516.616 430.193 515.478 431.33C514.341 432.468 512.829 433.154 511.224 433.261C509.619 433.369 508.029 432.89 506.751 431.914C507.324 432.671 508.053 433.296 508.888 433.747C509.724 434.198 510.646 434.465 511.593 434.53C512.54 434.595 513.49 434.456 514.38 434.123C515.269 433.79 516.076 433.27 516.747 432.599C517.419 431.928 517.938 431.12 518.271 430.231C518.605 429.342 518.743 428.392 518.678 427.445C518.614 426.498 518.347 425.575 517.895 424.74C517.444 423.905 516.819 423.176 516.063 422.602V422.602Z" fill="white"/>
<path d="M662.348 322.995H363.814V324.899H662.348V322.995Z" fill="#E6E6E6"/>
<path d="M669.625 287.86L648.004 284.118L647.791 283.622L646.756 283.702L648.004 286.613L669.625 290.355L759.85 273.845L733.112 277.035L669.625 287.86Z" fill="#00A0D2"/>
<path d="M389.8 282.576L502.894 273.845L412.668 289.229L391.048 285.486L389.8 282.576Z" fill="#3F3D56"/>
<path d="M413.916 287.86L392.295 284.118L392.083 283.622L391.048 283.702L392.295 286.613L413.916 290.355L504.141 273.845L477.403 277.035L413.916 287.86Z" fill="#00A0D2"/>
<path d="M529.296 366.357H496.034V373.009H529.296V366.357Z" fill="#E6E6E6"/>
<path d="M405.703 133H304.875C301.297 133.004 297.868 134.427 295.338 136.957C292.808 139.486 291.385 142.916 291.381 146.494V200.024C291.385 203.602 292.808 207.032 295.338 209.561C297.868 212.091 301.297 213.514 304.875 213.518H405.703C409.28 213.514 412.71 212.091 415.24 209.561C417.77 207.032 419.192 203.602 419.197 200.024V146.494C419.192 142.916 417.77 139.486 415.24 136.957C412.71 134.427 409.28 133.004 405.703 133V133Z" fill="#E6E6E6"/>
<path d="M304.875 143.98C304.208 143.98 303.569 144.245 303.098 144.717C302.627 145.188 302.362 145.827 302.361 146.493V200.025C302.362 200.691 302.627 201.33 303.098 201.801C303.569 202.273 304.208 202.538 304.875 202.538H405.703C406.37 202.538 407.009 202.273 407.48 201.801C407.951 201.33 408.216 200.691 408.217 200.025V146.493C408.216 145.827 407.951 145.188 407.48 144.717C407.009 144.245 406.37 143.98 405.703 143.98H304.875Z" fill="white"/>
<path d="M353.249 196.895C353.214 196.895 353.18 196.894 353.145 196.892C352.733 196.869 352.341 196.706 352.034 196.431C351.727 196.155 351.522 195.783 351.454 195.376L345.619 160.363L340.466 180.973C340.368 181.366 340.141 181.715 339.822 181.965C339.502 182.214 339.108 182.35 338.703 182.35H331.43C330.948 182.35 330.485 182.158 330.144 181.817C329.803 181.476 329.612 181.014 329.612 180.532C329.612 180.049 329.803 179.587 330.144 179.246C330.485 178.905 330.948 178.714 331.43 178.714H337.283L344.211 151C344.313 150.595 344.551 150.237 344.885 149.986C345.22 149.735 345.63 149.608 346.048 149.624C346.465 149.641 346.864 149.801 347.178 150.078C347.491 150.354 347.7 150.73 347.769 151.142L353.715 186.823L358.772 169.123C358.879 168.75 359.102 168.42 359.41 168.183C359.717 167.946 360.093 167.813 360.481 167.805C360.869 167.797 361.25 167.913 361.568 168.136C361.885 168.36 362.123 168.679 362.245 169.048L365.467 178.714H371.429C371.912 178.714 372.374 178.905 372.715 179.246C373.056 179.587 373.248 180.049 373.248 180.532C373.248 181.014 373.056 181.476 372.715 181.817C372.374 182.158 371.912 182.35 371.429 182.35H364.157C363.775 182.35 363.403 182.23 363.094 182.007C362.784 181.784 362.553 181.469 362.432 181.107L360.654 175.773L354.996 195.576C354.888 195.956 354.658 196.29 354.343 196.528C354.028 196.766 353.644 196.895 353.249 196.895Z" fill="#00A0D2"/>
<path d="M375.617 185.909C378.571 185.909 380.966 183.514 380.966 180.56C380.966 177.606 378.571 175.211 375.617 175.211C372.663 175.211 370.268 177.606 370.268 180.56C370.268 183.514 372.663 185.909 375.617 185.909Z" fill="#3F3D56"/>
<path d="M562.235 133H461.406C457.829 133.004 454.399 134.427 451.869 136.957C449.34 139.486 447.917 142.916 447.913 146.494V200.024C447.917 203.602 449.34 207.032 451.869 209.561C454.399 212.091 457.829 213.514 461.406 213.518H562.235C565.812 213.514 569.242 212.091 571.771 209.561C574.301 207.032 575.724 203.602 575.728 200.024V146.494C575.724 142.916 574.301 139.486 571.771 136.957C569.242 134.427 565.812 133.004 562.235 133V133Z" fill="#E6E6E6"/>
<path d="M461.406 143.98C460.74 143.98 460.101 144.245 459.63 144.717C459.158 145.188 458.893 145.827 458.893 146.493V200.025C458.893 200.691 459.158 201.33 459.63 201.801C460.101 202.273 460.74 202.538 461.406 202.538H562.235C562.901 202.538 563.54 202.273 564.011 201.801C564.483 201.33 564.748 200.691 564.748 200.025V146.493C564.748 145.827 564.483 145.188 564.011 144.717C563.54 144.245 562.901 143.98 562.235 143.98H461.406Z" fill="white"/>
<path d="M511.82 176.141C519.166 176.141 525.12 170.186 525.12 162.841C525.12 155.495 519.166 149.541 511.82 149.541C504.475 149.541 498.521 155.495 498.521 162.841C498.521 170.186 504.475 176.141 511.82 176.141Z" fill="#00A0D2"/>
<path d="M511.821 178.357H511.821C516.524 178.357 521.034 180.226 524.36 183.551C527.685 186.877 529.554 191.387 529.554 196.091V196.977H494.087V196.091C494.087 191.387 495.956 186.877 499.281 183.551C502.607 180.226 507.117 178.357 511.821 178.357V178.357Z" fill="#00A0D2"/>
<path d="M484.777 182.791C489.919 182.791 494.087 178.622 494.087 173.481C494.087 168.339 489.919 164.171 484.777 164.171C479.636 164.171 475.467 168.339 475.467 173.481C475.467 178.622 479.636 182.791 484.777 182.791Z" fill="#3F3D56"/>
<path d="M493.895 187.068C492.106 185.482 489.896 184.446 487.532 184.085C485.168 183.725 482.75 184.055 480.569 185.036C478.388 186.017 476.537 187.608 475.239 189.616C473.941 191.624 473.25 193.965 473.251 196.357V196.977H491.427V196.091C491.423 192.916 492.276 189.799 493.895 187.068V187.068Z" fill="#3F3D56"/>
<path d="M538.864 182.791C544.005 182.791 548.174 178.622 548.174 173.481C548.174 168.339 544.005 164.171 538.864 164.171C533.722 164.171 529.554 168.339 529.554 173.481C529.554 178.622 533.722 182.791 538.864 182.791Z" fill="#3F3D56"/>
<path d="M529.746 187.068C531.535 185.482 533.745 184.446 536.109 184.085C538.473 183.725 540.891 184.055 543.072 185.036C545.253 186.017 547.104 187.608 548.402 189.616C549.7 191.624 550.391 193.965 550.39 196.357V196.977H532.214V196.091C532.218 192.916 531.365 189.799 529.746 187.068V187.068Z" fill="#3F3D56"/>
<path d="M718.766 133H617.938C614.36 133.004 610.93 134.427 608.401 136.957C605.871 139.486 604.448 142.916 604.444 146.494V200.024C604.448 203.602 605.871 207.032 608.401 209.561C610.93 212.091 614.36 213.514 617.938 213.518H718.766C722.344 213.514 725.773 212.091 728.303 209.561C730.833 207.032 732.256 203.602 732.26 200.024V146.494C732.256 142.916 730.833 139.486 728.303 136.957C725.773 134.427 722.344 133.004 718.766 133V133Z" fill="#E6E6E6"/>
<path d="M617.938 143.98C617.271 143.98 616.632 144.245 616.161 144.717C615.69 145.188 615.425 145.827 615.424 146.493V200.025C615.425 200.691 615.69 201.33 616.161 201.801C616.632 202.273 617.271 202.538 617.938 202.538H718.766C719.433 202.538 720.072 202.273 720.543 201.801C721.014 201.33 721.279 200.691 721.28 200.025V146.493C721.279 145.827 721.014 145.188 720.543 144.717C720.072 144.245 719.433 143.98 718.766 143.98H617.938Z" fill="white"/>
<path d="M666.664 198.013C666.447 198.013 666.233 197.971 666.032 197.888C665.832 197.805 665.65 197.683 665.497 197.53C665.344 197.377 665.222 197.195 665.139 196.994C665.056 196.794 665.014 196.58 665.014 196.363V183.161C665.014 182.724 665.189 182.305 665.498 181.996C665.807 181.687 666.227 181.513 666.664 181.513C667.101 181.513 667.52 181.687 667.83 181.996C668.139 182.305 668.313 182.724 668.314 183.161V196.363C668.314 196.58 668.271 196.794 668.189 196.994C668.106 197.195 667.984 197.377 667.831 197.53C667.678 197.683 667.496 197.805 667.295 197.888C667.095 197.971 666.881 198.013 666.664 198.013V198.013Z" fill="#00A0D2"/>
<path d="M672.44 191.412H660.888C660.45 191.412 660.03 191.238 659.721 190.929C659.412 190.619 659.238 190.2 659.238 189.762C659.238 189.324 659.412 188.904 659.721 188.595C660.03 188.285 660.45 188.112 660.888 188.112H672.44C672.878 188.112 673.297 188.285 673.607 188.595C673.916 188.904 674.09 189.324 674.09 189.762C674.09 190.2 673.916 190.619 673.607 190.929C673.297 191.238 672.878 191.412 672.44 191.412Z" fill="#00A0D2"/>
<path d="M688.943 160.057C688.726 160.057 688.511 160.014 688.311 159.931C688.111 159.848 687.929 159.727 687.776 159.573C687.622 159.42 687.501 159.238 687.418 159.038C687.335 158.838 687.292 158.623 687.292 158.406V151.805H680.691C680.474 151.805 680.26 151.763 680.06 151.68C679.859 151.597 679.677 151.475 679.524 151.322C679.371 151.169 679.249 150.987 679.166 150.787C679.084 150.586 679.041 150.372 679.041 150.155C679.041 149.938 679.084 149.724 679.166 149.524C679.249 149.323 679.371 149.141 679.524 148.988C679.677 148.835 679.859 148.713 680.06 148.63C680.26 148.547 680.474 148.505 680.691 148.505H688.943C689.159 148.505 689.374 148.547 689.574 148.63C689.774 148.713 689.956 148.835 690.11 148.988C690.263 149.141 690.384 149.323 690.467 149.524C690.55 149.724 690.593 149.938 690.593 150.155V158.406C690.593 158.623 690.55 158.838 690.467 159.038C690.384 159.238 690.263 159.42 690.11 159.573C689.956 159.727 689.774 159.848 689.574 159.931C689.374 160.014 689.159 160.057 688.943 160.057V160.057Z" fill="#00A0D2"/>
<path d="M678.967 161.781C678.64 161.781 678.321 161.685 678.05 161.503C677.778 161.322 677.567 161.064 677.442 160.763C677.317 160.461 677.285 160.129 677.348 159.809C677.412 159.489 677.569 159.195 677.8 158.964L687.776 148.988C688.085 148.679 688.505 148.506 688.942 148.506C689.38 148.507 689.799 148.68 690.108 148.99C690.417 149.299 690.591 149.718 690.591 150.156C690.592 150.593 690.418 151.012 690.11 151.322L680.134 161.298C679.981 161.451 679.799 161.573 679.598 161.656C679.398 161.739 679.183 161.782 678.967 161.781V161.781Z" fill="#00A0D2"/>
<path d="M666.664 183.161C663.563 183.161 660.532 182.241 657.954 180.519C655.375 178.796 653.366 176.347 652.179 173.483C650.993 170.618 650.682 167.466 651.287 164.424C651.892 161.383 653.385 158.59 655.578 156.397C657.77 154.205 660.564 152.711 663.605 152.107C666.646 151.502 669.799 151.812 672.663 152.999C675.528 154.185 677.977 156.195 679.699 158.773C681.422 161.351 682.342 164.382 682.342 167.483C682.337 171.64 680.684 175.624 677.744 178.564C674.805 181.503 670.82 183.156 666.664 183.161V183.161ZM666.664 155.106C664.216 155.106 661.823 155.832 659.787 157.192C657.752 158.552 656.166 160.485 655.229 162.746C654.292 165.008 654.047 167.497 654.524 169.898C655.002 172.299 656.181 174.504 657.912 176.235C659.643 177.966 661.848 179.145 664.249 179.622C666.65 180.1 669.139 179.855 671.4 178.918C673.662 177.981 675.595 176.395 676.955 174.359C678.315 172.324 679.041 169.931 679.041 167.483C679.037 164.202 677.732 161.056 675.412 158.735C673.091 156.415 669.945 155.11 666.664 155.106V155.106Z" fill="#3F3D56"/>
<path d="M762 442.622H262V443.884H762V442.622Z" fill="#3F3D56"/>
</g>
<defs>
<linearGradient id="paint0_linear_2_2" x1="0" y1="0" x2="800" y2="800" gradientUnits="userSpaceOnUse">
<stop stop-color="#E5F9FF"/>
<stop offset="1" stop-color="#F0FBFF"/>
</linearGradient>
<clipPath id="clip0_2_2">
<rect width="500" height="310.884" fill="white" transform="translate(262 133)"/>
</clipPath>
</defs>
</svg>
