<svg width="2048" height="1152" viewBox="0 0 2048 1152" fill="none" xmlns="http://www.w3.org/2000/svg">
<rect width="2048" height="1152" fill="url(#paint0_linear_6_2)"/>
<g clip-path="url(#clip0_6_2)">
<path d="M1250 639.343V899.464L1293.52 970.373L1296.83 975.767H1468.51L1471.98 639.343H1250Z" fill="#E6E6E6"/>
<path opacity="0.1" d="M1250 639.343V899.464L1293.52 970.373L1296.19 639.343H1250Z" fill="black"/>
<path d="M835.544 632.405V892.527L792.033 963.437L788.722 968.829H617.042L613.573 632.405H835.544Z" fill="#E6E6E6"/>
<path opacity="0.1" d="M835.543 632.405V892.527L792.033 963.437L789.363 632.405H835.543Z" fill="black"/>
<path d="M1524 627.204V642.81H591.029V620.266L677.736 575.178H1447.7L1524 627.204Z" fill="#E6E6E6"/>
<path opacity="0.1" d="M1524 627.204V642.81H591.029V620.266L1524 627.204Z" fill="black"/>
<path d="M724.559 705.239H682.938L665.597 693.101H743.634L724.559 705.239Z" fill="#3F3D56"/>
<path d="M724.559 755.53H682.938L665.597 743.391H743.634L724.559 755.53Z" fill="#3F3D56"/>
<path d="M724.559 826.631H682.938L665.597 814.49H743.634L724.559 826.631Z" fill="#3F3D56"/>
<path d="M724.559 897.73H682.938L665.597 885.591H743.634L724.559 897.73Z" fill="#3F3D56"/>
<path d="M1360.99 712.176H1402.61L1419.95 700.037H1341.91L1360.99 712.176Z" fill="#3F3D56"/>
<path d="M1360.99 762.466H1402.61L1419.95 750.327H1341.91L1360.99 762.466Z" fill="#3F3D56"/>
<path d="M1360.99 833.567H1402.61L1419.95 821.428H1341.91L1360.99 833.567Z" fill="#3F3D56"/>
<path d="M1360.99 904.666H1402.61L1419.95 892.527H1341.91L1360.99 904.666Z" fill="#3F3D56"/>
<path d="M1389.33 274.373H1038.95C1037.21 274.373 1035.49 274.716 1033.88 275.382C1032.27 276.047 1030.81 277.023 1029.58 278.254C1028.35 279.484 1027.38 280.945 1026.71 282.553C1026.04 284.161 1025.7 285.884 1025.7 287.624V523.649C1025.7 525.389 1026.04 527.112 1026.71 528.72C1027.38 530.328 1028.35 531.788 1029.58 533.019C1030.81 534.249 1032.27 535.226 1033.88 535.891C1035.49 536.557 1037.21 536.9 1038.95 536.9H1171.96L1166.98 568.714C1166.98 568.714 1138.5 583.843 1158.52 584.288C1178.55 584.733 1272.88 584.288 1272.88 584.288C1272.88 584.288 1291.12 584.288 1262.2 568.269L1257.51 536.9H1389.33C1391.07 536.9 1392.8 536.557 1394.4 535.891C1396.01 535.226 1397.47 534.25 1398.7 533.019C1399.93 531.788 1400.91 530.328 1401.57 528.72C1402.24 527.112 1402.58 525.389 1402.58 523.649V287.624C1402.58 285.884 1402.24 284.161 1401.57 282.553C1400.91 280.945 1399.93 279.484 1398.7 278.254C1397.47 277.023 1396.01 276.047 1394.4 275.382C1392.8 274.716 1391.07 274.373 1389.33 274.373V274.373Z" fill="#3F3D56"/>
<path d="M1389.9 288.39H1038.38V485.062H1389.9V288.39Z" fill="#F2F2F2"/>
<path d="M1214.14 284.385C1215.37 284.385 1216.37 283.389 1216.37 282.16C1216.37 280.931 1215.37 279.935 1214.14 279.935C1212.91 279.935 1211.92 280.931 1211.92 282.16C1211.92 283.389 1212.91 284.385 1214.14 284.385Z" fill="#F2F2F2"/>
<path d="M1214.14 527.333C1218.81 527.333 1222.6 523.548 1222.6 518.879C1222.6 514.21 1218.81 510.425 1214.14 510.425C1209.47 510.425 1205.69 514.21 1205.69 518.879C1205.69 523.548 1209.47 527.333 1214.14 527.333Z" fill="#F2F2F2"/>
<path d="M1200.97 608.316V612.766H961.581V609.206L961.91 608.316L967.81 592.297H1196.07L1200.97 608.316Z" fill="#3F3D56"/>
<path d="M1293.09 603.96C1292.66 605.824 1291.01 607.791 1287.29 609.651C1273.94 616.325 1246.8 607.871 1246.8 607.871C1246.8 607.871 1225.89 604.311 1225.89 594.967C1226.47 594.565 1227.09 594.201 1227.72 593.877C1233.33 590.908 1251.94 583.581 1284.93 594.187C1287.36 594.95 1289.54 596.373 1291.21 598.297C1291.95 599.024 1292.5 599.917 1292.83 600.901C1293.16 601.886 1293.25 602.934 1293.09 603.96Z" fill="#3F3D56"/>
<path opacity="0.1" d="M1293.09 603.96C1276.75 610.22 1262.19 610.687 1247.24 600.306C1241.59 596.128 1234.75 593.874 1227.72 593.877C1233.33 590.908 1251.94 583.581 1284.93 594.187C1287.36 594.95 1289.54 596.373 1291.21 598.297C1291.95 599.024 1292.5 599.917 1292.83 600.901C1293.16 601.886 1293.25 602.934 1293.09 603.96Z" fill="black"/>
<path d="M1272.61 600.306C1275.8 600.306 1278.39 599.51 1278.39 598.527C1278.39 597.544 1275.8 596.747 1272.61 596.747C1269.41 596.747 1266.82 597.544 1266.82 598.527C1266.82 599.51 1269.41 600.306 1272.61 600.306Z" fill="#F2F2F2"/>
<path opacity="0.1" d="M1200.97 608.316V612.766H961.581V609.206L961.91 608.316H1200.97Z" fill="black"/>
<path d="M657.103 105C654.674 104.801 652.241 105.344 650.127 106.559C648.052 107.98 646.744 110.47 645.409 112.787C640.303 121.752 633.392 129.558 625.113 135.713C619.082 140.131 611.415 145.639 612.447 153.785C612.991 156.475 613.985 159.054 615.386 161.414C620.95 172.644 636.131 181.323 634.638 194.138C640.165 184.885 632.772 180.309 638.299 171.056C640.932 166.649 645.504 161.675 649.479 164.442C650.809 165.369 651.683 167.031 653.069 167.844C656.375 169.784 659.892 166.075 662.818 163.448C672.91 154.389 687.26 156.762 699.818 159.585C705.747 160.917 712.258 162.665 715.763 168.331C720.371 175.781 711.385 183.827 709.115 192.25C708.929 192.968 708.921 193.719 709.089 194.441C709.258 195.163 709.599 195.833 710.083 196.395C710.567 196.956 711.18 197.392 711.869 197.665C712.558 197.938 713.303 198.039 714.04 197.962C717.808 197.59 722.272 197.285 722.495 195.632C727.235 195.801 733.044 195.264 735.076 190.327C735.696 188.374 736.024 186.34 736.049 184.291C736.795 175.999 740.314 168.434 742.646 160.542C744.977 152.65 745.991 143.401 742.056 136.404C740.652 134.075 738.915 131.965 736.901 130.139C714.574 108.531 685.218 104.968 657.103 105Z" fill="#2F2E41"/>
<path d="M639.494 210.324C639.494 210.324 644.349 250.789 626.545 254.027C608.74 257.264 642.731 312.297 642.731 312.297L723.661 322.008L704.238 257.264C704.238 257.264 691.289 252.408 699.382 220.036C707.475 187.663 639.494 210.324 639.494 210.324Z" fill="#FFB8B8"/>
<path d="M590.126 905.517L596.601 994.541H630.591L620.88 905.517H590.126Z" fill="#FFB8B8"/>
<path d="M839.392 737.182L844.247 811.637L881.477 795.452L866.908 733.945L839.392 737.182Z" fill="#FFB8B8"/>
<path d="M565.847 565.609C565.847 565.609 567.466 659.488 577.177 690.242C586.889 720.996 585.27 722.614 583.652 727.47C582.033 732.326 580.414 729.089 580.414 737.182C580.414 745.275 577.177 873.145 580.414 884.475C583.652 895.806 570.703 915.229 580.414 916.847C590.126 918.466 635.447 916.848 637.066 907.136C638.684 897.424 624.117 894.187 630.591 887.713C637.066 881.238 646.778 748.512 646.778 748.512L669.438 656.251L711.522 607.693H800.545L828.062 714.521C828.062 714.521 816.731 745.275 824.825 745.275C832.918 745.275 881.476 754.986 881.476 719.377C881.476 683.768 865.29 578.558 862.053 575.321C858.815 572.084 863.671 560.753 858.815 555.897C853.96 551.042 797.308 517.051 776.266 510.576C755.224 504.102 725.706 496.396 725.706 496.396L565.847 565.609Z" fill="#2F2E41"/>
<path d="M881.476 782.503C881.476 782.503 857.197 774.41 845.866 798.689C834.536 822.968 839.392 829.443 839.392 829.443C839.392 829.443 876.62 842.391 883.095 835.917C885.911 833.1 894.856 832.122 904.063 831.915C918.086 831.6 921.817 811.761 908.573 807.141C908.178 807.003 907.778 806.884 907.374 806.782C894.425 803.545 881.476 782.503 881.476 782.503Z" fill="#2F2E41"/>
<path d="M675.912 237.031C702.73 237.031 724.471 215.291 724.471 188.473C724.471 161.655 702.73 139.915 675.912 139.915C649.094 139.915 627.354 161.655 627.354 188.473C627.354 215.291 649.094 237.031 675.912 237.031Z" fill="#FFB8B8"/>
<path d="M612.787 274.259C612.787 274.259 692.098 290.445 711.522 264.548C730.945 238.65 739.038 337.385 739.038 337.385L748.75 440.976L734.182 497.627C734.182 497.627 658.108 559.135 633.829 563.99C609.549 568.846 572.321 572.084 572.321 572.084C572.321 572.084 583.652 392.418 583.652 389.18C583.652 385.943 612.787 274.259 612.787 274.259Z" fill="#00A0D2"/>
<path d="M636.907 243.903C636.907 243.903 619.261 233.794 614.405 243.506C609.549 253.217 564.228 277.496 559.372 277.496C554.517 277.496 569.084 411.841 562.61 428.027C556.135 444.213 525.382 562.372 543.186 572.084C560.991 581.795 548.042 562.372 565.847 586.651C583.652 610.93 671.056 610.93 675.912 601.219C680.768 591.507 637.066 518.669 645.159 450.688C653.252 382.706 666.201 288.827 654.87 275.878C643.54 262.929 636.907 243.903 636.907 243.903Z" fill="#2F2E41"/>
<path d="M695.336 254.836L697.59 247.077C697.59 247.077 764.936 269.403 768.173 283.971C771.41 298.538 769.792 400.511 758.461 408.604C747.131 416.697 730.945 429.646 742.275 449.069C753.606 468.492 766.555 489.534 776.266 491.153C785.978 492.772 803.783 504.102 798.927 515.432C794.071 526.762 735.801 505.72 735.801 505.72C735.801 505.72 696.954 476.585 698.573 431.264C700.192 385.943 695.336 254.836 695.336 254.836Z" fill="#2F2E41"/>
<path d="M751.987 445.832L713.14 518.669C713.14 518.669 656.489 576.939 688.861 583.414C721.234 589.888 739.038 530 739.038 530L781.122 470.111L751.987 445.832Z" fill="#FFB8B8"/>
<path d="M659.469 117.705C657.512 117.56 655.551 117.941 653.79 118.807C652.198 119.97 650.885 121.474 649.949 123.209C645.632 129.703 640.004 135.222 633.427 139.413C628.518 142.535 622.276 146.429 623.116 152.186C623.572 154.116 624.384 155.945 625.509 157.578C630.054 165.596 631.863 174.876 630.663 184.014L644.162 164.393C646.304 161.278 650.027 157.762 653.262 159.718C654.345 160.373 655.056 161.548 656.184 162.123C658.876 163.494 661.739 160.873 664.121 159.016C672.336 152.613 684.018 154.29 694.24 156.285C699.066 157.227 704.367 158.463 707.22 162.467C711.961 169.123 707.011 178.739 709.778 186.427C710.552 185.885 711.21 185.193 711.712 184.392C712.214 183.59 712.55 182.697 712.7 181.763C716.559 181.882 721.288 181.503 722.941 178.014C723.444 176.647 723.712 175.204 723.734 173.747C724.341 167.887 727.206 162.54 729.104 156.962C731.002 151.384 731.827 144.847 728.624 139.901C727.452 138.225 726.038 136.733 724.428 135.473C706.252 120.201 682.356 117.683 659.469 117.705Z" fill="#2F2E41"/>
<path d="M751.987 277.496L767.068 281.499C767.068 281.499 802.164 371.376 794.071 432.883C785.978 494.39 781.122 481.441 781.122 481.441C781.122 481.441 768.173 452.306 739.038 458.781L751.987 277.496Z" fill="#2F2E41"/>
<path d="M592.369 982.776C588.465 988.08 589.248 995.662 585.79 1001.27C582.793 1006.13 577.145 1008.67 573.397 1012.98C572.2 1014.41 571.134 1015.94 570.21 1017.56C566.733 1023.39 563.906 1030.85 567.331 1036.71C570.086 1041.42 575.877 1043.26 581.188 1044.51C587.901 1046.1 594.875 1047.37 601.666 1046.16C608.456 1044.95 615.092 1040.79 617.513 1034.33C617.989 1032.7 618.555 1031.11 619.208 1029.55C622.888 1022.3 634.432 1022.22 638.199 1015.02C640.835 1009.98 638.412 1003.89 635.99 998.745L628.592 983.029C626.137 977.814 616.185 980.813 610.997 979.563C604.231 977.934 597.236 976.138 592.369 982.776Z" fill="#2F2E41"/>
<path d="M538.331 478.204L606.312 583.414C606.312 583.414 648.396 636.828 661.345 612.549C674.294 588.27 616.024 547.804 616.024 547.804L572.321 466.874L538.331 478.204Z" fill="#FFB8B8"/>
<path d="M572.321 280.734L559.372 277.496C559.372 277.496 533.475 285.589 527 319.58C520.526 353.571 525.382 489.534 533.475 491.153C541.568 492.772 573.446 467.479 578.549 472.842C583.652 478.204 567.465 450.688 572.321 436.12C577.177 421.553 572.321 280.734 572.321 280.734Z" fill="#2F2E41"/>
<path d="M1180.87 352.983H1139.04V363.055H1180.87V352.983Z" fill="#00A0D2"/>
<path d="M1325.74 352.983H1311.02V363.055H1325.74V352.983Z" fill="#00A0D2"/>
<path d="M1355.18 352.983H1340.46V363.055H1355.18V352.983Z" fill="#00A0D2"/>
<path d="M1295.53 352.983H1195.59V363.055H1295.53V352.983Z" fill="#00A0D2"/>
<path d="M1128.19 418.06H1086.36V428.131H1128.19V418.06Z" fill="#00A0D2"/>
<path d="M1273.06 418.06H1258.34V428.131H1273.06V418.06Z" fill="#00A0D2"/>
<path d="M1302.5 418.06H1287.78V428.131H1302.5V418.06Z" fill="#00A0D2"/>
<path d="M1242.85 418.06H1142.91V428.131H1242.85V418.06Z" fill="#00A0D2"/>
<path d="M1300.95 375.45H1259.12V385.521H1300.95V375.45Z" fill="#00A0D2"/>
<path d="M1357.51 375.45H1315.67V385.521H1357.51V375.45Z" fill="#00A0D2"/>
<path d="M1101.08 375.45H1086.36V385.521H1101.08V375.45Z" fill="#00A0D2"/>
<path d="M1130.52 375.45H1115.8V385.521H1130.52V375.45Z" fill="#00A0D2"/>
<path d="M1245.17 375.45H1145.23V385.521H1245.17V375.45Z" fill="#00A0D2"/>
<path d="M1214.18 397.142H1172.35V407.214H1214.18V397.142Z" fill="#00A0D2"/>
<path d="M1157.63 397.142H1115.8V407.214H1157.63V397.142Z" fill="#00A0D2"/>
<path d="M1101.08 397.142H1086.36V407.214H1101.08V397.142Z" fill="#00A0D2"/>
<path d="M1357.51 397.142H1342.79V407.214H1357.51V397.142Z" fill="#00A0D2"/>
<path d="M1328.07 397.142H1228.13V407.214H1328.07V397.142Z" fill="#00A0D2"/>
</g>
<defs>
<linearGradient id="paint0_linear_6_2" x1="0" y1="0" x2="1600" y2="1600" gradientUnits="userSpaceOnUse">
<stop stop-color="#E5F9FF"/>
<stop offset="1" stop-color="#F0FBFF"/>
</linearGradient>
<clipPath id="clip0_6_2">
<rect width="1000" height="941.64" fill="white" transform="translate(524 105)"/>
</clipPath>
</defs>
</svg>
