<svg width="1024" height="576" viewBox="0 0 1024 576" fill="none" xmlns="http://www.w3.org/2000/svg">
<rect width="1024" height="576" fill="url(#paint0_linear_6_192)"/>
<g clip-path="url(#clip0_6_192)">
<path d="M508.116 139.5C519.632 139.5 528.967 130.166 528.967 118.65C528.967 107.135 519.632 97.8003 508.116 97.8003C496.601 97.8003 487.266 107.135 487.266 118.65C487.266 130.166 496.601 139.5 508.116 139.5Z" fill="#FD6584"/>
<path d="M554.78 108.777C554.192 106.849 553.053 105.135 551.504 103.846C549.954 102.558 548.061 101.75 546.058 101.523C546.011 101.519 545.964 101.519 545.917 101.523C545.861 101.506 545.804 101.492 545.746 101.484C538.765 100.578 531.003 102.78 525.779 107.575C523.839 109.327 522.288 111.465 521.226 113.853C520.258 112.53 518.981 111.464 517.508 110.745C516.034 110.027 514.408 109.678 512.769 109.73C510.656 109.87 508.637 110.658 506.988 111.987C505.339 113.316 504.14 115.121 503.555 117.156C503.49 117.405 503.508 117.668 503.605 117.906C503.702 118.143 503.873 118.343 504.093 118.476C504.721 119.013 505.468 119.393 506.272 119.585C507.998 119.952 509.739 120.288 511.481 120.592C514.885 121.186 518.308 121.667 521.749 122.037C524.022 122.279 526.299 122.472 528.582 122.615C533.298 122.911 538.038 122.982 542.763 122.833C545.105 122.755 547.354 122.677 549.494 121.646C551.053 120.88 552.385 119.72 553.359 118.281C554.276 116.897 554.879 115.329 555.124 113.687C555.37 112.045 555.252 110.369 554.78 108.777Z" fill="#E6E6E6"/>
<path d="M511.887 139.154C511.847 138.28 511.7 137.415 511.449 136.577C510.859 134.649 509.718 132.936 508.167 131.647C506.616 130.358 504.723 129.55 502.719 129.322C502.675 129.319 502.631 129.319 502.586 129.322C502.527 129.306 502.467 129.293 502.407 129.283C498.543 128.81 494.622 129.213 490.936 130.463C485.266 132.36 480.292 136.186 477.895 141.653C476.926 140.329 475.648 139.262 474.173 138.543C472.698 137.825 471.07 137.477 469.43 137.53C467.317 137.669 465.298 138.457 463.649 139.786C462 141.115 460.801 142.92 460.216 144.956C460.155 145.204 460.174 145.466 460.271 145.703C460.368 145.94 460.537 146.14 460.755 146.275C461.384 146.811 462.13 147.191 462.933 147.384C464.667 147.751 466.4 148.087 468.15 148.392C471.554 148.985 474.974 149.467 478.41 149.836C485.391 150.586 492.415 150.852 499.432 150.633C501.766 150.555 504.023 150.477 506.163 149.446C507.72 148.679 509.049 147.519 510.02 146.08C511.389 144.04 512.045 141.605 511.887 139.154Z" fill="#E6E6E6"/>
<path d="M783.438 392.15C783.737 406.367 781.775 420.54 777.626 434.141C777.48 434.635 777.306 435.128 777.132 435.623H691.582C692.805 429.6 694.747 423.747 697.365 418.187C704.484 403.077 716.108 390.145 727.586 377.301C743.394 359.604 758.825 342.053 761.266 319.038C767.532 328.591 772.533 338.915 776.144 349.753C771.723 351.391 767.665 353.879 764.201 357.076C763.242 357.977 762.225 359.285 762.719 360.534C763.184 361.58 764.462 361.929 765.595 362.162C768.327 362.685 771.059 363.208 773.79 363.702C775.94 364.137 778.12 364.544 780.299 364.951C782.215 373.896 783.266 383.004 783.438 392.15Z" fill="#F2F2F2"/>
<path d="M855.3 382.735C841.584 391.075 832.867 403.977 825.747 418.42C819.552 419.832 813.832 422.837 809.155 427.137C808.167 428.038 807.15 429.346 807.673 430.595C808.109 431.642 809.416 431.99 810.549 432.223C813.252 432.746 816.012 433.269 818.715 433.763C818.453 434.373 818.192 435.012 817.93 435.623H727.267C731.382 430.072 735.94 424.863 740.895 420.047C741.97 418.972 743.075 417.955 744.208 416.909C755.765 406.464 769.036 398.089 783.438 392.15C806.125 382.666 830.935 379.415 855.3 382.735Z" fill="#F2F2F2"/>
<path d="M742.378 435.623H661.652C661.211 429.158 661.25 422.67 661.768 416.211C664.994 376.313 686.701 338.304 719.45 315.289C715.266 330.197 717.416 345.017 721.775 359.895C721.165 360.098 720.554 360.273 720.002 360.505C715.581 362.143 711.524 364.631 708.059 367.828C707.1 368.729 706.083 370.037 706.577 371.286C707.013 372.332 708.32 372.681 709.454 372.913C712.185 373.436 714.917 373.959 717.619 374.454C719.799 374.889 721.978 375.296 724.158 375.732C725.175 375.907 726.192 376.11 727.209 376.313C727.354 376.662 727.441 376.982 727.586 377.301C732.701 391.395 738.28 405.605 740.895 420.047C741.543 423.671 741.989 427.329 742.232 431.002C742.319 432.542 742.378 434.082 742.378 435.623Z" fill="#F2F2F2"/>
<path d="M302.415 392.15C302.714 406.367 300.753 420.54 296.603 434.141C296.458 434.635 296.283 435.128 296.109 435.623H210.56C211.783 429.6 213.724 423.747 216.342 418.187C223.462 403.077 235.085 390.145 246.564 377.301C262.372 359.604 277.802 342.053 280.243 319.038C286.509 328.591 291.51 338.915 295.121 349.753C290.7 351.391 286.643 353.879 283.178 357.076C282.219 357.977 281.202 359.285 281.696 360.534C282.161 361.58 283.439 361.929 284.573 362.162C287.304 362.685 290.036 363.208 292.767 363.702C294.918 364.137 297.097 364.544 299.276 364.951C301.192 373.896 302.243 383.004 302.415 392.15Z" fill="#F2F2F2"/>
<path d="M374.278 382.735C360.562 391.075 351.844 403.977 344.725 418.42C338.529 419.832 332.81 422.837 328.132 427.137C327.144 428.038 326.127 429.346 326.65 430.595C327.086 431.642 328.394 431.99 329.527 432.223C332.229 432.746 334.99 433.269 337.692 433.763C337.431 434.373 337.169 435.012 336.908 435.623H246.244C250.36 430.072 254.917 424.863 259.873 420.047C260.948 418.972 262.052 417.955 263.185 416.909C274.743 406.464 288.013 398.089 302.415 392.15C325.103 382.666 349.912 379.415 374.278 382.735Z" fill="#F2F2F2"/>
<path d="M261.355 435.623H180.629C180.188 429.158 180.227 422.67 180.745 416.211C183.971 376.313 205.678 338.304 238.427 315.289C234.243 330.197 236.393 345.017 240.752 359.895C240.142 360.098 239.532 360.273 238.979 360.505C234.558 362.143 230.501 364.631 227.036 367.828C226.077 368.729 225.06 370.037 225.554 371.286C225.99 372.332 227.298 372.681 228.431 372.913C231.162 373.436 233.894 373.959 236.597 374.454C238.776 374.889 240.955 375.296 243.135 375.732C244.152 375.907 245.169 376.11 246.186 376.313C246.331 376.662 246.418 376.982 246.564 377.301C251.678 391.395 257.257 405.605 259.873 420.047C260.52 423.671 260.966 427.329 261.21 431.002C261.297 432.542 261.355 434.082 261.355 435.623Z" fill="#F2F2F2"/>
<path d="M561.884 401.731L634.014 408.134L634.787 408.204V100.428C634.53 100.248 634.272 100.068 634.014 99.8888C618.982 89.374 602.72 80.7359 585.592 74.1666L581.906 125.002L581.57 129.656L577.924 180.07L576.799 195.578L562.017 399.935L561.884 401.731Z" fill="#E6E6E6"/>
<path d="M383.508 94.696C382.992 95.0239 382.477 95.3519 381.961 95.6955V408.204L383.508 408.063L454.857 401.731L454.724 399.935L439.942 195.578L438.817 180.07L435.171 129.656L434.835 125.002L430.969 71.6912C414.3 77.4692 398.37 85.1907 383.508 94.696Z" fill="#E6E6E6"/>
<path d="M381.961 95.6955C380.923 96.367 379.884 97.0542 378.861 97.7492V412.468C378.861 420.331 383.523 426.922 389.755 428.601C390.773 428.876 391.823 429.016 392.878 429.014H624.644C625.696 429.016 626.744 428.877 627.759 428.601C630.076 427.958 632.175 426.701 633.835 424.962C637 421.579 638.73 417.1 638.66 412.468V103.223C637.38 102.278 636.091 101.341 634.787 100.428C634.53 100.248 634.272 100.068 634.014 99.8888V412.468C634.016 413.481 633.895 414.49 633.655 415.474C632.554 420.12 628.923 423.525 624.644 423.525H392.878C387.709 423.525 383.508 418.566 383.508 412.468V94.696C382.992 95.0239 382.477 95.3519 381.961 95.6955Z" fill="#E6E6E6"/>
<path d="M636.337 125.005H381.182V129.658H636.337V125.005Z" fill="#E6E6E6"/>
<path d="M558.191 65.6472C556.645 65.2646 555.098 64.9054 553.537 64.5696V190.924H558.191V65.6472Z" fill="#E6E6E6"/>
<path d="M463.985 63C462.431 63.2889 460.877 63.5857 459.331 63.9058V190.924H463.985V63Z" fill="#E6E6E6"/>
<path d="M331.157 420.87C331.156 423.54 331.668 426.186 332.664 428.663C333.047 429.624 333.504 430.553 334.031 431.443C334.711 432.604 335.501 433.697 336.389 434.707C338.351 436.943 340.767 438.734 343.477 439.961C346.186 441.187 349.126 441.822 352.1 441.821H657.667C663.221 441.821 668.548 439.614 672.476 435.687C676.404 431.759 678.61 426.432 678.61 420.878C678.61 415.323 676.404 409.996 672.476 406.069C668.548 402.141 663.221 399.935 657.667 399.935H352.1C346.549 399.94 341.226 402.147 337.3 406.072C333.374 409.997 331.165 415.318 331.157 420.87Z" fill="#E6E6E6"/>
<path d="M381.183 195.58L634.786 195.58V180.069L381.183 180.069V195.58Z" fill="#E6E6E6"/>
<path d="M518.842 183.947H497.127C497.127 181.684 498.025 179.514 499.625 177.914C501.225 176.314 503.395 175.416 505.657 175.416H510.311C511.431 175.416 512.54 175.636 513.575 176.065C514.61 176.494 515.551 177.122 516.343 177.914C517.135 178.706 517.764 179.647 518.192 180.682C518.621 181.717 518.842 182.826 518.842 183.947H518.842Z" fill="#E6E6E6"/>
<path d="M168 432.833C174.784 440.871 182.121 448.425 189.958 455.44H819.801C827.639 448.425 834.976 440.871 841.76 432.833H168Z" fill="#3F3D56"/>
<path d="M477.768 357.236V437.323H533.874V357.236C533.875 356.66 533.691 356.099 533.349 355.635C533.008 355.171 532.527 354.829 531.976 354.659C531.717 354.573 531.445 354.531 531.172 354.534H480.477C480.122 354.533 479.77 354.603 479.441 354.738C479.113 354.874 478.814 355.073 478.562 355.323C478.311 355.574 478.111 355.872 477.975 356.201C477.838 356.529 477.768 356.881 477.768 357.236ZM499.663 384.754C499.678 383.175 500.316 381.666 501.437 380.555C502.559 379.444 504.074 378.821 505.653 378.821C507.232 378.821 508.747 379.444 509.868 380.555C510.99 381.666 511.627 383.175 511.642 384.754V394.047C511.634 395.63 510.999 397.145 509.877 398.262C508.755 399.379 507.236 400.006 505.653 400.006C504.07 400.006 502.551 399.379 501.428 398.262C500.306 397.145 499.672 395.63 499.663 394.047V384.754Z" fill="#2F2E41"/>
<path d="M477.596 434.762V442.485C477.597 442.885 477.756 443.268 478.038 443.552C478.32 443.835 478.703 443.996 479.103 444H532.539C532.939 443.998 533.323 443.837 533.605 443.553C533.887 443.269 534.046 442.885 534.046 442.485V434.762H477.596Z" fill="#3F3D56"/>
<path d="M389.505 236.574V382.802C389.506 384.666 390.247 386.452 391.565 387.77C392.882 389.088 394.669 389.828 396.533 389.83H613.227C615.09 389.829 616.877 389.088 618.195 387.77C619.513 386.452 620.253 384.666 620.255 382.802V236.574C620.251 234.712 619.508 232.928 618.191 231.612C616.874 230.297 615.089 229.557 613.227 229.554H396.533C394.671 229.557 392.886 230.297 391.568 231.612C390.251 232.928 389.509 234.712 389.505 236.574Z" fill="#3F3D56"/>
<path d="M394.588 238.394V380.998C394.59 381.994 394.986 382.948 395.69 383.652C396.394 384.356 397.349 384.752 398.344 384.754H611.423C612.419 384.752 613.373 384.356 614.077 383.652C614.781 382.948 615.178 381.994 615.179 380.998V238.394C615.179 237.397 614.784 236.441 614.08 235.735C613.375 235.029 612.42 234.632 611.423 234.63H398.344C397.347 234.632 396.392 235.029 395.688 235.735C394.984 236.441 394.588 237.397 394.588 238.394Z" fill="#00A0D2"/>
<path d="M438.036 445.819C438.253 446.091 438.529 446.31 438.843 446.46C439.157 446.611 439.5 446.688 439.848 446.686H566.616C566.963 446.685 567.305 446.608 567.618 446.458C567.931 446.309 568.207 446.092 568.425 445.823C568.643 445.553 568.799 445.239 568.881 444.902C568.962 444.565 568.968 444.214 568.896 443.875L566.929 434.528C566.847 434.146 566.671 433.792 566.418 433.496C566.164 433.2 565.84 432.972 565.476 432.833C565.213 432.73 564.932 432.677 564.648 432.677H441.808C441.525 432.677 441.244 432.73 440.98 432.833C440.616 432.972 440.292 433.2 440.039 433.496C439.785 433.792 439.61 434.146 439.528 434.528L437.56 443.875C437.49 444.214 437.497 444.564 437.579 444.901C437.661 445.237 437.818 445.551 438.036 445.819Z" fill="#2F2E41"/>
<path d="M560.225 436.703H563.367C563.577 436.703 563.748 436.532 563.748 436.322V434.741C563.748 434.531 563.577 434.36 563.367 434.36H560.225C560.014 434.36 559.844 434.531 559.844 434.741V436.322C559.844 436.532 560.014 436.703 560.225 436.703Z" fill="#3F3D56"/>
<path d="M552.416 436.703H555.558C555.769 436.703 555.939 436.532 555.939 436.322V434.741C555.939 434.531 555.769 434.36 555.558 434.36H552.416C552.206 434.36 552.035 434.531 552.035 434.741V436.322C552.035 436.532 552.206 436.703 552.416 436.703Z" fill="#3F3D56"/>
<path d="M544.607 436.703H547.749C547.96 436.703 548.13 436.532 548.13 436.322V434.741C548.13 434.531 547.96 434.36 547.749 434.36H544.607C544.397 434.36 544.226 434.531 544.226 434.741V436.322C544.226 436.532 544.397 436.703 544.607 436.703Z" fill="#3F3D56"/>
<path d="M536.799 436.703H539.941C540.151 436.703 540.322 436.532 540.322 436.322V434.741C540.322 434.531 540.151 434.36 539.941 434.36H536.799C536.588 434.36 536.417 434.531 536.417 434.741V436.322C536.417 436.532 536.588 436.703 536.799 436.703Z" fill="#3F3D56"/>
<path d="M528.99 436.703H532.132C532.342 436.703 532.513 436.532 532.513 436.322V434.741C532.513 434.531 532.342 434.36 532.132 434.36H528.99C528.779 434.36 528.609 434.531 528.609 434.741V436.322C528.609 436.532 528.779 436.703 528.99 436.703Z" fill="#3F3D56"/>
<path d="M521.181 436.703H524.323C524.533 436.703 524.704 436.532 524.704 436.322V434.741C524.704 434.531 524.533 434.36 524.323 434.36H521.181C520.97 434.36 520.8 434.531 520.8 434.741V436.322C520.8 436.532 520.97 436.703 521.181 436.703Z" fill="#3F3D56"/>
<path d="M513.372 436.703H516.514C516.725 436.703 516.895 436.532 516.895 436.322V434.741C516.895 434.531 516.725 434.36 516.514 434.36H513.372C513.161 434.36 512.991 434.531 512.991 434.741V436.322C512.991 436.532 513.161 436.703 513.372 436.703Z" fill="#3F3D56"/>
<path d="M505.563 436.703H508.705C508.916 436.703 509.086 436.532 509.086 436.322V434.741C509.086 434.531 508.916 434.36 508.705 434.36H505.563C505.353 434.36 505.182 434.531 505.182 434.741V436.322C505.182 436.532 505.353 436.703 505.563 436.703Z" fill="#3F3D56"/>
<path d="M497.754 436.703H500.896C501.107 436.703 501.278 436.532 501.278 436.322V434.741C501.278 434.531 501.107 434.36 500.896 434.36H497.754C497.544 434.36 497.373 434.531 497.373 434.741V436.322C497.373 436.532 497.544 436.703 497.754 436.703Z" fill="#3F3D56"/>
<path d="M489.946 436.703H493.088C493.298 436.703 493.469 436.532 493.469 436.322V434.741C493.469 434.531 493.298 434.36 493.088 434.36H489.946C489.735 434.36 489.564 434.531 489.564 434.741V436.322C489.564 436.532 489.735 436.703 489.946 436.703Z" fill="#3F3D56"/>
<path d="M482.137 436.703H485.279C485.489 436.703 485.66 436.532 485.66 436.322V434.741C485.66 434.531 485.489 434.36 485.279 434.36H482.137C481.926 434.36 481.756 434.531 481.756 434.741V436.322C481.756 436.532 481.926 436.703 482.137 436.703Z" fill="#3F3D56"/>
<path d="M474.328 436.703H477.47C477.681 436.703 477.851 436.532 477.851 436.322V434.741C477.851 434.531 477.681 434.36 477.47 434.36H474.328C474.118 434.36 473.947 434.531 473.947 434.741V436.322C473.947 436.532 474.118 436.703 474.328 436.703Z" fill="#3F3D56"/>
<path d="M466.519 436.703H469.661C469.872 436.703 470.042 436.532 470.042 436.322V434.741C470.042 434.531 469.872 434.36 469.661 434.36H466.519C466.309 434.36 466.138 434.531 466.138 434.741V436.322C466.138 436.532 466.309 436.703 466.519 436.703Z" fill="#3F3D56"/>
<path d="M458.71 436.703H461.852C462.063 436.703 462.234 436.532 462.234 436.322V434.741C462.234 434.531 462.063 434.36 461.852 434.36H458.71C458.5 434.36 458.329 434.531 458.329 434.741V436.322C458.329 436.532 458.5 436.703 458.71 436.703Z" fill="#3F3D56"/>
<path d="M450.902 436.703H454.044C454.254 436.703 454.425 436.532 454.425 436.322V434.741C454.425 434.531 454.254 434.36 454.044 434.36H450.902C450.691 434.36 450.52 434.531 450.52 434.741V436.322C450.52 436.532 450.691 436.703 450.902 436.703Z" fill="#3F3D56"/>
<path d="M443.093 436.703H446.235C446.445 436.703 446.616 436.532 446.616 436.322V434.741C446.616 434.531 446.445 434.36 446.235 434.36H443.093C442.882 434.36 442.712 434.531 442.712 434.741V436.322C442.712 436.532 442.882 436.703 443.093 436.703Z" fill="#3F3D56"/>
<path d="M560.317 440.607H563.459C563.67 440.607 563.84 440.437 563.84 440.226V438.646C563.84 438.435 563.67 438.265 563.459 438.265H560.317C560.107 438.265 559.936 438.435 559.936 438.646V440.226C559.936 440.437 560.107 440.607 560.317 440.607Z" fill="#3F3D56"/>
<path d="M552.508 440.607H555.65C555.861 440.607 556.032 440.437 556.032 440.226V438.646C556.032 438.435 555.861 438.265 555.65 438.265H552.508C552.298 438.265 552.127 438.435 552.127 438.646V440.226C552.127 440.437 552.298 440.607 552.508 440.607Z" fill="#3F3D56"/>
<path d="M544.7 440.607H547.842C548.052 440.607 548.223 440.437 548.223 440.226V438.646C548.223 438.435 548.052 438.265 547.842 438.265H544.7C544.489 438.265 544.318 438.435 544.318 438.646V440.226C544.318 440.437 544.489 440.607 544.7 440.607Z" fill="#3F3D56"/>
<path d="M536.891 440.607H540.033C540.243 440.607 540.414 440.437 540.414 440.226V438.646C540.414 438.435 540.243 438.265 540.033 438.265H536.891C536.68 438.265 536.51 438.435 536.51 438.646V440.226C536.51 440.437 536.68 440.607 536.891 440.607Z" fill="#3F3D56"/>
<path d="M529.082 440.607H532.224C532.435 440.607 532.605 440.437 532.605 440.226V438.646C532.605 438.435 532.435 438.265 532.224 438.265H529.082C528.871 438.265 528.701 438.435 528.701 438.646V440.226C528.701 440.437 528.871 440.607 529.082 440.607Z" fill="#3F3D56"/>
<path d="M521.273 440.607H524.415C524.626 440.607 524.796 440.437 524.796 440.226V438.646C524.796 438.435 524.626 438.265 524.415 438.265H521.273C521.063 438.265 520.892 438.435 520.892 438.646V440.226C520.892 440.437 521.063 440.607 521.273 440.607Z" fill="#3F3D56"/>
<path d="M513.464 440.607H516.606C516.817 440.607 516.988 440.437 516.988 440.226V438.646C516.988 438.435 516.817 438.265 516.606 438.265H513.464C513.254 438.265 513.083 438.435 513.083 438.646V440.226C513.083 440.437 513.254 440.607 513.464 440.607Z" fill="#3F3D56"/>
<path d="M505.655 440.607H508.797C509.008 440.607 509.179 440.437 509.179 440.226V438.646C509.179 438.435 509.008 438.265 508.797 438.265H505.655C505.445 438.265 505.274 438.435 505.274 438.646V440.226C505.274 440.437 505.445 440.607 505.655 440.607Z" fill="#3F3D56"/>
<path d="M497.847 440.607H500.989C501.199 440.607 501.37 440.437 501.37 440.226V438.646C501.37 438.435 501.199 438.265 500.989 438.265H497.847C497.636 438.265 497.465 438.435 497.465 438.646V440.226C497.465 440.437 497.636 440.607 497.847 440.607Z" fill="#3F3D56"/>
<path d="M490.038 440.607H493.18C493.39 440.607 493.561 440.437 493.561 440.226V438.646C493.561 438.435 493.39 438.265 493.18 438.265H490.038C489.827 438.265 489.657 438.435 489.657 438.646V440.226C489.657 440.437 489.827 440.607 490.038 440.607Z" fill="#3F3D56"/>
<path d="M482.229 440.607H485.371C485.582 440.607 485.752 440.437 485.752 440.226V438.646C485.752 438.435 485.582 438.265 485.371 438.265H482.229C482.019 438.265 481.848 438.435 481.848 438.646V440.226C481.848 440.437 482.019 440.607 482.229 440.607Z" fill="#3F3D56"/>
<path d="M474.42 440.607H477.562C477.773 440.607 477.944 440.437 477.944 440.226V438.646C477.944 438.435 477.773 438.265 477.562 438.265H474.42C474.21 438.265 474.039 438.435 474.039 438.646V440.226C474.039 440.437 474.21 440.607 474.42 440.607Z" fill="#3F3D56"/>
<path d="M466.612 440.607H469.754C469.964 440.607 470.135 440.437 470.135 440.226V438.646C470.135 438.435 469.964 438.265 469.754 438.265H466.612C466.401 438.265 466.23 438.435 466.23 438.646V440.226C466.23 440.437 466.401 440.607 466.612 440.607Z" fill="#3F3D56"/>
<path d="M458.803 440.607H461.945C462.155 440.607 462.326 440.437 462.326 440.226V438.646C462.326 438.435 462.155 438.265 461.945 438.265H458.803C458.592 438.265 458.422 438.435 458.422 438.646V440.226C458.422 440.437 458.592 440.607 458.803 440.607Z" fill="#3F3D56"/>
<path d="M450.994 440.607H454.136C454.346 440.607 454.517 440.437 454.517 440.226V438.646C454.517 438.435 454.346 438.265 454.136 438.265H450.994C450.783 438.265 450.613 438.435 450.613 438.646V440.226C450.613 440.437 450.783 440.607 450.994 440.607Z" fill="#3F3D56"/>
<path d="M443.185 440.607H446.327C446.538 440.607 446.708 440.437 446.708 440.226V438.646C446.708 438.435 446.538 438.265 446.327 438.265H443.185C442.974 438.265 442.804 438.435 442.804 438.646V440.226C442.804 440.437 442.974 440.607 443.185 440.607Z" fill="#3F3D56"/>
<path d="M495.504 445.293H525.977C526.187 445.293 526.358 445.122 526.358 444.911V443.331C526.358 443.121 526.187 442.95 525.977 442.95H495.504C495.294 442.95 495.123 443.121 495.123 443.331V444.911C495.123 445.122 495.294 445.293 495.504 445.293Z" fill="#3F3D56"/>
<path d="M409.052 254.274H608.429C608.636 254.27 608.833 254.184 608.978 254.036C609.123 253.888 609.204 253.689 609.204 253.481C609.204 253.274 609.123 253.075 608.978 252.927C608.833 252.779 608.636 252.693 608.429 252.688H409.052C408.844 252.693 408.647 252.779 408.502 252.927C408.357 253.075 408.276 253.274 408.276 253.481C408.276 253.689 408.357 253.888 408.502 254.036C408.647 254.184 408.844 254.27 409.052 254.274Z" fill="#3F3D56"/>
<path d="M594.857 248.64C597.423 248.64 599.504 246.514 599.504 243.89C599.504 241.267 597.423 239.14 594.857 239.14C592.291 239.14 590.21 241.267 590.21 243.89C590.21 246.514 592.291 248.64 594.857 248.64Z" fill="#3F3D56"/>
<path d="M578.805 248.64C581.371 248.64 583.452 246.514 583.452 243.89C583.452 241.267 581.371 239.14 578.805 239.14C576.239 239.14 574.158 241.267 574.158 243.89C574.158 246.514 576.239 248.64 578.805 248.64Z" fill="#3F3D56"/>
<path d="M562.753 248.64C565.319 248.64 567.4 246.514 567.4 243.89C567.4 241.267 565.319 239.14 562.753 239.14C560.187 239.14 558.107 241.267 558.107 243.89C558.107 246.514 560.187 248.64 562.753 248.64Z" fill="#3F3D56"/>
<path d="M417.866 241.181C417.866 241.294 417.887 241.405 417.93 241.509C417.972 241.613 418.035 241.707 418.114 241.787C418.193 241.867 418.287 241.93 418.39 241.974C418.494 242.017 418.605 242.04 418.717 242.04H430.118C430.344 242.035 430.558 241.942 430.716 241.781C430.873 241.619 430.961 241.403 430.961 241.178C430.961 240.952 430.873 240.736 430.716 240.574C430.558 240.413 430.344 240.32 430.118 240.315H418.717C418.49 240.317 418.273 240.41 418.113 240.573C417.954 240.735 417.865 240.954 417.866 241.181Z" fill="#3F3D56"/>
<path d="M417.866 244.422C417.866 244.534 417.887 244.646 417.93 244.75C417.972 244.854 418.035 244.948 418.114 245.028C418.193 245.108 418.287 245.171 418.39 245.215C418.494 245.258 418.605 245.281 418.717 245.281H430.118C430.344 245.276 430.558 245.183 430.716 245.022C430.874 244.86 430.962 244.644 430.962 244.418C430.962 244.193 430.874 243.976 430.716 243.815C430.558 243.653 430.344 243.56 430.118 243.555H418.717C418.49 243.558 418.273 243.651 418.113 243.813C417.954 243.976 417.865 244.194 417.866 244.422Z" fill="#3F3D56"/>
<path d="M417.866 247.655C417.865 247.883 417.954 248.101 418.113 248.264C418.273 248.426 418.49 248.519 418.717 248.522H430.118C430.344 248.516 430.558 248.423 430.716 248.262C430.873 248.101 430.961 247.884 430.961 247.659C430.961 247.433 430.873 247.217 430.716 247.056C430.558 246.894 430.344 246.801 430.118 246.796H418.717C418.605 246.796 418.494 246.819 418.39 246.862C418.287 246.906 418.193 246.969 418.114 247.049C418.035 247.129 417.972 247.223 417.93 247.327C417.887 247.431 417.866 247.543 417.866 247.655Z" fill="#3F3D56"/>
<path d="M421.39 272.7H417.293C416.051 272.7 415.044 273.707 415.044 274.949C415.044 276.191 416.051 277.198 417.293 277.198H421.39C422.632 277.198 423.639 276.191 423.639 274.949C423.639 273.707 422.632 272.7 421.39 272.7Z" fill="#E6E6E6"/>
<path d="M468.242 272.7H464.146C462.904 272.7 461.897 273.707 461.897 274.949C461.897 276.191 462.904 277.198 464.146 277.198H468.242C469.485 277.198 470.491 276.191 470.491 274.949C470.491 273.707 469.485 272.7 468.242 272.7Z" fill="#E6E6E6"/>
<path d="M481.517 272.7H477.421C476.179 272.7 475.172 273.707 475.172 274.949C475.172 276.191 476.179 277.198 477.421 277.198H481.517C482.759 277.198 483.766 276.191 483.766 274.949C483.766 273.707 482.759 272.7 481.517 272.7Z" fill="#E6E6E6"/>
<path d="M455.498 272.325H430.037C428.795 272.325 427.788 273.332 427.788 274.574C427.788 275.816 428.795 276.823 430.037 276.823H455.498C456.74 276.823 457.747 275.816 457.747 274.574C457.747 273.332 456.74 272.325 455.498 272.325Z" fill="#E6E6E6"/>
<path d="M517.969 272.325H492.508C491.266 272.325 490.259 273.332 490.259 274.574C490.259 275.816 491.266 276.823 492.508 276.823H517.969C519.211 276.823 520.218 275.816 520.218 274.574C520.218 273.332 519.211 272.325 517.969 272.325Z" fill="#E6E6E6"/>
<path d="M433.884 282.852H429.787C428.545 282.852 427.538 283.859 427.538 285.101C427.538 286.343 428.545 287.35 429.787 287.35H433.884C435.126 287.35 436.133 286.343 436.133 285.101C436.133 283.859 435.126 282.852 433.884 282.852Z" fill="#E6E6E6"/>
<path d="M480.737 282.852H476.64C475.398 282.852 474.391 283.859 474.391 285.101C474.391 286.343 475.398 287.35 476.64 287.35H480.737C481.979 287.35 482.986 286.343 482.986 285.101C482.986 283.859 481.979 282.852 480.737 282.852Z" fill="#E6E6E6"/>
<path d="M494.012 282.852H489.915C488.673 282.852 487.666 283.859 487.666 285.101C487.666 286.343 488.673 287.35 489.915 287.35H494.012C495.254 287.35 496.26 286.343 496.26 285.101C496.26 283.859 495.254 282.852 494.012 282.852Z" fill="#E6E6E6"/>
<path d="M467.993 282.477H442.531C441.289 282.477 440.282 283.484 440.282 284.726C440.282 285.968 441.289 286.975 442.531 286.975H467.993C469.235 286.975 470.242 285.968 470.242 284.726C470.242 283.484 469.235 282.477 467.993 282.477Z" fill="#E6E6E6"/>
<path d="M530.463 282.477H505.002C503.76 282.477 502.753 283.484 502.753 284.726C502.753 285.968 503.76 286.975 505.002 286.975H530.463C531.705 286.975 532.712 285.968 532.712 284.726C532.712 283.484 531.705 282.477 530.463 282.477Z" fill="#E6E6E6"/>
<path d="M446.378 293.003H442.281C441.039 293.003 440.032 294.01 440.032 295.252C440.032 296.494 441.039 297.501 442.281 297.501H446.378C447.62 297.501 448.627 296.494 448.627 295.252C448.627 294.01 447.62 293.003 446.378 293.003Z" fill="#E6E6E6"/>
<path d="M493.231 293.003H489.134C487.892 293.003 486.885 294.01 486.885 295.252C486.885 296.494 487.892 297.501 489.134 297.501H493.231C494.473 297.501 495.48 296.494 495.48 295.252C495.48 294.01 494.473 293.003 493.231 293.003Z" fill="#E6E6E6"/>
<path d="M506.506 293.003H502.409C501.167 293.003 500.16 294.01 500.16 295.252C500.16 296.494 501.167 297.501 502.409 297.501H506.506C507.748 297.501 508.755 296.494 508.755 295.252C508.755 294.01 507.748 293.003 506.506 293.003Z" fill="#E6E6E6"/>
<path d="M480.487 292.628H455.025C453.783 292.628 452.776 293.635 452.776 294.877C452.776 296.119 453.783 297.126 455.025 297.126H480.487C481.729 297.126 482.735 296.119 482.735 294.877C482.735 293.635 481.729 292.628 480.487 292.628Z" fill="#E6E6E6"/>
<path d="M542.957 292.628H517.496C516.254 292.628 515.247 293.635 515.247 294.877C515.247 296.119 516.254 297.126 517.496 297.126H542.957C544.199 297.126 545.206 296.119 545.206 294.877C545.206 293.635 544.199 292.628 542.957 292.628Z" fill="#E6E6E6"/>
<path d="M458.872 303.155H454.775C453.533 303.155 452.526 304.162 452.526 305.404C452.526 306.646 453.533 307.652 454.775 307.652H458.872C460.114 307.652 461.121 306.646 461.121 305.404C461.121 304.162 460.114 303.155 458.872 303.155Z" fill="#E6E6E6"/>
<path d="M505.725 303.155H501.628C500.386 303.155 499.379 304.162 499.379 305.404C499.379 306.646 500.386 307.652 501.628 307.652H505.725C506.967 307.652 507.974 306.646 507.974 305.404C507.974 304.162 506.967 303.155 505.725 303.155Z" fill="#E6E6E6"/>
<path d="M519 303.155H514.903C513.661 303.155 512.654 304.162 512.654 305.404C512.654 306.646 513.661 307.652 514.903 307.652H519C520.242 307.652 521.249 306.646 521.249 305.404C521.249 304.162 520.242 303.155 519 303.155Z" fill="#E6E6E6"/>
<path d="M492.981 302.78H467.519C466.277 302.78 465.271 303.787 465.271 305.029C465.271 306.271 466.277 307.278 467.519 307.278H492.981C494.223 307.278 495.23 306.271 495.23 305.029C495.23 303.787 494.223 302.78 492.981 302.78Z" fill="#E6E6E6"/>
<path d="M468.242 343.521H464.146C462.904 343.521 461.897 344.528 461.897 345.77C461.897 347.012 462.904 348.019 464.146 348.019H468.242C469.485 348.019 470.491 347.012 470.491 345.77C470.491 344.528 469.485 343.521 468.242 343.521Z" fill="#E6E6E6"/>
<path d="M481.517 343.521H477.421C476.179 343.521 475.172 344.528 475.172 345.77C475.172 347.012 476.179 348.019 477.421 348.019H481.517C482.759 348.019 483.766 347.012 483.766 345.77C483.766 344.528 482.759 343.521 481.517 343.521Z" fill="#E6E6E6"/>
<path d="M517.969 343.896H492.508C491.266 343.896 490.259 344.903 490.259 346.145C490.259 347.387 491.266 348.394 492.508 348.394H517.969C519.211 348.394 520.218 347.387 520.218 346.145C520.218 344.903 519.211 343.896 517.969 343.896Z" fill="#E6E6E6"/>
<path d="M421.39 343.521H417.293C416.051 343.521 415.044 344.528 415.044 345.77C415.044 347.012 416.051 348.019 417.293 348.019H421.39C422.632 348.019 423.639 347.012 423.639 345.77C423.639 344.528 422.632 343.521 421.39 343.521Z" fill="#E6E6E6"/>
<path d="M455.498 343.896H430.037C428.795 343.896 427.788 344.903 427.788 346.145C427.788 347.387 428.795 348.394 430.037 348.394H455.498C456.74 348.394 457.747 347.387 457.747 346.145C457.747 344.903 456.74 343.896 455.498 343.896Z" fill="#E6E6E6"/>
<path d="M433.884 333.37H429.787C428.545 333.37 427.538 334.377 427.538 335.619C427.538 336.861 428.545 337.868 429.787 337.868H433.884C435.126 337.868 436.133 336.861 436.133 335.619C436.133 334.377 435.126 333.37 433.884 333.37Z" fill="#E6E6E6"/>
<path d="M480.737 333.37H476.64C475.398 333.37 474.391 334.377 474.391 335.619C474.391 336.861 475.398 337.868 476.64 337.868H480.737C481.979 337.868 482.986 336.861 482.986 335.619C482.986 334.377 481.979 333.37 480.737 333.37Z" fill="#E6E6E6"/>
<path d="M494.012 333.37H489.915C488.673 333.37 487.666 334.377 487.666 335.619C487.666 336.861 488.673 337.868 489.915 337.868H494.012C495.254 337.868 496.26 336.861 496.26 335.619C496.26 334.377 495.254 333.37 494.012 333.37Z" fill="#E6E6E6"/>
<path d="M467.993 333.745H442.531C441.289 333.745 440.282 334.752 440.282 335.994C440.282 337.236 441.289 338.242 442.531 338.242H467.993C469.235 338.242 470.242 337.236 470.242 335.994C470.242 334.752 469.235 333.745 467.993 333.745Z" fill="#E6E6E6"/>
<path d="M446.378 323.218H442.281C441.039 323.218 440.032 324.225 440.032 325.467C440.032 326.709 441.039 327.716 442.281 327.716H446.378C447.62 327.716 448.627 326.709 448.627 325.467C448.627 324.225 447.62 323.218 446.378 323.218Z" fill="#E6E6E6"/>
<path d="M493.231 323.218H489.134C487.892 323.218 486.885 324.225 486.885 325.467C486.885 326.709 487.892 327.716 489.134 327.716H493.231C494.473 327.716 495.48 326.709 495.48 325.467C495.48 324.225 494.473 323.218 493.231 323.218Z" fill="#E6E6E6"/>
<path d="M506.506 323.218H502.409C501.167 323.218 500.16 324.225 500.16 325.467C500.16 326.709 501.167 327.716 502.409 327.716H506.506C507.748 327.716 508.755 326.709 508.755 325.467C508.755 324.225 507.748 323.218 506.506 323.218Z" fill="#E6E6E6"/>
<path d="M480.487 323.593H455.025C453.783 323.593 452.776 324.6 452.776 325.842C452.776 327.084 453.783 328.091 455.025 328.091H480.487C481.729 328.091 482.735 327.084 482.735 325.842C482.735 324.6 481.729 323.593 480.487 323.593Z" fill="#E6E6E6"/>
<path d="M458.872 313.067H454.775C453.533 313.067 452.526 314.074 452.526 315.316C452.526 316.558 453.533 317.565 454.775 317.565H458.872C460.114 317.565 461.121 316.558 461.121 315.316C461.121 314.074 460.114 313.067 458.872 313.067Z" fill="#E6E6E6"/>
<path d="M505.725 313.067H501.628C500.386 313.067 499.379 314.074 499.379 315.316C499.379 316.558 500.386 317.565 501.628 317.565H505.725C506.967 317.565 507.974 316.558 507.974 315.316C507.974 314.074 506.967 313.067 505.725 313.067Z" fill="#E6E6E6"/>
<path d="M519 313.067H514.903C513.661 313.067 512.654 314.074 512.654 315.316C512.654 316.558 513.661 317.565 514.903 317.565H519C520.242 317.565 521.249 316.558 521.249 315.316C521.249 314.074 520.242 313.067 519 313.067Z" fill="#E6E6E6"/>
<path d="M492.981 313.442H467.519C466.277 313.442 465.271 314.449 465.271 315.691C465.271 316.933 466.277 317.94 467.519 317.94H492.981C494.223 317.94 495.23 316.933 495.23 315.691C495.23 314.449 494.223 313.442 492.981 313.442Z" fill="#E6E6E6"/>
<path d="M441.24 489.324C441.068 489.41 440.896 489.496 440.724 489.574C439.639 490.112 438.546 490.643 437.445 491.167C434.149 492.736 430.812 494.228 427.434 495.641C418.544 499.359 409.422 502.497 400.126 505.035C398.564 495.297 397.05 472.332 395.597 455.441C395.324 452.263 395.05 449.304 394.777 446.688C394.518 443.253 394.025 439.841 393.301 436.474C393.231 436.21 393.128 435.956 392.997 435.716C393.145 437.067 393.301 441.097 393.45 446.688C393.528 449.304 393.598 452.263 393.676 455.441C394.043 471.699 394.426 493.822 394.808 506.417C393.723 506.683 392.63 506.948 391.537 507.198C390.849 507.362 390.154 507.518 389.459 507.667C388.616 507.854 387.773 508.041 386.929 508.213C386.047 508.401 385.165 508.58 384.282 508.752C369.862 511.585 355.201 513.007 340.506 513C339.53 513 338.562 512.992 337.585 512.984C337.289 512.984 336.992 512.977 336.687 512.969C335.828 512.953 334.938 512.938 334.032 512.914C316.666 512.434 299.414 509.947 282.619 505.504L283.299 455.441L283.416 446.688L283.463 443.369C283.076 444.436 282.844 445.554 282.775 446.688C282.502 448.819 282.221 451.841 281.94 455.441C280.87 469.31 279.769 491.682 278.629 504.41C265.127 500.568 255.257 497.062 242.919 490.893C242.443 490.659 241.959 490.417 241.482 490.175C241.568 489.574 241.662 488.972 241.748 488.355C243.146 478.641 241.498 465.999 243.044 455.441C244.223 447.297 245.441 439.472 246.667 432.835C248.151 424.846 249.658 418.568 251.15 415.515C252.868 411.993 254.586 408.526 256.249 405.207C256.967 403.778 257.673 402.375 258.365 400.998C258.74 400.256 259.115 399.522 259.482 398.804C261.153 395.532 262.73 392.51 264.175 389.832C265.19 387.95 266.127 386.247 266.986 384.756C267.993 382.999 268.884 381.546 269.618 380.445C275.039 372.227 283.106 366.108 292.482 363.102L292.716 363.04L292.942 363.133L293.2 363.25L308.084 357.808L314.729 341.807L348.861 339.707L354.374 343.9L357.193 346.048L360.2 348.336L365.728 352.545L367.298 353.029L369.633 353.747L385.602 358.651L385.766 358.581L386 358.643C394.532 361.374 402 366.697 407.365 373.87C407.896 374.558 408.388 375.268 408.864 375.987C410.161 377.908 411.91 380.945 413.971 384.756C414.822 386.326 415.72 388.028 416.665 389.832C417.235 390.917 422.155 406.269 426.942 421.949C431.416 436.63 435.773 451.599 436.343 455.441C436.445 456.152 436.554 456.87 436.656 457.581C437.304 462.024 437.944 466.499 438.561 470.864C439.475 477.337 440.365 483.584 441.216 489.167C441.224 489.222 441.232 489.269 441.24 489.324Z" fill="#3F3D56"/>
<path opacity="0.2" d="M405.068 432.799L398.432 407.192L392.573 429.288L405.068 432.799Z" fill="black"/>
<path d="M180.361 432.502C180.705 433.503 181.357 434.37 182.225 434.978C183.092 435.586 184.13 435.903 185.189 435.884L205.876 435.351C206.943 435.331 207.974 434.965 208.816 434.31C209.658 433.654 210.265 432.744 210.546 431.715L213.474 400.411C214.512 400.882 215.643 401.114 216.783 401.091C218.783 401.041 220.682 400.198 222.061 398.749C223.44 397.299 224.186 395.36 224.136 393.36C224.086 391.36 223.243 389.461 221.793 388.083C220.343 386.704 218.405 385.957 216.404 386.007C215.949 386.006 215.494 386.053 215.049 386.148C214.564 385.624 213.975 385.207 213.32 384.924C212.664 384.642 211.957 384.499 211.243 384.506L179.421 385.328C179.157 385.338 178.895 385.37 178.636 385.425C177.939 385.556 177.277 385.834 176.695 386.241C176.114 386.648 175.627 387.175 175.266 387.787C174.906 388.398 174.68 389.08 174.605 389.786C174.53 390.492 174.607 391.206 174.831 391.879L180.361 432.502ZM214.074 398.286L216.157 390.826C216.394 389.965 216.4 389.056 216.173 388.191C216.274 388.191 216.363 388.143 216.464 388.143C217.893 388.113 219.275 388.651 220.307 389.639C221.339 390.627 221.937 391.983 221.971 393.412C222.004 394.84 221.47 396.223 220.485 397.258C219.5 398.293 218.145 398.895 216.717 398.932C215.794 398.961 214.88 398.738 214.074 398.286Z" fill="#2F2E41"/>
<path d="M178.636 385.425C179.314 389.302 186.937 392.027 196.102 391.553C204.529 391.165 211.42 388.206 212.683 384.698C212.216 384.56 211.73 384.495 211.243 384.506L179.421 385.328C179.157 385.338 178.895 385.37 178.636 385.425Z" fill="#3F3D56"/>
<path d="M197.781 415.3C197.823 415.29 197.863 415.272 197.899 415.248L202.392 412.308C202.446 412.273 202.49 412.224 202.521 412.167C202.552 412.11 202.568 412.046 202.568 411.982C202.568 411.917 202.552 411.853 202.521 411.796C202.491 411.739 202.446 411.69 202.392 411.655L197.722 408.597C197.679 408.568 197.631 408.549 197.581 408.539C197.53 408.529 197.479 408.529 197.428 408.54C197.378 408.55 197.33 408.57 197.288 408.599C197.245 408.628 197.209 408.665 197.181 408.708C197.152 408.751 197.133 408.799 197.123 408.85C197.114 408.9 197.114 408.952 197.125 409.002C197.136 409.053 197.156 409.1 197.185 409.143C197.214 409.185 197.251 409.221 197.294 409.249L201.465 411.981L197.472 414.595C197.394 414.646 197.337 414.722 197.311 414.811C197.285 414.899 197.291 414.994 197.328 415.079C197.365 415.163 197.431 415.232 197.514 415.273C197.597 415.313 197.692 415.323 197.781 415.3H197.781Z" fill="#00A0D2"/>
<path d="M190.686 415.628C190.761 415.608 190.829 415.567 190.881 415.509C190.933 415.451 190.966 415.379 190.977 415.302C190.987 415.225 190.974 415.147 190.94 415.077C190.906 415.007 190.851 414.949 190.784 414.91L186.643 412.536L190.645 409.563C190.687 409.533 190.721 409.494 190.748 409.45C190.774 409.406 190.791 409.358 190.799 409.307C190.806 409.256 190.804 409.205 190.791 409.155C190.779 409.105 190.756 409.058 190.726 409.017C190.695 408.976 190.657 408.942 190.613 408.915C190.569 408.889 190.52 408.872 190.47 408.864C190.419 408.857 190.367 408.859 190.318 408.872C190.268 408.884 190.221 408.906 190.18 408.937L185.699 412.266C185.647 412.304 185.605 412.355 185.578 412.414C185.55 412.473 185.538 412.537 185.542 412.602C185.546 412.667 185.565 412.729 185.6 412.784C185.634 412.839 185.681 412.885 185.737 412.917L190.395 415.588C190.483 415.638 190.587 415.652 190.686 415.628Z" fill="#00A0D2"/>
<path d="M197.334 417.877C197.372 417.868 197.408 417.853 197.441 417.832C197.485 417.805 197.523 417.77 197.554 417.729C197.584 417.688 197.606 417.641 197.618 417.591C197.63 417.541 197.632 417.489 197.624 417.439C197.617 417.388 197.599 417.339 197.572 417.295L191.204 406.825C191.15 406.737 191.063 406.674 190.962 406.65C190.862 406.626 190.756 406.643 190.668 406.696C190.58 406.75 190.516 406.837 190.492 406.937C190.467 407.037 190.483 407.143 190.536 407.232L196.905 417.702C196.948 417.773 197.014 417.829 197.091 417.86C197.168 417.892 197.253 417.898 197.334 417.877Z" fill="#00A0D2"/>
<path d="M781.108 490.173C780.632 490.415 780.148 490.657 779.671 490.892C767.333 497.061 757.463 500.567 743.962 504.409C742.821 491.68 741.72 469.308 740.651 455.44C740.369 451.84 740.088 448.818 739.815 446.686C739.746 445.552 739.515 444.435 739.128 443.367L739.175 446.686L739.292 455.44L739.971 505.502C723.176 509.946 705.924 512.432 688.558 512.912C687.652 512.936 686.762 512.951 685.903 512.967C685.598 512.975 685.302 512.983 685.005 512.983C684.029 512.991 683.061 512.998 682.084 512.998C663.784 513.012 645.549 510.801 627.782 506.415C628.165 493.82 628.547 471.698 628.914 455.44C628.992 452.261 629.063 449.302 629.141 446.686C629.289 441.095 629.445 437.065 629.594 435.715C629.462 435.954 629.36 436.208 629.289 436.472C628.566 439.839 628.073 443.252 627.813 446.686C627.54 449.302 627.267 452.261 626.993 455.44C625.541 472.33 624.026 495.296 622.464 505.033C613.168 502.496 604.047 499.358 595.157 495.639C590.472 493.687 585.87 491.581 581.351 489.322C582.21 483.7 583.108 477.398 584.029 470.862C584.748 465.794 585.489 460.586 586.247 455.44C587.418 447.49 627.212 361.648 636.59 358.642L636.825 358.579L636.989 358.649L652.958 353.745L655.292 353.027L656.862 352.543L662.391 348.334L665.397 346.046L668.216 343.899L673.729 339.705L707.861 341.806L714.507 357.806L729.39 363.249L729.648 363.132L729.874 363.038L730.109 363.1C739.484 366.106 747.551 372.225 752.973 380.444C753.707 381.545 754.597 382.997 755.604 384.754C756.463 386.246 757.4 387.948 758.416 389.83C759.86 392.508 761.438 395.53 763.109 398.802C763.476 399.521 763.851 400.255 764.225 400.997C764.92 402.371 765.626 403.774 766.341 405.205C768.005 408.524 769.723 411.991 771.441 415.513C772.932 418.566 774.439 424.845 775.923 432.833C777.149 439.471 778.367 447.295 779.546 455.44C781.092 465.997 779.445 478.639 780.842 488.354C780.928 488.971 781.022 489.572 781.108 490.173Z" fill="#3F3D56"/>
<path d="M681.003 333.962C702.927 333.962 720.7 316.188 720.7 294.264C720.7 272.34 702.927 254.567 681.003 254.567C659.079 254.567 641.306 272.34 641.306 294.264C641.306 316.188 659.079 333.962 681.003 333.962Z" fill="#FFB8B8"/>
<path opacity="0.2" d="M617.521 432.799L624.156 407.192L630.015 429.288L617.521 432.799Z" fill="black"/>
<path d="M794.086 416.114C791.712 448.818 794.172 463.217 781.069 490.181C769.147 496.016 756.729 500.778 743.962 504.409C742.634 504.783 741.304 505.148 739.971 505.502C723.176 509.945 705.924 512.432 688.558 512.912C687.652 512.936 686.762 512.951 685.903 512.967C685.598 512.975 685.302 512.983 685.005 512.983C684.029 512.99 683.061 512.998 682.085 512.998C663.784 513.012 645.549 510.801 627.782 506.415C626.002 505.978 624.229 505.517 622.464 505.033C613.168 502.495 604.047 499.358 595.157 495.639C590.472 493.687 585.87 491.581 581.351 489.322C580.328 488.807 579.305 488.291 578.298 487.76C573.12 478.655 570.176 467.582 570.114 454.276C573.698 431.349 786.168 396.343 794.086 416.114Z" fill="#2F2E41"/>
<path opacity="0.2" d="M794.08 421.715C794.201 419.69 794.337 417.599 794.495 415.421C786.577 395.649 574.107 430.656 570.523 453.583C570.533 455.685 570.622 457.725 570.774 459.716C579.454 437.088 781.303 403.816 794.08 421.715Z" fill="black"/>
<path d="M564.83 417.657L582.27 408.937L567.737 369.697L563.906 349.908C563.409 347.337 562.245 344.942 560.532 342.961C558.818 340.981 556.615 339.485 554.143 338.623C551.67 337.76 549.014 337.562 546.441 338.048C543.868 338.534 541.467 339.686 539.479 341.391C536.532 343.916 534.683 347.487 534.319 351.351C533.956 355.214 535.108 359.068 537.532 362.098L551.75 379.87L564.83 417.657Z" fill="#FFB6B6"/>
<path d="M582.27 401.67L559.017 413.297L576.663 468.59C577.931 472.561 580.202 476.137 583.258 478.971C586.314 481.805 590.05 483.802 594.105 484.767C599.104 485.958 604.353 485.525 609.09 483.531C613.827 481.538 617.806 478.088 620.45 473.681L667.244 393.474C670.56 387.947 671.584 381.342 670.096 375.071C668.609 368.8 664.728 363.359 659.282 359.91C656.354 358.055 653.068 356.838 649.637 356.337C646.207 355.837 642.71 356.064 639.374 357.004C636.037 357.944 632.936 359.577 630.272 361.795C627.608 364.013 625.441 366.767 623.912 369.878L595.35 430.737L582.27 401.67Z" fill="#3F3D56"/>
<path d="M331.6 331.222C355.723 331.222 375.279 311.667 375.279 287.544C375.279 263.421 355.723 243.865 331.6 243.865C307.477 243.865 287.922 263.421 287.922 287.544C287.922 311.667 307.477 331.222 331.6 331.222Z" fill="#FFB8B8"/>
<path d="M288.446 257.444C291.998 252.657 297.102 249.254 301.007 244.751C303.149 242.28 304.928 239.48 307.336 237.268C311.811 233.158 318.069 231.474 324.141 231.265C330.796 231.094 337.397 232.492 343.411 235.346C349.425 238.2 354.683 242.43 358.758 247.693C361.932 245.832 365.106 243.972 368.28 242.111C369.534 245.411 370.788 248.711 372.042 252.012C373.071 251.117 374.384 250.616 375.747 250.597C377.11 250.578 378.436 251.042 379.49 251.907C380.544 252.773 381.257 253.983 381.504 255.324C381.751 256.665 381.515 258.05 380.837 259.233C381.593 256.899 385.054 256.404 386.962 257.946C388.87 259.488 389.38 262.232 389.069 264.665C388.679 267.335 387.498 269.826 385.68 271.82C383.862 273.813 381.49 275.217 378.867 275.852C374.725 276.775 369.905 275.805 366.59 278.454C363.932 280.578 363.13 284.445 360.417 286.498C357.075 289.029 352.351 287.858 348.197 288.417C340.928 289.396 335.173 296.83 336.047 304.112C335.389 301.814 334.698 299.45 333.205 297.583C331.713 295.717 329.199 294.455 326.909 295.141C323.125 296.275 322.506 301.433 323.424 305.275C325.856 315.466 335.074 331.938 335.074 331.938C323.105 336.659 308.845 332.195 299.61 323.236C290.375 314.276 285.565 301.59 283.47 288.896C281.693 278.13 281.945 266.207 288.446 257.444Z" fill="#2F2E41"/>
<path d="M730.751 316.148C739.061 297.096 734.353 279.564 724.223 270.263V270.255C720.241 261.33 714.946 254.443 708.887 252.826C705.958 250.944 703.116 248.734 699.961 247.61C698.492 247.06 696.926 246.813 695.358 246.884C693.791 246.955 692.254 247.343 690.84 248.024L689.232 247.594C687.865 244.104 686.264 244.033 684.484 246.329C677.628 243.135 671.451 241.706 665.954 241.706C648.025 241.706 637.42 256.887 634.609 275.237L649.594 279.228L654.803 270.927L652.398 279.977L660.667 282.172C673.255 298.562 658.192 336.373 639.099 357.41C643.644 356.152 648.17 355.09 652.679 354.224L669.062 330.204L658.91 352.068C664.181 351.295 670.905 352.037 678.253 353.529C680.728 350.296 682.032 345.985 680.751 342.143C682.845 346.195 684.289 350.551 685.031 355.051C700.539 358.839 721.693 360.783 733.094 362.22C742.305 359.213 742.33 325.253 730.751 316.148Z" fill="#2F2E41"/>
<path d="M736.158 251.341C742.244 264.97 729.963 270.832 718.712 270.667C708.545 270.517 699.905 263.375 699.386 253.221C699.137 248.344 700.835 243.569 704.107 239.945C707.378 236.32 711.956 234.144 716.832 233.895C726.986 233.376 732.011 242.057 736.158 251.341Z" fill="#2F2E41"/>
<path d="M453.788 473.204L443.762 456.481L477.099 431.189L490.96 416.555C492.76 414.654 495.028 413.258 497.537 412.508C500.046 411.758 502.708 411.68 505.257 412.281C507.806 412.882 510.152 414.141 512.062 415.933C513.971 417.725 515.377 419.987 516.139 422.493C517.268 426.205 516.91 430.211 515.141 433.665C513.371 437.119 510.33 439.751 506.657 441.005L485.119 448.358L453.788 473.204Z" fill="#A0616A"/>
<path d="M461.035 472.652L445.425 485.661L441.216 489.167L440.724 489.574C439.639 490.112 438.546 490.643 437.444 491.167C434.149 492.736 430.812 494.228 427.434 495.641C418.544 499.359 409.422 502.497 400.126 505.035C398.361 505.519 396.589 505.98 394.808 506.417C393.723 506.683 392.63 506.948 391.536 507.198C390.849 507.362 390.154 507.518 389.459 507.667C388.616 507.854 387.773 508.041 386.929 508.213C386.047 508.401 385.164 508.58 384.282 508.752C381.908 506.493 380.017 503.774 378.726 500.762C377.435 497.75 376.769 494.506 376.77 491.229C376.77 491.018 376.77 490.799 376.778 490.581L379.284 426.291L380.393 397.797C380.564 391.353 383.248 385.231 387.872 380.74C392.496 376.249 398.693 373.744 405.139 373.761C405.889 373.761 406.631 373.8 407.365 373.87C407.896 374.558 408.388 375.268 408.864 375.987C410.161 377.908 411.91 380.945 413.971 384.756C414.822 386.325 415.72 388.028 416.665 389.832C417.235 390.917 422.155 406.269 426.942 421.949L424.833 438.324L421.023 467.842L436.656 457.581L447.666 450.35L448.97 452.529L452.367 458.198L458.927 469.13L461.035 472.652Z" fill="#3F3D56"/>
<path d="M452.476 454.278C452.469 455.605 452.437 456.909 452.367 458.198C452.204 461.752 451.792 465.29 451.133 468.787C450.056 474.658 448.133 480.342 445.425 485.661C445.066 486.372 444.683 487.075 444.293 487.762C443.285 488.293 442.263 488.808 441.24 489.324C441.068 489.41 440.896 489.496 440.724 489.574C436.375 491.737 431.944 493.759 427.434 495.641C418.544 499.359 409.422 502.497 400.126 505.035C398.361 505.519 396.589 505.98 394.808 506.417C391.333 507.276 387.825 508.055 384.282 508.752C369.862 511.585 355.201 513.007 340.506 513C339.53 513 338.562 512.992 337.585 512.984C337.289 512.984 336.992 512.977 336.687 512.969C335.828 512.953 334.938 512.938 334.032 512.914C316.666 512.434 299.414 509.947 282.619 505.504C281.284 505.152 279.954 504.788 278.629 504.41C265.862 500.779 253.443 496.018 241.521 490.183C228.418 463.219 230.878 448.819 228.504 416.116C233.377 403.942 315.814 412.54 379.284 426.291C396.511 430.024 412.331 434.139 424.833 438.324C437.749 442.643 447.112 447.031 450.782 451.154C451.64 452.008 452.229 453.094 452.476 454.278Z" fill="#2F2E41"/>
<path opacity="0.2" d="M228.509 421.715C228.388 419.69 228.252 417.599 228.094 415.421C236.012 395.649 448.482 430.656 452.066 453.583C452.056 455.685 451.966 457.725 451.815 459.716C443.135 437.088 241.286 403.816 228.509 421.715Z" fill="black"/>
</g>
<defs>
<linearGradient id="paint0_linear_6_192" x1="0" y1="0" x2="800" y2="800" gradientUnits="userSpaceOnUse">
<stop stop-color="#E5F9FF"/>
<stop offset="1" stop-color="#F0FBFF"/>
</linearGradient>
<clipPath id="clip0_6_192">
<rect width="687.3" height="450" fill="white" transform="translate(168 63)"/>
</clipPath>
</defs>
</svg>
