<svg width="1024" height="576" viewBox="0 0 1024 576" fill="none" xmlns="http://www.w3.org/2000/svg">
<rect width="1024" height="576" fill="url(#paint0_linear_6_376)"/>
<g clip-path="url(#clip0_6_376)">
<path d="M563.405 142.33C575.001 142.33 584.401 132.929 584.401 121.333C584.401 109.737 575.001 100.337 563.405 100.337C551.809 100.337 542.409 109.737 542.409 121.333C542.409 132.929 551.809 142.33 563.405 142.33Z" fill="#F2F2F2"/>
<path d="M726.281 453.94C757.489 430.169 772.396 390.225 763.064 352.12C762.832 351.173 762.587 350.229 762.329 349.286C756.143 326.668 740.837 305.171 718.529 297.944C699.798 291.876 679.353 296.542 659.812 294.129C621.453 289.392 591.713 258.354 570.788 225.858C549.862 193.361 533.78 156.986 505.975 130.139C460.142 85.8863 385.377 76.3587 328.551 105.164C271.725 133.969 235.528 197.876 237.071 261.567C238.615 325.258 276.426 386.151 331.336 418.459C351.508 430.327 374.839 438.735 398.057 435.793C418.204 433.24 436.51 422.415 456.561 419.201C488.087 414.148 519.413 428.402 546.68 445.013C573.948 461.623 600.286 481.311 631.272 489.011C661.36 496.488 698.635 474.997 726.281 453.94Z" fill="#F2F2F2"/>
<path d="M681.441 106.501C680.757 106.045 680.065 105.613 679.381 105.172C659.605 92.5244 638.408 82.2493 616.228 74.5594L611.086 145.505H578.483V64.2031C576.431 63.7785 574.363 63.3774 572.295 63V145.505H533.551C512.222 145.505 491.766 137.032 476.684 121.95C461.603 106.868 453.13 86.4128 453.13 65.0839V65.0838C451.054 65.5321 448.994 66.0117 446.933 66.5229V145.505H415.377L410.478 77.8543C387.685 86.5957 366.046 98.0911 346.043 112.085C345.697 112.32 345.351 112.564 345.013 112.8C343.275 114.019 341.561 115.261 339.855 116.52V387.176H432.857L431.214 364.411L422.171 239.42H604.284L595.241 364.411L593.597 387.176H685.57V109.238C684.201 108.31 682.825 107.398 681.441 106.501ZM446.933 218.778H420.677L415.825 151.701H446.933V218.778ZM572.295 218.778H528.196V217.449C528.196 216.81 528.07 216.177 527.825 215.587C527.58 214.997 527.222 214.461 526.77 214.01C526.317 213.558 525.781 213.2 525.19 212.957C524.6 212.713 523.967 212.588 523.328 212.589H504.157C503.518 212.589 502.886 212.714 502.297 212.958C501.707 213.203 501.171 213.561 500.72 214.012C500.268 214.463 499.91 214.999 499.666 215.589C499.422 216.178 499.297 216.81 499.297 217.449V218.778H453.13V151.701H572.295V218.778ZM578.483 218.778V151.701H610.637L605.786 218.778H578.483Z" fill="#3F3D56"/>
<path d="M203 404.508C209.831 412.603 217.22 420.21 225.112 427.274L799.61 428.06C807.503 420.996 814.892 413.389 821.723 405.295L203 404.508Z" fill="#3F3D56"/>
<path d="M592.586 331.613V399.008C592.586 399.866 592.928 400.69 593.535 401.297C594.142 401.904 594.966 402.246 595.825 402.247H695.696C696.555 402.246 697.378 401.904 697.985 401.297C698.593 400.69 698.934 399.866 698.935 399.008V331.613C698.933 330.755 698.591 329.933 697.984 329.327C697.377 328.72 696.554 328.379 695.696 328.378H595.825C594.967 328.379 594.144 328.72 593.537 329.327C592.93 329.933 592.588 330.755 592.586 331.613Z" fill="#3F3D56"/>
<path d="M594.929 332.452V398.176C594.93 398.635 595.112 399.075 595.437 399.399C595.761 399.724 596.201 399.906 596.66 399.907H694.865C695.324 399.906 695.763 399.724 696.088 399.399C696.412 399.075 696.595 398.635 696.596 398.176V332.452C696.596 331.992 696.413 331.552 696.089 331.227C695.764 330.901 695.324 330.718 694.865 330.717H596.66C596.2 330.718 595.76 330.901 595.436 331.227C595.111 331.552 594.929 331.992 594.929 332.452Z" fill="#00A0D2"/>
<path d="M590.497 412.151C590.68 412.381 590.913 412.565 591.177 412.692C591.442 412.819 591.732 412.884 592.025 412.882H698.964C699.256 412.882 699.545 412.816 699.809 412.69C700.073 412.564 700.305 412.381 700.49 412.154C700.674 411.927 700.805 411.662 700.874 411.377C700.943 411.093 700.947 410.797 700.887 410.511L699.227 402.626C699.159 402.304 699.01 402.005 698.796 401.755C698.582 401.506 698.309 401.314 698.002 401.196C697.78 401.109 697.543 401.064 697.304 401.065H593.679C593.44 401.064 593.203 401.109 592.981 401.196C592.673 401.314 592.4 401.506 592.186 401.755C591.972 402.005 591.824 402.304 591.755 402.626L590.095 410.511C590.036 410.797 590.042 411.093 590.111 411.376C590.181 411.66 590.313 411.925 590.497 412.151Z" fill="#2F2E41"/>
<path d="M693.634 404.461H696.16C696.372 404.461 696.544 404.289 696.544 404.077V402.869C696.544 402.657 696.372 402.485 696.16 402.485H693.634C693.422 402.485 693.251 402.657 693.251 402.869V404.077C693.251 404.289 693.422 404.461 693.634 404.461Z" fill="#3F3D56"/>
<path d="M687.047 404.461H689.573C689.785 404.461 689.957 404.289 689.957 404.077V402.869C689.957 402.657 689.785 402.485 689.573 402.485H687.047C686.835 402.485 686.663 402.657 686.663 402.869V404.077C686.663 404.289 686.835 404.461 687.047 404.461Z" fill="#3F3D56"/>
<path d="M680.46 404.461H682.986C683.198 404.461 683.37 404.289 683.37 404.077V402.869C683.37 402.657 683.198 402.485 682.986 402.485H680.46C680.248 402.485 680.076 402.657 680.076 402.869V404.077C680.076 404.289 680.248 404.461 680.46 404.461Z" fill="#3F3D56"/>
<path d="M673.872 404.461H676.398C676.61 404.461 676.782 404.289 676.782 404.077V402.869C676.782 402.657 676.61 402.485 676.398 402.485H673.872C673.66 402.485 673.489 402.657 673.489 402.869V404.077C673.489 404.289 673.66 404.461 673.872 404.461Z" fill="#3F3D56"/>
<path d="M667.285 404.461H669.811C670.023 404.461 670.195 404.289 670.195 404.077V402.869C670.195 402.657 670.023 402.485 669.811 402.485H667.285C667.073 402.485 666.901 402.657 666.901 402.869V404.077C666.901 404.289 667.073 404.461 667.285 404.461Z" fill="#3F3D56"/>
<path d="M660.698 404.461H663.224C663.436 404.461 663.608 404.289 663.608 404.077V402.869C663.608 402.657 663.436 402.485 663.224 402.485H660.698C660.486 402.485 660.314 402.657 660.314 402.869V404.077C660.314 404.289 660.486 404.461 660.698 404.461Z" fill="#3F3D56"/>
<path d="M654.11 404.461H656.636C656.848 404.461 657.02 404.289 657.02 404.077V402.869C657.02 402.657 656.848 402.485 656.636 402.485H654.11C653.898 402.485 653.727 402.657 653.727 402.869V404.077C653.727 404.289 653.898 404.461 654.11 404.461Z" fill="#3F3D56"/>
<path d="M647.523 404.461H650.049C650.261 404.461 650.433 404.289 650.433 404.077V402.869C650.433 402.657 650.261 402.485 650.049 402.485H647.523C647.311 402.485 647.139 402.657 647.139 402.869V404.077C647.139 404.289 647.311 404.461 647.523 404.461Z" fill="#3F3D56"/>
<path d="M640.936 404.461H643.462C643.674 404.461 643.846 404.289 643.846 404.077V402.869C643.846 402.657 643.674 402.485 643.462 402.485H640.936C640.724 402.485 640.552 402.657 640.552 402.869V404.077C640.552 404.289 640.724 404.461 640.936 404.461Z" fill="#3F3D56"/>
<path d="M634.349 404.461H636.874C637.086 404.461 637.258 404.289 637.258 404.077V402.869C637.258 402.657 637.086 402.485 636.874 402.485H634.349C634.136 402.485 633.965 402.657 633.965 402.869V404.077C633.965 404.289 634.136 404.461 634.349 404.461Z" fill="#3F3D56"/>
<path d="M627.761 404.461H630.287C630.499 404.461 630.671 404.289 630.671 404.077V402.869C630.671 402.657 630.499 402.485 630.287 402.485H627.761C627.549 402.485 627.378 402.657 627.378 402.869V404.077C627.378 404.289 627.549 404.461 627.761 404.461Z" fill="#3F3D56"/>
<path d="M621.174 404.461H623.7C623.912 404.461 624.084 404.289 624.084 404.077V402.869C624.084 402.657 623.912 402.485 623.7 402.485H621.174C620.962 402.485 620.79 402.657 620.79 402.869V404.077C620.79 404.289 620.962 404.461 621.174 404.461Z" fill="#3F3D56"/>
<path d="M614.587 404.461H617.113C617.325 404.461 617.497 404.289 617.497 404.077V402.869C617.497 402.657 617.325 402.485 617.113 402.485H614.587C614.375 402.485 614.203 402.657 614.203 402.869V404.077C614.203 404.289 614.375 404.461 614.587 404.461Z" fill="#3F3D56"/>
<path d="M607.999 404.461H610.525C610.737 404.461 610.909 404.289 610.909 404.077V402.869C610.909 402.657 610.737 402.485 610.525 402.485H607.999C607.787 402.485 607.615 402.657 607.615 402.869V404.077C607.615 404.289 607.787 404.461 607.999 404.461Z" fill="#3F3D56"/>
<path d="M601.412 404.461H603.938C604.15 404.461 604.322 404.289 604.322 404.077V402.869C604.322 402.657 604.15 402.485 603.938 402.485H601.412C601.2 402.485 601.028 402.657 601.028 402.869V404.077C601.028 404.289 601.2 404.461 601.412 404.461Z" fill="#3F3D56"/>
<path d="M594.825 404.461H597.351C597.563 404.461 597.734 404.289 597.734 404.077V402.869C597.734 402.657 597.563 402.485 597.351 402.485H594.825C594.613 402.485 594.441 402.657 594.441 402.869V404.077C594.441 404.289 594.613 404.461 594.825 404.461Z" fill="#3F3D56"/>
<path d="M693.712 407.755H696.238C696.45 407.755 696.622 407.583 696.622 407.371V406.162C696.622 405.95 696.45 405.778 696.238 405.778H693.712C693.5 405.778 693.328 405.95 693.328 406.162V407.371C693.328 407.583 693.5 407.755 693.712 407.755Z" fill="#3F3D56"/>
<path d="M687.125 407.755H689.651C689.863 407.755 690.035 407.583 690.035 407.371V406.162C690.035 405.95 689.863 405.778 689.651 405.778H687.125C686.913 405.778 686.741 405.95 686.741 406.162V407.371C686.741 407.583 686.913 407.755 687.125 407.755Z" fill="#3F3D56"/>
<path d="M680.538 407.755H683.064C683.276 407.755 683.448 407.583 683.448 407.371V406.162C683.448 405.95 683.276 405.778 683.064 405.778H680.538C680.326 405.778 680.154 405.95 680.154 406.162V407.371C680.154 407.583 680.326 407.755 680.538 407.755Z" fill="#3F3D56"/>
<path d="M673.95 407.755H676.476C676.688 407.755 676.86 407.583 676.86 407.371V406.162C676.86 405.95 676.688 405.778 676.476 405.778H673.95C673.738 405.778 673.566 405.95 673.566 406.162V407.371C673.566 407.583 673.738 407.755 673.95 407.755Z" fill="#3F3D56"/>
<path d="M667.363 407.755H669.889C670.101 407.755 670.273 407.583 670.273 407.371V406.162C670.273 405.95 670.101 405.778 669.889 405.778H667.363C667.151 405.778 666.979 405.95 666.979 406.162V407.371C666.979 407.583 667.151 407.755 667.363 407.755Z" fill="#3F3D56"/>
<path d="M660.776 407.755H663.302C663.514 407.755 663.686 407.583 663.686 407.371V406.162C663.686 405.95 663.514 405.778 663.302 405.778H660.776C660.564 405.778 660.392 405.95 660.392 406.162V407.371C660.392 407.583 660.564 407.755 660.776 407.755Z" fill="#3F3D56"/>
<path d="M654.188 407.755H656.714C656.926 407.755 657.098 407.583 657.098 407.371V406.162C657.098 405.95 656.926 405.778 656.714 405.778H654.188C653.976 405.778 653.804 405.95 653.804 406.162V407.371C653.804 407.583 653.976 407.755 654.188 407.755Z" fill="#3F3D56"/>
<path d="M647.601 407.755H650.127C650.339 407.755 650.511 407.583 650.511 407.371V406.162C650.511 405.95 650.339 405.778 650.127 405.778H647.601C647.389 405.778 647.217 405.95 647.217 406.162V407.371C647.217 407.583 647.389 407.755 647.601 407.755Z" fill="#3F3D56"/>
<path d="M641.014 407.755H643.54C643.752 407.755 643.924 407.583 643.924 407.371V406.162C643.924 405.95 643.752 405.778 643.54 405.778H641.014C640.802 405.778 640.63 405.95 640.63 406.162V407.371C640.63 407.583 640.802 407.755 641.014 407.755Z" fill="#3F3D56"/>
<path d="M634.426 407.755H636.952C637.164 407.755 637.336 407.583 637.336 407.371V406.162C637.336 405.95 637.164 405.778 636.952 405.778H634.426C634.214 405.778 634.043 405.95 634.043 406.162V407.371C634.043 407.583 634.214 407.755 634.426 407.755Z" fill="#3F3D56"/>
<path d="M627.839 407.755H630.365C630.577 407.755 630.749 407.583 630.749 407.371V406.162C630.749 405.95 630.577 405.778 630.365 405.778H627.839C627.627 405.778 627.455 405.95 627.455 406.162V407.371C627.455 407.583 627.627 407.755 627.839 407.755Z" fill="#3F3D56"/>
<path d="M621.252 407.755H623.778C623.99 407.755 624.162 407.583 624.162 407.371V406.162C624.162 405.95 623.99 405.778 623.778 405.778H621.252C621.04 405.778 620.868 405.95 620.868 406.162V407.371C620.868 407.583 621.04 407.755 621.252 407.755Z" fill="#3F3D56"/>
<path d="M614.664 407.755H617.19C617.402 407.755 617.574 407.583 617.574 407.371V406.162C617.574 405.95 617.402 405.778 617.19 405.778H614.664C614.452 405.778 614.281 405.95 614.281 406.162V407.371C614.281 407.583 614.452 407.755 614.664 407.755Z" fill="#3F3D56"/>
<path d="M608.077 407.755H610.603C610.815 407.755 610.987 407.583 610.987 407.371V406.162C610.987 405.95 610.815 405.778 610.603 405.778H608.077C607.865 405.778 607.693 405.95 607.693 406.162V407.371C607.693 407.583 607.865 407.755 608.077 407.755Z" fill="#3F3D56"/>
<path d="M601.49 407.755H604.016C604.228 407.755 604.4 407.583 604.4 407.371V406.162C604.4 405.95 604.228 405.778 604.016 405.778H601.49C601.278 405.778 601.106 405.95 601.106 406.162V407.371C601.106 407.583 601.278 407.755 601.49 407.755Z" fill="#3F3D56"/>
<path d="M594.903 407.755H597.429C597.641 407.755 597.812 407.583 597.812 407.371V406.162C597.812 405.95 597.641 405.778 597.429 405.778H594.903C594.691 405.778 594.519 405.95 594.519 406.162V407.371C594.519 407.583 594.691 407.755 594.903 407.755Z" fill="#3F3D56"/>
<path d="M639.038 411.707H664.619C664.831 411.707 665.003 411.535 665.003 411.323V410.115C665.003 409.903 664.831 409.731 664.619 409.731H639.038C638.826 409.731 638.654 409.903 638.654 410.115V411.323C638.654 411.535 638.826 411.707 639.038 411.707Z" fill="#3F3D56"/>
<path d="M611.935 345.096H609.699C609.021 345.096 608.471 345.646 608.471 346.324C608.471 347.002 609.021 347.551 609.699 347.551H611.935C612.613 347.551 613.163 347.002 613.163 346.324C613.163 345.646 612.613 345.096 611.935 345.096Z" fill="white"/>
<path d="M637.51 345.096H635.273C634.596 345.096 634.046 345.646 634.046 346.324C634.046 347.002 634.596 347.551 635.273 347.551H637.51C638.188 347.551 638.737 347.002 638.737 346.324C638.737 345.646 638.188 345.096 637.51 345.096Z" fill="white"/>
<path d="M644.756 345.096H642.52C641.842 345.096 641.292 345.646 641.292 346.324C641.292 347.002 641.842 347.551 642.52 347.551H644.756C645.434 347.551 645.983 347.002 645.983 346.324C645.983 345.646 645.434 345.096 644.756 345.096Z" fill="white"/>
<path d="M630.553 344.891H616.655C615.977 344.891 615.427 345.441 615.427 346.119C615.427 346.797 615.977 347.347 616.655 347.347H630.553C631.231 347.347 631.781 346.797 631.781 346.119C631.781 345.441 631.231 344.891 630.553 344.891Z" fill="white"/>
<path d="M664.653 344.891H650.755C650.077 344.891 649.527 345.441 649.527 346.119C649.527 346.797 650.077 347.347 650.755 347.347H664.653C665.331 347.347 665.88 346.797 665.88 346.119C665.88 345.441 665.331 344.891 664.653 344.891Z" fill="white"/>
<path d="M618.755 350.637H616.519C615.841 350.637 615.291 351.187 615.291 351.865C615.291 352.543 615.841 353.092 616.519 353.092H618.755C619.433 353.092 619.982 352.543 619.982 351.865C619.982 351.187 619.433 350.637 618.755 350.637Z" fill="white"/>
<path d="M644.329 350.637H642.093C641.415 350.637 640.866 351.187 640.866 351.865C640.866 352.543 641.415 353.092 642.093 353.092H644.329C645.007 353.092 645.557 352.543 645.557 351.865C645.557 351.187 645.007 350.637 644.329 350.637Z" fill="white"/>
<path d="M651.576 350.637H649.34C648.662 350.637 648.112 351.187 648.112 351.865C648.112 352.543 648.662 353.092 649.34 353.092H651.576C652.254 353.092 652.803 352.543 652.803 351.865C652.803 351.187 652.254 350.637 651.576 350.637Z" fill="white"/>
<path d="M637.373 350.433H623.475C622.797 350.433 622.248 350.982 622.248 351.66C622.248 352.338 622.797 352.888 623.475 352.888H637.373C638.051 352.888 638.601 352.338 638.601 351.66C638.601 350.982 638.051 350.433 637.373 350.433Z" fill="white"/>
<path d="M671.473 350.433H657.575C656.897 350.433 656.347 350.982 656.347 351.66C656.347 352.338 656.897 352.888 657.575 352.888H671.473C672.151 352.888 672.7 352.338 672.7 351.66C672.7 350.982 672.151 350.433 671.473 350.433Z" fill="white"/>
<path d="M625.575 356.178H623.338C622.66 356.178 622.111 356.728 622.111 357.406C622.111 358.084 622.66 358.634 623.338 358.634H625.575C626.253 358.634 626.802 358.084 626.802 357.406C626.802 356.728 626.253 356.178 625.575 356.178Z" fill="white"/>
<path d="M651.149 356.178H648.913C648.235 356.178 647.686 356.728 647.686 357.406C647.686 358.084 648.235 358.634 648.913 358.634H651.149C651.827 358.634 652.377 358.084 652.377 357.406C652.377 356.728 651.827 356.178 651.149 356.178Z" fill="white"/>
<path d="M658.396 356.178H656.159C655.481 356.178 654.932 356.728 654.932 357.406C654.932 358.084 655.481 358.634 656.159 358.634H658.396C659.074 358.634 659.623 358.084 659.623 357.406C659.623 356.728 659.074 356.178 658.396 356.178Z" fill="white"/>
<path d="M644.193 355.974H630.295C629.617 355.974 629.067 356.523 629.067 357.201C629.067 357.879 629.617 358.429 630.295 358.429H644.193C644.871 358.429 645.421 357.879 645.421 357.201C645.421 356.523 644.871 355.974 644.193 355.974Z" fill="white"/>
<path d="M678.293 355.974H664.395C663.717 355.974 663.167 356.523 663.167 357.201C663.167 357.879 663.717 358.429 664.395 358.429H678.293C678.971 358.429 679.52 357.879 679.52 357.201C679.52 356.523 678.971 355.974 678.293 355.974Z" fill="white"/>
<path d="M632.395 361.72H630.159C629.481 361.72 628.931 362.269 628.931 362.947C628.931 363.625 629.481 364.175 630.159 364.175H632.395C633.073 364.175 633.622 363.625 633.622 362.947C633.622 362.269 633.073 361.72 632.395 361.72Z" fill="white"/>
<path d="M657.969 361.72H655.733C655.055 361.72 654.506 362.269 654.506 362.947C654.506 363.625 655.055 364.175 655.733 364.175H657.969C658.647 364.175 659.197 363.625 659.197 362.947C659.197 362.269 658.647 361.72 657.969 361.72Z" fill="white"/>
<path d="M665.216 361.72H662.98C662.302 361.72 661.752 362.269 661.752 362.947C661.752 363.625 662.302 364.175 662.98 364.175H665.216C665.894 364.175 666.443 363.625 666.443 362.947C666.443 362.269 665.894 361.72 665.216 361.72Z" fill="white"/>
<path d="M651.013 361.515H637.115C636.437 361.515 635.887 362.065 635.887 362.743C635.887 363.421 636.437 363.97 637.115 363.97H651.013C651.691 363.97 652.24 363.421 652.24 362.743C652.24 362.065 651.691 361.515 651.013 361.515Z" fill="white"/>
<path d="M637.51 383.754H635.273C634.596 383.754 634.046 384.303 634.046 384.981C634.046 385.659 634.596 386.209 635.273 386.209H637.51C638.188 386.209 638.737 385.659 638.737 384.981C638.737 384.303 638.188 383.754 637.51 383.754Z" fill="white"/>
<path d="M644.756 383.754H642.52C641.842 383.754 641.292 384.303 641.292 384.981C641.292 385.659 641.842 386.209 642.52 386.209H644.756C645.434 386.209 645.983 385.659 645.983 384.981C645.983 384.303 645.434 383.754 644.756 383.754Z" fill="white"/>
<path d="M664.653 383.959H650.755C650.077 383.959 649.527 384.508 649.527 385.186C649.527 385.864 650.077 386.414 650.755 386.414H664.653C665.331 386.414 665.88 385.864 665.88 385.186C665.88 384.508 665.331 383.959 664.653 383.959Z" fill="white"/>
<path d="M611.935 383.754H609.699C609.021 383.754 608.471 384.303 608.471 384.981C608.471 385.659 609.021 386.209 609.699 386.209H611.935C612.613 386.209 613.163 385.659 613.163 384.981C613.163 384.303 612.613 383.754 611.935 383.754Z" fill="white"/>
<path d="M630.553 383.959H616.655C615.977 383.959 615.427 384.508 615.427 385.186C615.427 385.864 615.977 386.414 616.655 386.414H630.553C631.231 386.414 631.781 385.864 631.781 385.186C631.781 384.508 631.231 383.959 630.553 383.959Z" fill="white"/>
<path d="M618.755 378.213H616.519C615.841 378.213 615.291 378.762 615.291 379.44C615.291 380.118 615.841 380.668 616.519 380.668H618.755C619.433 380.668 619.982 380.118 619.982 379.44C619.982 378.762 619.433 378.213 618.755 378.213Z" fill="white"/>
<path d="M644.329 378.213H642.093C641.415 378.213 640.866 378.762 640.866 379.44C640.866 380.118 641.415 380.668 642.093 380.668H644.329C645.007 380.668 645.557 380.118 645.557 379.44C645.557 378.762 645.007 378.213 644.329 378.213Z" fill="white"/>
<path d="M651.576 378.213H649.34C648.662 378.213 648.112 378.762 648.112 379.44C648.112 380.118 648.662 380.668 649.34 380.668H651.576C652.254 380.668 652.803 380.118 652.803 379.44C652.803 378.762 652.254 378.213 651.576 378.213Z" fill="white"/>
<path d="M637.373 378.417H623.475C622.797 378.417 622.248 378.967 622.248 379.645C622.248 380.323 622.797 380.872 623.475 380.872H637.373C638.051 380.872 638.601 380.323 638.601 379.645C638.601 378.967 638.051 378.417 637.373 378.417Z" fill="white"/>
<path d="M625.575 372.671H623.338C622.66 372.671 622.111 373.221 622.111 373.899C622.111 374.577 622.66 375.127 623.338 375.127H625.575C626.253 375.127 626.802 374.577 626.802 373.899C626.802 373.221 626.253 372.671 625.575 372.671Z" fill="white"/>
<path d="M651.149 372.671H648.913C648.235 372.671 647.686 373.221 647.686 373.899C647.686 374.577 648.235 375.127 648.913 375.127H651.149C651.827 375.127 652.377 374.577 652.377 373.899C652.377 373.221 651.827 372.671 651.149 372.671Z" fill="white"/>
<path d="M658.396 372.671H656.159C655.481 372.671 654.932 373.221 654.932 373.899C654.932 374.577 655.481 375.127 656.159 375.127H658.396C659.074 375.127 659.623 374.577 659.623 373.899C659.623 373.221 659.074 372.671 658.396 372.671Z" fill="white"/>
<path d="M644.193 372.876H630.295C629.617 372.876 629.067 373.426 629.067 374.104C629.067 374.782 629.617 375.331 630.295 375.331H644.193C644.871 375.331 645.421 374.782 645.421 374.104C645.421 373.426 644.871 372.876 644.193 372.876Z" fill="white"/>
<path d="M632.395 367.13H630.159C629.481 367.13 628.931 367.68 628.931 368.358C628.931 369.036 629.481 369.585 630.159 369.585H632.395C633.073 369.585 633.622 369.036 633.622 368.358C633.622 367.68 633.073 367.13 632.395 367.13Z" fill="white"/>
<path d="M657.969 367.13H655.733C655.055 367.13 654.506 367.68 654.506 368.358C654.506 369.036 655.055 369.585 655.733 369.585H657.969C658.647 369.585 659.197 369.036 659.197 368.358C659.197 367.68 658.647 367.13 657.969 367.13Z" fill="white"/>
<path d="M665.216 367.13H662.98C662.302 367.13 661.752 367.68 661.752 368.358C661.752 369.036 662.302 369.585 662.98 369.585H665.216C665.894 369.585 666.443 369.036 666.443 368.358C666.443 367.68 665.894 367.13 665.216 367.13Z" fill="white"/>
<path d="M651.013 367.335H637.115C636.437 367.335 635.887 367.885 635.887 368.562C635.887 369.24 636.437 369.79 637.115 369.79H651.013C651.691 369.79 652.24 369.24 652.24 368.562C652.24 367.885 651.691 367.335 651.013 367.335Z" fill="white"/>
<path d="M600.046 448.695L589.549 432.101L622.499 405.835L636.099 390.767C637.866 388.809 640.116 387.35 642.623 386.534C645.131 385.719 647.809 385.575 650.389 386.119C652.97 386.662 655.363 387.874 657.328 389.631C659.294 391.389 660.764 393.632 661.591 396.136C662.817 399.847 662.553 403.888 660.856 407.408C659.158 410.928 656.16 413.651 652.493 415.002L630.987 422.925L600.046 448.695Z" fill="#FFB6B6"/>
<path d="M353.737 328.381V409.03H410.237V328.381C410.238 327.801 410.053 327.236 409.709 326.769C409.365 326.302 408.88 325.957 408.326 325.786C408.065 325.7 407.791 325.657 407.516 325.66H356.466C356.108 325.66 355.753 325.729 355.422 325.866C355.092 326.002 354.791 326.202 354.538 326.455C354.284 326.708 354.083 327.008 353.946 327.338C353.808 327.669 353.737 328.023 353.737 328.381ZM375.787 356.092C375.801 354.502 376.443 352.983 377.573 351.864C378.702 350.744 380.228 350.117 381.818 350.117C383.408 350.117 384.934 350.744 386.063 351.864C387.193 352.983 387.835 354.502 387.849 356.092V365.45C387.841 367.044 387.202 368.571 386.072 369.695C384.942 370.819 383.412 371.451 381.818 371.451C380.224 371.451 378.694 370.819 377.564 369.695C376.434 368.571 375.795 367.044 375.787 365.45V356.092Z" fill="#2F2E41"/>
<path d="M353.564 406.451V414.228C353.565 414.631 353.726 415.017 354.01 415.302C354.294 415.588 354.679 415.75 355.082 415.753H408.892C409.296 415.751 409.682 415.59 409.966 415.304C410.251 415.018 410.41 414.631 410.41 414.228V406.451H353.564Z" fill="#3F3D56"/>
<path d="M264.855 206.873V354.126C264.856 356.003 265.603 357.802 266.929 359.129C268.256 360.456 270.056 361.202 271.932 361.204H490.147C492.023 361.202 493.823 360.456 495.15 359.129C496.476 357.802 497.223 356.003 497.224 354.126V206.873C497.22 204.998 496.472 203.201 495.146 201.876C493.819 200.551 492.022 199.806 490.147 199.804H271.932C270.057 199.806 268.26 200.551 266.933 201.876C265.607 203.201 264.859 204.998 264.855 206.873Z" fill="#3F3D56"/>
<path d="M269.974 208.705V352.31C269.976 353.313 270.375 354.274 271.084 354.983C271.793 355.692 272.754 356.091 273.757 356.092H488.33C489.333 356.091 490.294 355.692 491.003 354.983C491.712 354.274 492.111 353.313 492.113 352.31V208.705C492.113 207.701 491.714 206.738 491.005 206.028C490.296 205.317 489.334 204.917 488.33 204.915H273.757C272.753 204.917 271.791 205.317 271.082 206.028C270.373 206.738 269.974 207.701 269.974 208.705Z" fill="white"/>
<path d="M309.795 415.227C310.014 415.5 310.291 415.721 310.607 415.872C310.923 416.024 311.27 416.101 311.62 416.099H439.277C439.626 416.099 439.971 416.021 440.286 415.87C440.601 415.72 440.879 415.501 441.099 415.23C441.319 414.959 441.475 414.642 441.558 414.303C441.64 413.964 441.645 413.61 441.574 413.268L439.592 403.856C439.51 403.472 439.333 403.115 439.077 402.817C438.822 402.519 438.496 402.289 438.129 402.149C437.864 402.045 437.581 401.992 437.296 401.992H313.594C313.308 401.992 313.026 402.045 312.76 402.149C312.393 402.289 312.067 402.519 311.812 402.817C311.556 403.115 311.38 403.472 311.297 403.856L309.316 413.268C309.245 413.61 309.252 413.963 309.335 414.302C309.418 414.64 309.575 414.956 309.795 415.227Z" fill="#2F2E41"/>
<path d="M481.367 224.697H280.591C280.382 224.692 280.184 224.606 280.038 224.457C279.892 224.308 279.81 224.107 279.81 223.899C279.81 223.69 279.892 223.489 280.038 223.34C280.184 223.191 280.382 223.105 280.591 223.1H481.367C481.575 223.105 481.774 223.191 481.92 223.34C482.066 223.489 482.148 223.69 482.148 223.899C482.148 224.107 482.066 224.308 481.92 224.457C481.774 224.606 481.575 224.692 481.367 224.697Z" fill="#3F3D56"/>
<path d="M294.258 219.024C296.842 219.024 298.937 216.882 298.937 214.24C298.937 211.598 296.842 209.457 294.258 209.457C291.674 209.457 289.579 211.598 289.579 214.24C289.579 216.882 291.674 219.024 294.258 219.024Z" fill="#3F3D56"/>
<path d="M310.422 219.024C313.007 219.024 315.102 216.882 315.102 214.24C315.102 211.598 313.007 209.457 310.422 209.457C307.838 209.457 305.743 211.598 305.743 214.24C305.743 216.882 307.838 219.024 310.422 219.024Z" fill="#3F3D56"/>
<path d="M326.587 219.024C329.171 219.024 331.266 216.882 331.266 214.24C331.266 211.598 329.171 209.457 326.587 209.457C324.003 209.457 321.908 211.598 321.908 214.24C321.908 216.882 324.003 219.024 326.587 219.024Z" fill="#3F3D56"/>
<path d="M471.633 210.64H460.152C459.925 210.645 459.709 210.739 459.551 210.901C459.392 211.063 459.303 211.281 459.303 211.509C459.303 211.736 459.392 211.954 459.551 212.116C459.709 212.278 459.925 212.372 460.152 212.377H471.633C471.861 212.374 472.079 212.281 472.24 212.119C472.4 211.956 472.49 211.737 472.49 211.509C472.49 211.28 472.4 211.061 472.24 210.898C472.079 210.736 471.861 210.643 471.633 210.64Z" fill="#3F3D56"/>
<path d="M471.633 213.903H460.152C459.925 213.908 459.709 214.002 459.55 214.164C459.391 214.327 459.302 214.545 459.302 214.772C459.302 214.999 459.391 215.217 459.55 215.38C459.709 215.542 459.925 215.636 460.152 215.641H471.633C471.862 215.638 472.08 215.545 472.241 215.383C472.401 215.22 472.492 215.001 472.492 214.772C472.492 214.543 472.401 214.324 472.241 214.161C472.08 213.998 471.862 213.906 471.633 213.903Z" fill="#3F3D56"/>
<path d="M471.633 217.166H460.152C459.925 217.172 459.709 217.265 459.551 217.428C459.392 217.59 459.303 217.808 459.303 218.035C459.303 218.262 459.392 218.48 459.551 218.643C459.709 218.805 459.925 218.899 460.152 218.904H471.633C471.861 218.901 472.079 218.808 472.24 218.645C472.4 218.483 472.49 218.264 472.49 218.035C472.49 217.807 472.4 217.588 472.24 217.425C472.079 217.262 471.861 217.17 471.633 217.166Z" fill="#3F3D56"/>
<path d="M748.415 409.864C748.762 410.873 749.419 411.746 750.292 412.358C751.166 412.969 752.211 413.289 753.277 413.27L774.109 412.734C775.184 412.713 776.222 412.345 777.07 411.685C777.918 411.024 778.529 410.108 778.813 409.071L781.76 377.549C782.806 378.022 783.945 378.256 785.093 378.233C786.09 378.208 787.073 377.987 787.985 377.582C788.897 377.177 789.72 376.597 790.408 375.874C791.095 375.151 791.633 374.3 791.992 373.369C792.351 372.438 792.522 371.445 792.497 370.448C792.472 369.45 792.251 368.468 791.846 367.556C791.441 366.644 790.861 365.821 790.138 365.133C789.415 364.446 788.564 363.907 787.633 363.549C786.702 363.19 785.709 363.018 784.712 363.044C784.253 363.042 783.795 363.09 783.346 363.186C782.858 362.658 782.265 362.238 781.605 361.953C780.945 361.668 780.233 361.525 779.514 361.532L747.469 362.359C747.203 362.369 746.939 362.402 746.679 362.457C745.976 362.588 745.309 362.868 744.724 363.279C744.139 363.689 743.648 364.22 743.285 364.835C742.922 365.451 742.695 366.138 742.619 366.848C742.544 367.559 742.621 368.278 742.847 368.956L748.415 409.864ZM782.365 375.408L784.463 367.896C784.701 367.029 784.707 366.113 784.479 365.243C784.581 365.242 784.67 365.194 784.772 365.194C786.21 365.164 787.602 365.706 788.641 366.701C789.681 367.695 790.283 369.061 790.317 370.5C790.351 371.938 789.813 373.331 788.821 374.373C787.829 375.415 786.465 376.022 785.027 376.059C784.097 376.088 783.176 375.863 782.365 375.408Z" fill="#2F2E41"/>
<path d="M746.679 362.457C747.361 366.361 755.037 369.105 764.266 368.628C772.753 368.237 779.693 365.257 780.964 361.725C780.493 361.586 780.004 361.521 779.514 361.532L747.469 362.359C747.203 362.369 746.939 362.402 746.679 362.457Z" fill="#3F3D56"/>
<path d="M765.958 392.542C766 392.531 766.04 392.514 766.076 392.49L770.6 389.528C770.655 389.493 770.7 389.444 770.731 389.387C770.762 389.329 770.779 389.265 770.779 389.2C770.779 389.134 770.762 389.07 770.731 389.013C770.7 388.955 770.655 388.907 770.601 388.871L765.898 385.791C765.855 385.762 765.807 385.743 765.756 385.733C765.705 385.723 765.653 385.723 765.602 385.734C765.552 385.744 765.503 385.765 765.461 385.794C765.418 385.823 765.381 385.86 765.353 385.903C765.325 385.947 765.305 385.995 765.295 386.046C765.286 386.097 765.286 386.149 765.297 386.2C765.308 386.25 765.328 386.298 765.357 386.341C765.387 386.384 765.424 386.42 765.468 386.448L769.667 389.199L765.646 391.832C765.568 391.883 765.511 391.96 765.484 392.049C765.458 392.138 765.464 392.234 765.501 392.319C765.539 392.404 765.605 392.473 765.689 392.514C765.772 392.555 765.867 392.565 765.958 392.542H765.958Z" fill="#00A0D2"/>
<path d="M758.812 392.871C758.888 392.852 758.957 392.811 759.009 392.752C759.061 392.694 759.095 392.621 759.105 392.544C759.116 392.466 759.103 392.387 759.069 392.317C759.034 392.247 758.98 392.188 758.912 392.149L754.741 389.758L758.772 386.765C758.813 386.734 758.848 386.695 758.875 386.651C758.901 386.607 758.919 386.557 758.926 386.506C758.934 386.455 758.931 386.403 758.919 386.353C758.906 386.303 758.884 386.256 758.853 386.215C758.822 386.173 758.784 386.138 758.739 386.112C758.695 386.085 758.646 386.068 758.595 386.06C758.544 386.053 758.492 386.056 758.442 386.068C758.392 386.081 758.345 386.103 758.303 386.134L753.791 389.486C753.738 389.525 753.696 389.576 753.669 389.635C753.641 389.694 753.629 389.759 753.633 389.824C753.636 389.89 753.656 389.953 753.691 390.008C753.725 390.064 753.773 390.11 753.829 390.142L758.52 392.831C758.609 392.882 758.714 392.896 758.812 392.871Z" fill="#00A0D2"/>
<path d="M765.508 395.137C765.546 395.127 765.582 395.112 765.616 395.091C765.66 395.065 765.698 395.029 765.729 394.988C765.759 394.946 765.781 394.899 765.793 394.848C765.806 394.798 765.808 394.746 765.8 394.695C765.792 394.644 765.774 394.595 765.747 394.551L759.334 384.007C759.28 383.918 759.192 383.855 759.091 383.83C758.99 383.806 758.883 383.822 758.794 383.877C758.705 383.931 758.641 384.018 758.616 384.119C758.592 384.221 758.608 384.327 758.662 384.417L765.075 394.96C765.119 395.032 765.185 395.088 765.263 395.12C765.34 395.151 765.426 395.157 765.508 395.137Z" fill="#00A0D2"/>
<path d="M404.968 268.104H370.218C368.801 268.104 367.651 269.253 367.651 270.671V274.066C367.651 275.483 368.801 276.632 370.218 276.632H404.968C406.386 276.632 407.535 275.483 407.535 274.066V270.671C407.535 269.253 406.386 268.104 404.968 268.104Z" fill="#00A0D2"/>
<path d="M425.224 285.161H349.963C348.545 285.161 347.396 286.31 347.396 287.728V291.123C347.396 292.54 348.545 293.69 349.963 293.69H425.224C426.641 293.69 427.79 292.54 427.79 291.123V287.728C427.79 286.31 426.641 285.161 425.224 285.161Z" fill="#E6E6E6"/>
<path d="M425.224 302.218H349.963C348.545 302.218 347.396 303.367 347.396 304.785V308.18C347.396 309.598 348.545 310.747 349.963 310.747H425.224C426.641 310.747 427.79 309.598 427.79 308.18V304.785C427.79 303.367 426.641 302.218 425.224 302.218Z" fill="#E6E6E6"/>
<path d="M431.603 359.336L431.774 359.874L431.783 359.892L436.914 375.492L442.816 393.469L453.922 427.252L454.03 432.5V432.518L454.855 474.733L452.567 480.456L455.142 489.839C455.142 489.839 453.958 475.656 447.607 483.801C444.01 488.43 439.802 493.166 436.349 497.607C441.381 499.643 446.494 501.485 451.688 503.132C452.81 503.491 453.94 503.832 455.07 504.173C455.312 504.245 455.555 504.317 455.797 504.388C473.014 509.48 490.813 512.341 508.759 512.901C509.692 512.928 510.607 512.946 511.495 512.964C511.809 512.973 512.114 512.982 512.419 512.982C513.423 512.991 514.419 513 515.424 513C517.451 513 519.47 512.97 521.479 512.91C536.352 512.491 551.137 510.491 565.587 506.945C565.488 500.98 565.219 494.009 564.833 486.564C564.654 482.913 560.626 478.957 560.384 475.135C560.214 472.265 563.829 469.565 563.64 466.649C562.42 448.699 560.895 455.59 559.765 442.879C559.649 441.632 559.541 440.439 559.442 439.299C558.716 431.136 558.213 426.032 558.213 426.032L563.039 395.613L570.619 347.854L570.036 346.894L569.382 346.571L529.4 326.782L527.229 321.22C526.597 319.618 525.499 318.242 524.078 317.268C522.657 316.295 520.977 315.768 519.254 315.757L492.917 315.65C491.55 315.644 490.201 315.963 488.983 316.583C487.764 317.202 486.711 318.103 485.911 319.211L478.779 329.088L431.603 359.336Z" fill="#3F3D56"/>
<path d="M459.995 419.735L454.03 432.5L449.957 441.219L442.951 477.9L439.444 481.622L436.438 468.443L404.986 475.427C403.954 469.695 404.71 475.621 404.073 469.333C404.252 469.153 404.441 468.974 404.629 468.794C405.131 468.328 405.553 467.888 405.544 467.467C405.185 445.776 406.262 408.862 415.25 386.499C416.658 382.847 418.514 379.385 420.776 376.192C420.955 375.95 421.126 375.707 421.296 375.465C425.441 369.661 428.06 363.947 431.774 359.883V359.874C431.797 359.856 431.818 359.835 431.837 359.812C431.85 359.805 431.862 359.796 431.872 359.785L457.385 346.257L458.479 377.008L459.259 399.111L459.995 419.735Z" fill="#3F3D56"/>
<path d="M551.987 423.36L559.439 439.304L562.04 444.856L569.044 481.533L572.54 485.247L575.552 472.071L576.967 471.781L602.491 466.495L609.93 490.122C611.607 487.328 612.268 484.041 611.8 480.816C611.333 477.592 609.767 474.627 607.366 472.424C606.858 471.965 606.434 471.517 606.447 471.094C606.87 445.582 605.309 398.998 591.217 379.824C586.741 373.74 584.056 367.679 580.148 363.445C580.136 363.433 580.136 363.421 580.124 363.421L570.616 347.853L570.036 346.897L569.382 346.571L551.987 423.36Z" fill="#3F3D56"/>
<path d="M506.846 308.154C526.198 308.154 541.885 292.467 541.885 273.116C541.885 253.764 526.198 238.077 506.846 238.077C487.495 238.077 471.808 253.764 471.808 273.116C471.808 292.467 487.495 308.154 506.846 308.154Z" fill="#FFB6B6"/>
<path d="M554.206 248.641C553.934 248.351 553.607 248.119 553.243 247.958C552.88 247.797 552.488 247.711 552.09 247.705L552.617 246.243C552.789 245.782 552.835 245.284 552.752 244.799C552.668 244.315 552.456 243.861 552.14 243.485C551.823 243.109 551.412 242.824 550.948 242.659C550.485 242.494 549.986 242.455 549.503 242.547L547.584 242.916L547.765 241.635C547.835 241.157 547.778 240.67 547.602 240.221C547.426 239.772 547.136 239.376 546.761 239.073C546.386 238.77 545.938 238.57 545.462 238.492C544.986 238.415 544.498 238.462 544.046 238.631C543.634 238.793 543.192 238.86 542.751 238.829C542.31 238.798 541.882 238.668 541.498 238.45C541.112 238.238 540.777 237.945 540.516 237.59C540.256 237.236 540.075 236.829 539.988 236.397L539.32 233.173L539.249 233C535.993 227.574 529.734 223.627 522.075 222.18C515.257 220.883 508.266 221.543 501.527 222.164C498.854 222.416 495.834 222.699 493.318 224.24C491.179 225.561 489.37 228.204 489.74 230.869C483.095 228.833 475.971 232.898 472.44 238.025C468.256 244.127 467.572 251.771 467.462 257.747C467.163 271.886 470.081 283.453 476.112 292.135C476.553 292.764 476.663 294.077 477.535 294.517L477.355 294.226C478.33 294.714 479.321 295.5 478.951 296.342C477.889 298.764 484.943 304.119 489.913 305.888C498.98 309.12 511.034 308.845 519.511 307.681L519.81 305.676C522.869 305.259 525.024 304.465 525.629 303.222C526.699 302.31 527.611 301.492 528.405 300.737L528.413 300.729C528.429 300.714 528.46 300.69 528.476 300.674C532.305 297.002 533.194 294.91 533.595 291.726C533.98 288.604 533.296 285.435 532.596 282.58C547.333 284.861 526.793 266.885 540.523 263.409C540.68 263.36 540.84 263.321 541.003 263.291C541.404 263.197 541.805 263.102 542.19 262.992C544.047 262.488 545.826 261.728 547.474 260.735C551.312 258.4 552.578 255.302 554.559 251.81C554.845 251.313 554.965 250.738 554.902 250.168C554.838 249.598 554.594 249.063 554.206 248.641Z" fill="#2F2E41"/>
<path d="M630.773 425.855C630.765 427.231 630.75 429.158 630.687 431.54C630.679 431.871 630.671 432.209 630.663 432.555C630.561 436.935 630.459 440.607 630.293 444.688C630.286 444.971 630.278 445.247 630.262 445.53C630.042 451.223 629.696 457.852 629.098 468.35C627.989 487.741 626.055 471.016 624.113 477.818C624.018 478.156 623.916 478.557 623.822 479.029C623.528 480.74 623.031 482.411 622.343 484.006C621.313 484.62 620.252 485.209 619.206 485.799C616.225 487.458 613.198 489.055 610.147 490.572C608.433 491.422 606.711 492.255 604.981 493.057C604.705 493.183 604.438 493.309 604.171 493.427C595.312 497.524 586.181 501.008 576.845 503.854C575.02 504.404 573.204 504.939 571.364 505.434C569.445 505.969 567.526 506.472 565.584 506.944C551.135 510.492 536.349 512.492 521.477 512.913C519.472 512.976 517.451 512.999 515.422 512.999C514.416 512.999 513.425 512.991 512.418 512.984C512.112 512.984 511.805 512.976 511.498 512.968C510.61 512.944 509.69 512.928 508.762 512.905C490.816 512.345 473.017 509.483 455.8 504.389L455.069 504.176C453.937 503.83 452.812 503.492 451.688 503.13C446.498 501.487 441.384 499.647 436.346 497.61C432.501 496.061 428.7 494.399 424.944 492.625C424.909 492.615 424.877 492.599 424.849 492.577C424.063 492.216 423.269 491.838 422.482 491.453C422.38 491.398 422.27 491.343 422.16 491.288C419.227 489.857 416.325 488.357 413.455 486.79C411.041 481.246 407.644 480.184 405.536 475.309C404.923 473.861 404.48 472.346 404.215 470.795C404.215 470.78 404.207 470.764 404.207 470.74C404.428 473.666 403.272 465.55 404.2 470.709C404.192 470.614 404.184 470.512 404.176 470.394C404.152 470.111 404.121 469.765 404.074 469.333C401.377 442.998 401.55 412.88 400.378 388.063C400.299 386.458 400.218 384.922 400.134 383.454C400.111 382.967 400.079 382.487 400.048 382.015C400.103 381.874 400.166 381.724 400.236 381.583C400.251 381.542 400.27 381.503 400.291 381.465C400.315 381.416 400.341 381.369 400.37 381.323C400.386 381.3 400.409 381.268 400.425 381.245C400.437 381.218 400.45 381.192 400.464 381.166C400.535 381.056 400.614 380.938 400.7 380.828C400.74 380.781 400.771 380.741 400.81 380.702C400.838 380.662 400.869 380.625 400.905 380.592C400.929 380.554 400.958 380.52 400.991 380.49C401.023 380.458 401.054 380.419 401.093 380.38C401.11 380.355 401.132 380.334 401.156 380.317C401.219 380.245 401.287 380.18 401.361 380.12C401.641 379.862 401.941 379.626 402.257 379.413C402.367 379.342 402.485 379.271 402.595 379.192C403.388 378.718 404.222 378.318 405.088 377.997C405.387 377.887 405.686 377.785 406.008 377.675C406.126 377.643 406.236 377.604 406.354 377.565C406.527 377.51 406.7 377.455 406.881 377.415C407.778 377.148 408.745 376.92 409.791 376.707C409.916 376.684 410.05 376.66 410.184 376.629C410.372 376.59 410.569 376.558 410.766 376.527C411.033 376.479 411.308 376.432 411.583 376.385C413.919 376.016 416.569 375.74 419.494 375.559C419.769 375.544 420.045 375.528 420.32 375.512C420.642 375.497 420.965 375.481 421.295 375.465C421.57 375.449 421.853 375.441 422.136 375.434C422.412 375.418 422.695 375.41 422.986 375.402C423.78 375.379 424.598 375.355 425.431 375.339C427.806 375.292 430.307 375.308 432.933 375.363C434.152 375.394 435.394 375.426 436.668 375.481C436.755 375.481 436.833 375.489 436.912 375.489C438.021 375.528 439.137 375.575 440.286 375.638C441.088 375.677 441.898 375.717 442.708 375.764C443.47 375.811 444.241 375.858 445.019 375.913C445.625 375.945 446.23 375.992 446.844 376.031C447.363 376.071 447.882 376.11 448.401 376.141L449.108 376.189C449.494 376.22 449.879 376.244 450.272 376.283C451.137 376.354 452.002 376.424 452.883 376.495C453.756 376.574 454.644 376.652 455.533 376.731C456.422 376.81 457.318 376.896 458.215 376.983C458.309 376.991 458.395 376.998 458.482 377.006C459.3 377.093 460.118 377.171 460.943 377.258C461.132 377.274 461.329 377.289 461.517 377.313C462.304 377.392 463.107 377.485 463.901 377.569C464.145 377.595 464.388 377.621 464.632 377.648C465.255 377.715 465.868 377.774 466.495 377.848C467.32 377.942 468.162 378.029 468.98 378.139C469.617 378.209 470.254 378.28 470.891 378.359C471.889 378.477 472.904 378.603 473.918 378.736C474.303 378.783 474.689 378.831 475.074 378.886C477.968 379.247 480.893 379.648 483.865 380.065C488.371 380.702 492.948 381.394 497.556 382.141C502.172 382.888 506.814 383.677 511.482 384.508C512.662 384.721 513.841 384.933 515.029 385.153C515.564 385.255 516.098 385.357 516.633 385.46C517.545 385.625 518.457 385.798 519.37 385.971C520.282 386.144 521.194 386.317 522.106 386.498C523.191 386.71 524.284 386.922 525.369 387.135C532.517 388.55 539.626 390.06 546.562 391.64C547.702 391.9 548.842 392.167 549.975 392.427C552.239 392.954 554.483 393.488 556.706 394.031C557.319 394.173 557.925 394.322 558.53 394.471C560.04 394.849 561.55 395.226 563.036 395.612L563.296 395.682C564.389 395.95 565.458 396.225 566.528 396.508C569.052 397.169 571.534 397.837 573.974 398.513C575.594 398.961 577.196 399.415 578.779 399.874C581.146 400.558 583.466 401.25 585.723 401.95C586.281 402.123 586.839 402.296 587.39 402.461C589.041 402.972 590.669 403.491 592.249 404.01C593.507 404.419 594.734 404.836 595.945 405.252C597.156 405.669 598.344 406.086 599.507 406.503C600.254 406.77 600.994 407.053 601.733 407.32C602.794 407.714 603.84 408.107 604.863 408.5C605.177 408.618 605.484 408.744 605.79 408.862C605.987 408.948 606.176 409.019 606.364 409.098C606.734 409.247 607.112 409.389 607.473 409.538C607.843 409.679 608.205 409.829 608.566 409.986C608.92 410.128 609.282 410.277 609.628 410.427C609.982 410.568 610.328 410.717 610.674 410.875C610.965 410.993 611.248 411.119 611.523 411.244C612.081 411.488 612.64 411.732 613.182 411.984C613.45 412.109 613.717 412.227 613.984 412.353L614.598 412.636C614.684 412.683 614.771 412.723 614.857 412.762C615.054 412.856 615.258 412.959 615.455 413.053C615.911 413.265 616.359 413.493 616.799 413.706C617.389 414.004 617.963 414.303 618.514 414.594C619.072 414.893 619.615 415.192 620.134 415.483C620.22 415.53 620.299 415.577 620.385 415.624C620.503 415.687 620.621 415.758 620.739 415.821C621.14 416.049 621.525 416.285 621.911 416.513C622.666 416.977 623.381 417.433 624.05 417.889C624.199 417.991 624.341 418.093 624.49 418.188C624.985 418.542 625.457 418.888 625.898 419.242C625.898 419.249 625.898 419.249 625.906 419.249C626.055 419.36 626.196 419.477 626.338 419.588C626.456 419.698 626.582 419.792 626.7 419.902C627.109 420.256 627.486 420.594 627.832 420.94C627.948 421.047 628.058 421.16 628.162 421.278C628.208 421.316 628.25 421.358 628.288 421.404C628.445 421.561 628.587 421.719 628.721 421.876C628.741 421.897 628.76 421.921 628.776 421.947C628.964 422.167 629.137 422.387 629.303 422.607C629.381 422.717 629.468 422.827 629.538 422.937C629.633 423.071 629.727 423.213 629.806 423.346C629.877 423.456 629.939 423.574 630.002 423.685C630.169 423.968 630.311 424.265 630.427 424.573C630.515 424.782 630.586 424.997 630.639 425.218C630.699 425.427 630.744 425.64 630.773 425.855Z" fill="#2F2E41"/>
<path opacity="0.2" d="M630.773 425.855C630.765 427.231 630.75 429.158 630.687 431.54C630.679 431.871 630.663 432.209 630.655 432.555C630.577 435.897 630.459 440.025 630.294 444.688C630.286 444.971 630.278 445.247 630.262 445.53C630.042 451.223 629.696 457.852 629.098 468.35C627.99 487.741 626.055 471.016 624.113 477.818C618.718 474.499 612.805 471.023 606.483 467.453C605.342 466.809 604.192 466.161 603.03 465.511C590.386 458.457 576.263 451.066 561.519 443.745C560.937 443.454 560.347 443.163 559.765 442.88C525.991 426.185 489.126 409.947 459.261 399.111C453.496 397.019 447.992 395.132 442.818 393.473C431.919 389.989 422.498 387.551 415.248 386.498C407.699 385.397 402.485 385.79 400.378 388.063C400.299 386.458 400.218 384.922 400.134 383.454C400.103 382.967 400.071 382.487 400.04 382.015C400.088 381.886 400.151 381.762 400.212 381.638C400.221 381.62 400.227 381.601 400.236 381.583C400.251 381.542 400.27 381.503 400.291 381.465C400.315 381.416 400.341 381.369 400.37 381.323C400.396 381.268 400.427 381.215 400.464 381.166C400.535 381.056 400.614 380.938 400.7 380.828C400.764 380.746 400.832 380.667 400.905 380.592C400.929 380.554 400.958 380.52 400.991 380.49C401.023 380.458 401.054 380.419 401.094 380.38C401.11 380.355 401.132 380.334 401.156 380.317C401.219 380.245 401.287 380.18 401.361 380.12C401.641 379.862 401.941 379.626 402.257 379.413C402.367 379.342 402.485 379.271 402.595 379.192C403.388 378.718 404.222 378.318 405.088 377.997C405.387 377.887 405.686 377.785 406.008 377.675C406.126 377.643 406.236 377.604 406.354 377.565C406.527 377.51 406.7 377.455 406.881 377.415C407.778 377.148 408.745 376.92 409.791 376.707C410.105 376.645 410.435 376.582 410.766 376.527C411.033 376.479 411.308 376.432 411.584 376.385C413.919 376.016 416.569 375.74 419.494 375.559C419.77 375.544 420.045 375.528 420.32 375.512C420.642 375.496 420.965 375.481 421.295 375.465C421.57 375.449 421.853 375.441 422.136 375.434C422.412 375.418 422.695 375.41 422.986 375.402C423.78 375.379 424.598 375.355 425.431 375.339C427.806 375.3 430.307 375.316 432.933 375.371C434.152 375.394 435.395 375.434 436.668 375.489C436.747 375.489 436.834 375.497 436.912 375.497C438.021 375.528 439.145 375.583 440.286 375.638C441.088 375.677 441.898 375.717 442.708 375.764C443.47 375.811 444.241 375.858 445.02 375.913C445.625 375.945 446.23 375.992 446.844 376.031C447.363 376.071 447.882 376.11 448.401 376.141C449.022 376.188 449.643 376.236 450.272 376.283C451.137 376.354 452.002 376.424 452.883 376.495C453.756 376.574 454.645 376.652 455.533 376.731C456.422 376.81 457.318 376.896 458.215 376.983C458.309 376.991 458.395 376.998 458.482 377.006C459.3 377.093 460.118 377.171 460.943 377.258C465.52 377.722 470.23 378.264 475.074 378.886C477.968 379.255 480.898 379.651 483.866 380.073C488.371 380.71 492.948 381.402 497.556 382.141C502.172 382.888 506.814 383.677 511.483 384.508C512.662 384.72 513.842 384.933 515.029 385.153C516.476 385.42 517.923 385.693 519.37 385.971C520.282 386.144 521.194 386.317 522.106 386.498C523.191 386.71 524.284 386.922 525.37 387.135C532.518 388.55 539.626 390.06 546.562 391.64C547.702 391.9 548.842 392.167 549.975 392.427C552.24 392.954 554.483 393.488 556.706 394.031C557.319 394.18 557.925 394.33 558.53 394.479C560.048 394.857 561.55 395.234 563.036 395.612V395.619C563.123 395.635 563.209 395.659 563.296 395.682C564.381 395.958 565.458 396.233 566.528 396.516C569.052 397.176 571.534 397.842 573.974 398.513C575.594 398.969 577.199 399.418 578.779 399.874C581.146 400.566 583.466 401.258 585.723 401.95C586.281 402.123 586.839 402.296 587.39 402.461C589.041 402.98 590.661 403.496 592.249 404.01C593.508 404.419 594.734 404.836 595.945 405.252C597.156 405.669 598.344 406.086 599.508 406.503C600.262 406.77 601.002 407.045 601.733 407.313C602.802 407.706 603.84 408.099 604.863 408.5C605.177 408.618 605.484 408.744 605.791 408.862C606.365 409.082 606.923 409.31 607.473 409.538C607.843 409.68 608.205 409.829 608.566 409.986C608.92 410.128 609.282 410.277 609.628 410.427C609.982 410.568 610.328 410.718 610.674 410.875C610.965 410.993 611.248 411.119 611.523 411.244C612.081 411.488 612.64 411.732 613.182 411.984C613.45 412.109 613.717 412.227 613.984 412.353L614.598 412.636C614.684 412.683 614.771 412.723 614.857 412.762C615.526 413.077 616.17 413.391 616.8 413.706C617.389 414.004 617.963 414.303 618.514 414.594C619.167 414.94 619.788 415.278 620.385 415.624C620.503 415.687 620.621 415.758 620.739 415.821C621.14 416.049 621.526 416.285 621.911 416.513C622.666 416.977 623.381 417.433 624.05 417.889C624.71 418.345 625.324 418.793 625.898 419.242C625.898 419.249 625.898 419.249 625.906 419.249C626.181 419.47 626.448 419.69 626.7 419.902C627.109 420.256 627.486 420.594 627.832 420.94C627.948 421.047 628.058 421.16 628.162 421.278C628.208 421.316 628.25 421.358 628.288 421.404C628.453 421.585 628.619 421.766 628.776 421.947C628.965 422.167 629.138 422.387 629.303 422.607C629.381 422.717 629.468 422.827 629.539 422.937C629.633 423.071 629.727 423.213 629.806 423.346C629.877 423.456 629.94 423.574 630.003 423.685C630.169 423.968 630.312 424.265 630.427 424.573C630.513 424.783 630.584 424.998 630.64 425.218C630.699 425.427 630.744 425.64 630.773 425.855Z" fill="black"/>
</g>
<defs>
<linearGradient id="paint0_linear_6_376" x1="0" y1="0" x2="800" y2="800" gradientUnits="userSpaceOnUse">
<stop stop-color="#E5F9FF"/>
<stop offset="1" stop-color="#F0FBFF"/>
</linearGradient>
<clipPath id="clip0_6_376">
<rect width="618.723" height="450" fill="white" transform="translate(203 63)"/>
</clipPath>
</defs>
</svg>
