<svg width="1024" height="576" viewBox="0 0 1024 576" fill="none" xmlns="http://www.w3.org/2000/svg">
<rect width="1024" height="576" fill="url(#paint0_linear_6_500)"/>
<path d="M600.563 210.423C601.798 197.117 605.211 184.105 610.663 171.906C612.183 168.511 613.856 165.19 615.682 161.945C615.773 161.775 615.795 161.576 615.743 161.391C615.691 161.205 615.569 161.047 615.402 160.949C615.236 160.852 615.038 160.823 614.851 160.869C614.663 160.915 614.501 161.031 614.398 161.195C607.759 173.015 603.108 185.847 600.63 199.177C599.941 202.899 599.423 206.648 599.077 210.423C598.988 211.375 600.475 211.369 600.563 210.423Z" fill="#E6E6E6"/>
<path d="M619.282 164.329C624.481 164.329 628.696 160.114 628.696 154.914C628.696 149.715 624.481 145.5 619.282 145.5C614.082 145.5 609.867 149.715 609.867 154.914C609.867 160.114 614.082 164.329 619.282 164.329Z" fill="#E6E6E6"/>
<path d="M601.526 210.673C602.327 202.041 604.541 193.599 608.079 185.685C609.064 183.482 610.15 181.328 611.334 179.223C611.393 179.113 611.408 178.984 611.374 178.863C611.34 178.743 611.261 178.64 611.153 178.577C611.045 178.514 610.917 178.495 610.795 178.525C610.673 178.555 610.568 178.63 610.501 178.736C606.194 186.405 603.177 194.73 601.57 203.377C601.122 205.792 600.786 208.224 600.562 210.673C600.504 211.291 601.469 211.287 601.526 210.673Z" fill="#E6E6E6"/>
<path d="M613.67 180.77C617.043 180.77 619.777 178.035 619.777 174.662C619.777 171.289 617.043 168.554 613.67 168.554C610.297 168.554 607.562 171.289 607.562 174.662C607.562 178.035 610.297 180.77 613.67 180.77Z" fill="#E6E6E6"/>
<path d="M600.309 210.096C595.632 202.797 592.185 194.78 590.106 186.364C589.529 184.02 589.06 181.655 588.699 179.266C588.678 179.143 588.61 179.032 588.509 178.958C588.408 178.884 588.283 178.852 588.159 178.868C588.035 178.885 587.922 178.949 587.844 179.047C587.767 179.145 587.73 179.27 587.743 179.394C589.063 188.09 591.804 196.51 595.856 204.317C596.989 206.496 598.22 208.62 599.548 210.689C599.883 211.212 600.642 210.615 600.309 210.096Z" fill="#E6E6E6"/>
<path d="M587.735 180.341C591.108 180.341 593.843 177.606 593.843 174.233C593.843 170.86 591.108 168.126 587.735 168.126C584.362 168.126 581.628 170.86 581.628 174.233C581.628 177.606 584.362 180.341 587.735 180.341Z" fill="#E6E6E6"/>
<path d="M581.559 215.5V203.5C581.56 202.307 582.035 201.163 582.879 200.319C583.722 199.476 584.866 199.001 586.059 199H614.059C615.252 199.001 616.396 199.476 617.24 200.319C618.083 201.163 618.558 202.307 618.559 203.5V215.5C618.558 216.693 618.083 217.837 617.24 218.68C616.396 219.524 615.252 219.999 614.059 220H586.059C584.866 219.999 583.722 219.524 582.879 218.68C582.035 217.837 581.56 216.693 581.559 215.5Z" fill="#F2F2F2"/>
<path d="M613.059 139H601.059C599.866 138.999 598.722 138.524 597.879 137.68C597.035 136.837 596.56 135.693 596.559 134.5V85.5C596.56 84.3069 597.035 83.1631 597.879 82.3195C598.722 81.4759 599.866 81.0013 601.059 81H613.059C614.252 81.0013 615.396 81.4759 616.24 82.3195C617.083 83.1631 617.558 84.3069 617.559 85.5V134.5C617.558 135.693 617.083 136.837 616.24 137.68C615.396 138.524 614.252 138.999 613.059 139Z" fill="#F2F2F2"/>
<path d="M617.059 90.5H597.059V94.5H617.059V90.5Z" fill="#CCCCCC"/>
<path d="M617.059 121.5H597.059V125.5H617.059V121.5Z" fill="#CCCCCC"/>
<path d="M643.059 139H631.059C629.866 138.999 628.722 138.524 627.879 137.68C627.035 136.837 626.56 135.693 626.559 134.5V85.5C626.56 84.3069 627.035 83.1631 627.879 82.3195C628.722 81.4759 629.866 81.0013 631.059 81H643.059C644.252 81.0013 645.396 81.4759 646.24 82.3195C647.083 83.1631 647.558 84.3069 647.559 85.5V134.5C647.558 135.693 647.083 136.837 646.24 137.68C645.396 138.524 644.252 138.999 643.059 139Z" fill="#F2F2F2"/>
<path d="M647.059 90.5H627.059V94.5H647.059V90.5Z" fill="#CCCCCC"/>
<path d="M647.059 121.5H627.059V125.5H647.059V121.5Z" fill="#CCCCCC"/>
<path d="M673.059 139H661.059C659.866 138.999 658.722 138.524 657.879 137.68C657.035 136.837 656.56 135.693 656.559 134.5V85.5C656.56 84.3069 657.035 83.1631 657.879 82.3195C658.722 81.4759 659.866 81.0013 661.059 81H673.059C674.252 81.0013 675.396 81.4759 676.24 82.3195C677.083 83.1631 677.558 84.3069 677.559 85.5V134.5C677.558 135.693 677.083 136.837 676.24 137.68C675.396 138.524 674.252 138.999 673.059 139Z" fill="#F2F2F2"/>
<path d="M677.059 90.5H657.059V94.5H677.059V90.5Z" fill="#CCCCCC"/>
<path d="M677.059 121.5H657.059V125.5H677.059V121.5Z" fill="#CCCCCC"/>
<path d="M689.059 220H677.059C675.866 219.999 674.722 219.524 673.879 218.68C673.035 217.837 672.56 216.693 672.559 215.5V166.5C672.56 165.307 673.035 164.163 673.879 163.319C674.722 162.476 675.866 162.001 677.059 162H689.059C690.252 162.001 691.396 162.476 692.24 163.319C693.083 164.163 693.558 165.307 693.559 166.5V215.5C693.558 216.693 693.083 217.837 692.24 218.68C691.396 219.524 690.252 219.999 689.059 220Z" fill="#F2F2F2"/>
<path d="M693.059 171.5H673.059V175.5H693.059V171.5Z" fill="#CCCCCC"/>
<path d="M693.059 202.5H673.059V206.5H693.059V202.5Z" fill="#CCCCCC"/>
<path d="M719.059 220H707.059C705.866 219.999 704.722 219.524 703.879 218.68C703.035 217.837 702.56 216.693 702.559 215.5V166.5C702.56 165.307 703.035 164.163 703.879 163.319C704.722 162.476 705.866 162.001 707.059 162H719.059C720.252 162.001 721.396 162.476 722.24 163.319C723.083 164.163 723.558 165.307 723.559 166.5V215.5C723.558 216.693 723.083 217.837 722.24 218.68C721.396 219.524 720.252 219.999 719.059 220Z" fill="#F2F2F2"/>
<path d="M723.059 171.5H703.059V175.5H723.059V171.5Z" fill="#CCCCCC"/>
<path d="M723.059 202.5H703.059V206.5H723.059V202.5Z" fill="#CCCCCC"/>
<path d="M749.059 220H737.059C735.866 219.999 734.722 219.524 733.879 218.68C733.035 217.837 732.56 216.693 732.559 215.5V166.5C732.56 165.307 733.035 164.163 733.879 163.319C734.722 162.476 735.866 162.001 737.059 162H749.059C750.252 162.001 751.396 162.476 752.24 163.319C753.083 164.163 753.558 165.307 753.559 166.5V215.5C753.558 216.693 753.083 217.837 752.24 218.68C751.396 219.524 750.252 219.999 749.059 220Z" fill="#F2F2F2"/>
<path d="M753.059 171.5H733.059V175.5H753.059V171.5Z" fill="#CCCCCC"/>
<path d="M753.059 202.5H733.059V206.5H753.059V202.5Z" fill="#CCCCCC"/>
<path d="M610.059 301H598.059C596.866 300.999 595.722 300.524 594.879 299.68C594.035 298.837 593.56 297.693 593.559 296.5V247.5C593.56 246.307 594.035 245.163 594.879 244.319C595.722 243.476 596.866 243.001 598.059 243H610.059C611.252 243.001 612.396 243.476 613.24 244.319C614.083 245.163 614.558 246.307 614.559 247.5V296.5C614.558 297.693 614.083 298.837 613.24 299.68C612.396 300.524 611.252 300.999 610.059 301Z" fill="#F2F2F2"/>
<path d="M614.059 252.5H594.059V256.5H614.059V252.5Z" fill="#CCCCCC"/>
<path d="M614.059 283.5H594.059V287.5H614.059V283.5Z" fill="#CCCCCC"/>
<path d="M640.059 301H628.059C626.866 300.999 625.722 300.524 624.879 299.68C624.035 298.837 623.56 297.693 623.559 296.5V247.5C623.56 246.307 624.035 245.163 624.879 244.319C625.722 243.476 626.866 243.001 628.059 243H640.059C641.252 243.001 642.396 243.476 643.24 244.319C644.083 245.163 644.558 246.307 644.559 247.5V296.5C644.558 297.693 644.083 298.837 643.24 299.68C642.396 300.524 641.252 300.999 640.059 301Z" fill="#F2F2F2"/>
<path d="M644.059 252.5H624.059V256.5H644.059V252.5Z" fill="#CCCCCC"/>
<path d="M644.059 283.5H624.059V287.5H644.059V283.5Z" fill="#CCCCCC"/>
<path d="M670.059 301H658.059C656.866 300.999 655.722 300.524 654.879 299.68C654.035 298.837 653.56 297.693 653.559 296.5V247.5C653.56 246.307 654.035 245.163 654.879 244.319C655.722 243.476 656.866 243.001 658.059 243H670.059C671.252 243.001 672.396 243.476 673.24 244.319C674.083 245.163 674.558 246.307 674.559 247.5V296.5C674.558 297.693 674.083 298.837 673.24 299.68C672.396 300.524 671.252 300.999 670.059 301Z" fill="#F2F2F2"/>
<path d="M674.059 252.5H654.059V256.5H674.059V252.5Z" fill="#CCCCCC"/>
<path d="M674.059 283.5H654.059V287.5H674.059V283.5Z" fill="#CCCCCC"/>
<path d="M703.059 139H691.059C689.866 138.999 688.722 138.524 687.879 137.68C687.035 136.837 686.56 135.693 686.559 134.5V85.5C686.56 84.3069 687.035 83.1631 687.879 82.3195C688.722 81.4759 689.866 81.0013 691.059 81H703.059C704.252 81.0013 705.396 81.4759 706.24 82.3195C707.083 83.1631 707.558 84.3069 707.559 85.5V134.5C707.558 135.693 707.083 136.837 706.24 137.68C705.396 138.524 704.252 138.999 703.059 139Z" fill="#F2F2F2"/>
<path d="M707.059 90.5H687.059V94.5H707.059V90.5Z" fill="#CCCCCC"/>
<path d="M707.059 121.5H687.059V125.5H707.059V121.5Z" fill="#CCCCCC"/>
<path d="M733.059 139H721.059C719.866 138.999 718.722 138.524 717.879 137.68C717.035 136.837 716.56 135.693 716.559 134.5V85.5C716.56 84.3069 717.035 83.1631 717.879 82.3195C718.722 81.4759 719.866 81.0013 721.059 81H733.059C734.252 81.0013 735.396 81.4759 736.24 82.3195C737.083 83.1631 737.558 84.3069 737.559 85.5V134.5C737.558 135.693 737.083 136.837 736.24 137.68C735.396 138.524 734.252 138.999 733.059 139Z" fill="#F2F2F2"/>
<path d="M737.059 90.5H717.059V94.5H737.059V90.5Z" fill="#CCCCCC"/>
<path d="M737.059 121.5H717.059V125.5H737.059V121.5Z" fill="#CCCCCC"/>
<path d="M763.059 139H751.059C749.866 138.999 748.722 138.524 747.879 137.68C747.035 136.837 746.56 135.693 746.559 134.5V85.5C746.56 84.3069 747.035 83.1631 747.879 82.3195C748.722 81.4759 749.866 81.0013 751.059 81H763.059C764.252 81.0013 765.396 81.4759 766.24 82.3195C767.083 83.1631 767.558 84.3069 767.559 85.5V134.5C767.558 135.693 767.083 136.837 766.24 137.68C765.396 138.524 764.252 138.999 763.059 139Z" fill="#F2F2F2"/>
<path d="M767.059 90.5H747.059V94.5H767.059V90.5Z" fill="#CCCCCC"/>
<path d="M767.059 121.5H747.059V125.5H767.059V121.5Z" fill="#CCCCCC"/>
<path d="M793.059 139H781.059C779.866 138.999 778.722 138.524 777.879 137.68C777.035 136.837 776.56 135.693 776.559 134.5V85.5C776.56 84.3069 777.035 83.1631 777.879 82.3195C778.722 81.4759 779.866 81.0013 781.059 81H793.059C794.252 81.0013 795.396 81.4759 796.24 82.3195C797.083 83.1631 797.558 84.3069 797.559 85.5V134.5C797.558 135.693 797.083 136.837 796.24 137.68C795.396 138.524 794.252 138.999 793.059 139Z" fill="#F2F2F2"/>
<path d="M797.059 90.5H777.059V94.5H797.059V90.5Z" fill="#CCCCCC"/>
<path d="M797.059 121.5H777.059V125.5H797.059V121.5Z" fill="#CCCCCC"/>
<path d="M838 140.5H553C552.735 140.5 552.48 140.395 552.293 140.207C552.105 140.02 552 139.765 552 139.5C552 139.235 552.105 138.98 552.293 138.793C552.48 138.605 552.735 138.5 553 138.5H838C838.265 138.5 838.52 138.605 838.707 138.793C838.895 138.98 839 139.235 839 139.5C839 139.765 838.895 140.02 838.707 140.207C838.52 140.395 838.265 140.5 838 140.5Z" fill="#CCCCCC"/>
<path d="M838 221.5H553C552.735 221.5 552.48 221.395 552.293 221.207C552.105 221.02 552 220.765 552 220.5C552 220.235 552.105 219.98 552.293 219.793C552.48 219.605 552.735 219.5 553 219.5H838C838.265 219.5 838.52 219.605 838.707 219.793C838.895 219.98 839 220.235 839 220.5C839 220.765 838.895 221.02 838.707 221.207C838.52 221.395 838.265 221.5 838 221.5Z" fill="#CCCCCC"/>
<path d="M838 302.5H553C552.735 302.5 552.48 302.395 552.293 302.207C552.105 302.02 552 301.765 552 301.5C552 301.235 552.105 300.98 552.293 300.793C552.48 300.605 552.735 300.5 553 300.5H838C838.265 300.5 838.52 300.605 838.707 300.793C838.895 300.98 839 301.235 839 301.5C839 301.765 838.895 302.02 838.707 302.207C838.52 302.395 838.265 302.5 838 302.5Z" fill="#CCCCCC"/>
<path d="M765.563 291.423C766.798 278.117 770.211 265.105 775.663 252.906C777.183 249.511 778.856 246.19 780.682 242.945C780.773 242.775 780.795 242.576 780.743 242.391C780.691 242.205 780.569 242.047 780.402 241.949C780.236 241.852 780.038 241.823 779.851 241.869C779.663 241.915 779.501 242.031 779.398 242.195C772.759 254.015 768.108 266.847 765.63 280.177C764.941 283.899 764.423 287.648 764.077 291.423C763.988 292.375 765.475 292.369 765.563 291.423Z" fill="#E6E6E6"/>
<path d="M784.282 245.329C789.481 245.329 793.696 241.114 793.696 235.914C793.696 230.715 789.481 226.5 784.282 226.5C779.082 226.5 774.867 230.715 774.867 235.914C774.867 241.114 779.082 245.329 784.282 245.329Z" fill="#E6E6E6"/>
<path d="M766.526 291.673C767.327 283.041 769.541 274.599 773.079 266.685C774.064 264.482 775.15 262.328 776.334 260.223C776.393 260.113 776.408 259.984 776.374 259.863C776.34 259.743 776.261 259.64 776.153 259.577C776.045 259.514 775.917 259.495 775.795 259.525C775.673 259.555 775.568 259.63 775.501 259.736C771.194 267.405 768.177 275.73 766.57 284.377C766.122 286.792 765.786 289.224 765.562 291.673C765.504 292.291 766.469 292.287 766.526 291.673Z" fill="#E6E6E6"/>
<path d="M778.67 261.77C782.043 261.77 784.777 259.035 784.777 255.662C784.777 252.289 782.043 249.554 778.67 249.554C775.297 249.554 772.562 252.289 772.562 255.662C772.562 259.035 775.297 261.77 778.67 261.77Z" fill="#E6E6E6"/>
<path d="M765.309 291.096C760.632 283.797 757.185 275.78 755.106 267.364C754.529 265.021 754.06 262.655 753.699 260.266C753.678 260.143 753.61 260.032 753.509 259.958C753.408 259.884 753.283 259.852 753.159 259.868C753.035 259.885 752.922 259.949 752.844 260.047C752.767 260.145 752.73 260.27 752.743 260.394C754.063 269.09 756.804 277.51 760.856 285.317C761.989 287.496 763.22 289.62 764.548 291.689C764.883 292.212 765.642 291.615 765.309 291.096Z" fill="#E6E6E6"/>
<path d="M752.735 261.341C756.108 261.341 758.843 258.606 758.843 255.233C758.843 251.86 756.108 249.126 752.735 249.126C749.362 249.126 746.628 251.86 746.628 255.233C746.628 258.606 749.362 261.341 752.735 261.341Z" fill="#E6E6E6"/>
<path d="M746.559 296.5V284.5C746.56 283.307 747.035 282.163 747.879 281.319C748.722 280.476 749.866 280.001 751.059 280H779.059C780.252 280.001 781.396 280.476 782.24 281.319C783.083 282.163 783.558 283.307 783.559 284.5V296.5C783.558 297.693 783.083 298.837 782.24 299.68C781.396 300.524 780.252 300.999 779.059 301H751.059C749.866 300.999 748.722 300.524 747.879 299.68C747.035 298.837 746.56 297.693 746.559 296.5Z" fill="#F2F2F2"/>
<path d="M917.146 444.317H107.126C106.562 444.317 106.021 444.093 105.623 443.694C105.224 443.295 105 442.754 105 442.191C105 441.627 105.224 441.086 105.623 440.687C106.021 440.289 106.562 440.065 107.126 440.065H917.146C917.71 440.065 918.25 440.289 918.649 440.687C919.048 441.086 919.272 441.627 919.272 442.191C919.272 442.754 919.048 443.295 918.649 443.694C918.25 444.093 917.71 444.317 917.146 444.317Z" fill="#3F3D56"/>
<path d="M528.207 165.806C559.909 165.806 585.61 140.106 585.61 108.403C585.61 76.7002 559.909 51 528.207 51C496.504 51 470.804 76.7002 470.804 108.403C470.804 140.106 496.504 165.806 528.207 165.806Z" fill="#2F2E41"/>
<path d="M473.665 476.9L472.145 450.882L571.784 432.63L574.029 471.035L473.665 476.9Z" fill="#FFB8B8"/>
<path d="M478.492 431.86L481.426 482.042L449.83 483.889L445.049 402.111C449.198 401.869 453.355 402.446 457.281 403.809C461.207 405.173 464.827 407.297 467.932 410.06C471.037 412.822 473.568 416.169 475.38 419.91C477.192 423.65 478.25 427.711 478.492 431.86Z" fill="#2F2E41"/>
<path d="M517.003 476.662L500.451 496.798L414.908 442.544L439.334 412.826L517.003 476.662Z" fill="#FFB8B8"/>
<path d="M482.876 506.452L514.795 467.619L539.246 487.716L487.23 551C484.019 548.361 481.36 545.115 479.403 541.448C477.446 537.781 476.231 533.765 475.827 529.628C475.423 525.491 475.837 521.316 477.047 517.339C478.256 513.363 480.237 509.663 482.876 506.452Z" fill="#2F2E41"/>
<path d="M469.374 383.023L458.064 436.342C457.804 437.569 457.818 438.839 458.107 440.061C458.395 441.282 458.95 442.425 459.732 443.406C460.514 444.388 461.504 445.184 462.63 445.738C463.756 446.291 464.991 446.589 466.246 446.609L577.433 448.403C578.686 448.423 579.929 448.166 581.071 447.65C582.213 447.134 583.227 446.372 584.041 445.418C584.854 444.464 585.447 443.342 585.776 442.133C586.105 440.923 586.163 439.656 585.945 438.422L576.219 383.31C575.872 381.341 574.842 379.558 573.31 378.273C571.779 376.988 569.844 376.284 567.845 376.284H477.693C475.744 376.284 473.854 376.953 472.34 378.18C470.825 379.407 469.778 381.117 469.374 383.023Z" fill="#2F2E41"/>
<path d="M487.812 401.796C487.812 401.796 379.384 333.763 358.124 369.905C347.494 387.977 352.809 405.517 360.781 418.539C368.18 430.395 378.8 439.901 391.402 445.946L479.308 488.963L511.198 454.947L489.938 435.813L487.812 401.796Z" fill="#2F2E41"/>
<path d="M543.089 391.166C543.089 391.166 683.407 350.771 655.769 427.308C628.13 503.846 523.955 474.081 523.955 474.081L513.324 442.191L549.467 416.678L543.089 391.166Z" fill="#2F2E41"/>
<path d="M528.927 173.728C557.766 173.728 581.144 150.35 581.144 121.511C581.144 92.6717 557.766 69.2931 528.927 69.2931C500.088 69.2931 476.709 92.6717 476.709 121.511C476.709 150.35 500.088 173.728 528.927 173.728Z" fill="#FFB8B8"/>
<path d="M531.663 399.604C509.964 399.275 488.378 396.431 467.335 391.128L466.713 390.958L437.575 256.922C434.953 245.144 436.736 232.814 442.585 222.26C448.434 211.706 457.945 203.66 469.322 199.64C504.465 187.031 542.769 186.266 578.387 197.462H578.388C590.339 201.313 600.399 209.529 606.561 220.471C612.722 231.412 614.531 244.274 611.628 256.491L579.082 390.846L578.624 391.064C565.098 397.471 548.185 399.604 531.663 399.604Z" fill="#CCCCCC"/>
<path d="M492.522 410.016C493.58 407.075 495.27 404.402 497.473 402.185C499.676 399.968 502.338 398.261 505.272 397.184C508.207 396.107 511.341 395.687 514.455 395.952C517.569 396.218 520.587 397.163 523.297 398.722L580.671 348.92L585.862 388.057L530.583 429.35C527.663 433.728 523.239 436.883 518.149 438.217C513.059 439.551 507.656 438.971 502.965 436.588C498.273 434.205 494.619 430.184 492.694 425.286C490.769 420.389 490.708 414.955 492.522 410.016Z" fill="#FFB8B8"/>
<path d="M547.242 420.878C546.308 420.878 545.38 420.741 544.485 420.473C543.034 420.051 541.704 419.287 540.609 418.245C539.513 417.203 538.683 415.914 538.187 414.486L531.262 394.865C530.614 393.052 530.531 391.085 531.026 389.224C531.52 387.363 532.568 385.695 534.031 384.443L612.202 337.512L581.387 200.041L582.171 199.852C582.49 199.773 614.062 192.587 627 227.087C636.06 251.25 669.588 303.789 667.223 339.292C666.773 346.393 663.943 353.136 659.19 358.432C654.437 363.727 648.038 367.266 641.025 368.477L553.033 418.891C551.375 420.176 549.339 420.875 547.242 420.878Z" fill="#CCCCCC"/>
<path d="M556.009 405.352C554.951 402.411 553.261 399.738 551.058 397.521C548.855 395.304 546.192 393.597 543.258 392.52C540.324 391.444 537.19 391.023 534.075 391.289C530.961 391.555 527.943 392.5 525.234 394.058L467.86 344.257L462.669 383.394L517.948 424.686C520.868 429.064 525.292 432.219 530.382 433.553C535.472 434.887 540.875 434.308 545.566 431.924C550.258 429.541 553.912 425.52 555.837 420.623C557.761 415.725 557.823 410.292 556.009 405.352Z" fill="#FFB8B8"/>
<path d="M507.046 420.878C504.949 420.875 502.912 420.176 501.255 418.891L406.884 372.729C399.872 371.518 393.473 367.979 388.72 362.684C383.966 357.388 381.137 350.645 380.687 343.544C378.322 308.041 418.228 251.25 427.288 227.087C440.225 192.587 471.798 199.771 472.117 199.852L472.901 200.041L435.707 341.764L520.257 384.443C521.72 385.695 522.768 387.363 523.262 389.224C523.757 391.085 523.674 393.052 523.026 394.865L516.101 414.486C515.605 415.914 514.775 417.203 513.679 418.245C512.583 419.287 511.254 420.051 509.802 420.473C508.908 420.741 507.98 420.877 507.046 420.878Z" fill="#CCCCCC"/>
<path d="M619.626 442.19H430.409C426.464 442.186 422.681 440.616 419.891 437.826C417.101 435.037 415.531 431.254 415.527 427.308V323.132C415.531 319.187 417.101 315.404 419.891 312.614C422.681 309.824 426.464 308.255 430.409 308.25H619.626C623.572 308.255 627.355 309.824 630.145 312.614C632.935 315.404 634.504 319.187 634.509 323.132V427.308C634.504 431.254 632.934 435.037 630.145 437.826C627.355 440.616 623.572 442.186 619.626 442.19Z" fill="#00A0D2"/>
<path d="M525.018 387.977C532.063 387.977 537.774 382.266 537.774 375.221C537.774 368.175 532.063 362.464 525.018 362.464C517.973 362.464 512.261 368.175 512.261 375.221C512.261 382.266 517.973 387.977 525.018 387.977Z" fill="white"/>
<path d="M476.186 119.385C473.091 111.536 478.169 102.181 485.701 98.3781C493.234 94.5755 502.323 95.2987 510.381 97.8049C517.152 99.911 523.498 103.175 530.104 105.753C536.616 108.639 543.73 109.906 550.839 109.446C557.885 108.65 564.898 104.699 567.781 98.2202C570.77 91.5049 568.737 83.31 564.135 77.579C559.238 72.0384 552.9 67.965 545.826 65.8117C530.29 60.3384 512.344 60.1784 497.921 68.1344C483.498 76.0905 473.696 93.0308 476.678 109.231" fill="#2F2E41"/>
<path d="M174.442 419.481C177.069 391.194 184.323 363.529 195.916 337.592C199.147 330.375 202.703 323.316 206.585 316.416C206.779 316.055 206.826 315.632 206.716 315.237C206.605 314.843 206.345 314.506 205.991 314.299C205.637 314.093 205.217 314.031 204.818 314.128C204.42 314.226 204.075 314.474 203.856 314.82C189.741 339.952 179.852 367.233 174.585 395.572C173.12 403.486 172.019 411.456 171.282 419.481C171.094 421.506 174.256 421.493 174.442 419.481Z" fill="#E6E6E6"/>
<path d="M214.239 321.484C225.293 321.484 234.254 312.523 234.254 301.468C234.254 290.414 225.293 281.453 214.239 281.453C203.185 281.453 194.223 290.414 194.223 301.468C194.223 312.523 203.185 321.484 214.239 321.484Z" fill="#00A0D2"/>
<path d="M176.489 420.013C178.193 401.661 182.899 383.714 190.42 366.888C192.516 362.205 194.823 357.626 197.341 353.149C197.468 352.915 197.498 352.641 197.426 352.385C197.354 352.129 197.186 351.911 196.956 351.777C196.727 351.642 196.454 351.603 196.195 351.666C195.937 351.729 195.713 351.89 195.571 352.114C186.414 368.419 179.999 386.117 176.582 404.502C175.631 409.636 174.917 414.806 174.439 420.013C174.317 421.326 176.368 421.318 176.489 420.013H176.489Z" fill="#E6E6E6"/>
<path d="M202.307 356.437C209.479 356.437 215.292 350.624 215.292 343.453C215.292 336.281 209.479 330.468 202.307 330.468C195.136 330.468 189.323 336.281 189.323 343.453C189.323 350.624 195.136 356.437 202.307 356.437Z" fill="#00A0D2"/>
<path d="M173.901 418.787C163.958 403.269 156.63 386.223 152.211 368.331C150.983 363.349 149.986 358.319 149.218 353.241C149.174 352.979 149.029 352.744 148.815 352.586C148.601 352.428 148.334 352.36 148.07 352.395C147.806 352.431 147.567 352.567 147.402 352.776C147.237 352.985 147.159 353.249 147.186 353.514C149.993 372.002 155.821 389.902 164.434 406.5C166.843 411.133 169.46 415.649 172.285 420.048C172.997 421.158 174.609 419.89 173.901 418.787Z" fill="#E6E6E6"/>
<path d="M147.169 355.526C154.341 355.526 160.154 349.712 160.154 342.541C160.154 335.37 154.341 329.556 147.169 329.556C139.998 329.556 134.184 335.37 134.184 342.541C134.184 349.712 139.998 355.526 147.169 355.526Z" fill="#00A0D2"/>
<path d="M134.039 430.276V404.763C134.042 402.227 135.051 399.795 136.844 398.001C138.638 396.208 141.069 395.199 143.606 395.196H203.135C205.671 395.199 208.103 396.208 209.897 398.001C211.69 399.795 212.699 402.227 212.702 404.763V430.276C212.699 432.812 211.69 435.244 209.897 437.037C208.103 438.831 205.671 439.84 203.135 439.843H143.606C141.069 439.84 138.638 438.831 136.844 437.037C135.051 435.244 134.042 432.812 134.039 430.276Z" fill="#F2F2F2"/>
<path d="M773.445 460.051C773.445 474.034 762.109 480.389 748.126 480.389C734.143 480.389 722.807 474.034 722.807 460.051C722.807 446.067 728.434 429.752 748.126 435.378C767.818 426.939 773.445 446.067 773.445 460.051Z" fill="#FF6584"/>
<path d="M746.893 441.929C745.908 441.931 744.957 441.573 744.217 440.924C743.477 440.275 742.998 439.378 742.872 438.401C742.034 431.425 737.413 417.762 735.466 412.212L735.465 412.21C735.268 411.658 735.208 411.067 735.289 410.487C735.371 409.907 735.592 409.356 735.933 408.88C736.26 408.454 736.673 408.103 737.145 407.849C737.617 407.594 738.138 407.443 738.673 407.404C739.208 407.365 739.745 407.441 740.248 407.624C740.752 407.808 741.211 408.097 741.596 408.471C741.939 408.831 742.204 409.257 742.376 409.724C742.547 410.191 742.62 410.688 742.591 411.184C742.21 418.308 747.402 429.818 750.532 436.047C750.827 436.634 750.976 437.284 750.964 437.941C750.953 438.599 750.782 439.243 750.466 439.82C750.15 440.396 749.699 440.887 749.151 441.251C748.604 441.614 747.976 441.839 747.322 441.906C747.179 441.922 747.036 441.929 746.893 441.929Z" fill="#3F3D56"/>
<path d="M765.627 426.214C774.416 419.021 767.521 404.3 756.521 407.126C755.041 407.48 753.676 408.207 752.558 409.24C745.811 415.614 744.765 431.923 744.765 431.923C744.765 431.923 756.681 433.537 765.627 426.214Z" fill="#3F3D56"/>
<defs>
<linearGradient id="paint0_linear_6_500" x1="0" y1="0" x2="800" y2="800" gradientUnits="userSpaceOnUse">
<stop stop-color="#E5F9FF"/>
<stop offset="1" stop-color="#F0FBFF"/>
</linearGradient>
</defs>
</svg>
