<svg width="1024" height="576" viewBox="0 0 1024 576" fill="none" xmlns="http://www.w3.org/2000/svg">
<rect width="1024" height="576" fill="url(#paint0_linear_2_3)"/>
<g clip-path="url(#clip0_2_3)">
<path d="M343.227 276.781C350.547 276.781 356.48 270.847 356.48 263.528C356.48 256.208 350.547 250.275 343.227 250.275C335.908 250.275 329.974 256.208 329.974 263.528C329.974 270.847 335.908 276.781 343.227 276.781Z" fill="#FFB8B8"/>
<path d="M298.446 422.344L301.802 428.045L325.388 417.814L320.435 409.4L298.446 422.344Z" fill="#FFB8B8"/>
<path d="M299.451 419.794L306.06 431.022L306.06 431.022C306.613 431.962 306.976 433.001 307.127 434.081C307.279 435.16 307.216 436.259 306.942 437.315C306.669 438.37 306.191 439.362 305.534 440.232C304.878 441.103 304.056 441.835 303.116 442.388L302.884 442.525L292.064 424.143L299.451 419.794Z" fill="#2F2E41"/>
<path d="M337.327 442.882L343.943 442.882L347.09 417.365L337.326 417.366L337.327 442.882Z" fill="#FFB8B8"/>
<path d="M335.64 440.722L348.668 440.722H348.669C349.759 440.722 350.838 440.937 351.846 441.354C352.853 441.771 353.768 442.383 354.539 443.153C355.31 443.924 355.922 444.84 356.339 445.847C356.756 446.854 356.971 447.934 356.971 449.024V449.294L335.641 449.295L335.64 440.722Z" fill="#2F2E41"/>
<path d="M310.732 427.423C310.351 427.423 309.975 427.334 309.636 427.162C309.296 426.99 309.001 426.74 308.776 426.434L302.396 417.769C302.201 417.504 302.062 417.203 301.987 416.884C301.912 416.564 301.903 416.233 301.96 415.909C302.016 415.586 302.138 415.278 302.317 415.003C302.497 414.728 302.73 414.492 303.003 414.31L331.393 395.347L314.263 350.305L350.895 353.328L352.129 392.035C352.245 395.56 351.4 399.05 349.685 402.132C347.97 405.214 345.449 407.771 342.392 409.531L311.945 427.097C311.576 427.31 311.158 427.423 310.732 427.423V427.423Z" fill="#2F2E41"/>
<path d="M337.527 437.702C336.899 437.701 336.296 437.456 335.844 437.019C335.392 436.583 335.127 435.988 335.105 435.36L333.763 397.652L350.387 396.777L349.063 434.755C349.043 435.357 348.8 435.93 348.381 436.362C347.962 436.794 347.397 437.055 346.797 437.093L337.692 437.697C337.637 437.7 337.582 437.702 337.527 437.702Z" fill="#2F2E41"/>
<path d="M355.135 360.816C350.905 360.816 336.132 356.059 331.004 354.363C330.236 354.977 326.021 358.129 321.101 357.553C318.066 357.196 315.393 355.478 313.158 352.445C308.222 345.746 314.319 317.02 320.302 294.101C321.501 289.468 324.45 285.481 328.528 282.977C332.607 280.474 337.497 279.649 342.171 280.676V280.676C345.558 281.424 348.67 283.101 351.157 285.52C353.644 287.939 355.407 291.004 356.248 294.369C357.374 298.955 356.405 304.349 355.697 308.288C355.365 310.139 355.102 311.602 355.192 312.321C355.539 315.099 357.468 358.668 356.228 360.528C356.096 360.726 355.714 360.816 355.135 360.816Z" fill="#00A0D2"/>
<path d="M339.662 360.893C340.342 360.387 340.902 359.738 341.304 358.992C341.706 358.246 341.939 357.421 341.988 356.575C342.036 355.729 341.899 354.882 341.585 354.095C341.271 353.308 340.788 352.6 340.17 352.019L340.432 299.223L327.997 301.294L331.65 352.539C330.744 353.642 330.273 355.038 330.328 356.463C330.382 357.889 330.958 359.245 331.946 360.275C332.933 361.305 334.264 361.936 335.686 362.05C337.109 362.164 338.523 361.753 339.662 360.893V360.893Z" fill="#FFB8B8"/>
<path d="M342.538 333.129H329.144C328.505 333.127 327.892 332.874 327.437 332.424C326.983 331.973 326.724 331.363 326.716 330.723L326.387 294.413C326.376 293.157 326.614 291.912 327.087 290.749C327.56 289.586 328.258 288.528 329.143 287.637C330.027 286.745 331.079 286.038 332.239 285.556C333.398 285.074 334.642 284.827 335.897 284.828C337.153 284.83 338.396 285.08 339.554 285.565C340.712 286.05 341.762 286.76 342.645 287.653C343.527 288.546 344.223 289.606 344.693 290.77C345.163 291.934 345.398 293.18 345.383 294.436L344.966 330.729C344.957 331.367 344.697 331.977 344.243 332.425C343.789 332.874 343.177 333.127 342.538 333.129V333.129Z" fill="#00A0D2"/>
<path d="M339.853 276.726C333.785 276.737 328.06 271.94 327.009 265.964C326.632 263.617 326.802 261.214 327.505 258.942C328.268 256.356 329.576 253.964 331.342 251.927C333.108 249.89 335.29 248.254 337.741 247.132C340.193 246.009 342.856 245.425 345.552 245.419C348.248 245.413 350.914 245.985 353.371 247.097C354.994 247.831 356.593 248.886 357.336 250.505C358.079 252.125 357.614 254.388 355.988 255.117C354.926 255.593 353.592 255.359 352.65 256.042C351.296 257.024 351.644 259.113 352.249 260.673C352.853 262.232 353.537 264.119 352.524 265.449C351.579 266.689 349.691 266.651 348.204 266.184C346.718 265.717 345.25 264.936 343.7 265.095C341.439 265.327 339.814 267.576 339.513 269.829C339.212 272.082 339.92 274.334 340.619 276.497L339.853 276.726Z" fill="#2F2E41"/>
<path d="M401.755 449.803H262.54C262.396 449.803 262.259 449.746 262.158 449.645C262.057 449.543 262 449.406 262 449.263C262 449.12 262.057 448.983 262.158 448.881C262.259 448.78 262.396 448.723 262.54 448.723H401.755C401.898 448.723 402.035 448.78 402.137 448.881C402.238 448.983 402.295 449.12 402.295 449.263C402.295 449.406 402.238 449.543 402.137 449.645C402.035 449.746 401.898 449.803 401.755 449.803Z" fill="#CCCCCC"/>
<path d="M753.097 360.48H407.304C404.943 360.477 402.68 359.538 401.011 357.869C399.342 356.2 398.403 353.937 398.4 351.576V138.353C398.402 136.624 399.09 134.966 400.313 133.743C401.536 132.521 403.194 131.833 404.923 131.831H755.365C757.124 131.833 758.81 132.532 760.054 133.776C761.298 135.02 761.998 136.707 762 138.466V351.576C761.997 353.937 761.058 356.2 759.389 357.869C757.72 359.538 755.457 360.477 753.097 360.48V360.48Z" fill="#F2F2F2"/>
<path d="M741.916 349.239H419.646C414.922 349.239 411.079 345.64 411.079 341.216V155.539C411.079 152.258 413.927 149.589 417.428 149.589H744.03C747.589 149.589 750.484 152.302 750.484 155.637V341.216C750.484 345.64 746.64 349.239 741.916 349.239Z" fill="white"/>
<path d="M761.876 139.463H398.275V134.93C398.279 132.562 399.222 130.292 400.897 128.617C402.572 126.943 404.843 126.002 407.211 126H752.94C755.309 126.002 757.58 126.943 759.255 128.617C760.93 130.292 761.873 132.562 761.876 134.93V139.463Z" fill="#3F3D56"/>
<path d="M414.515 135.056C415.791 135.056 416.826 134.021 416.826 132.745C416.826 131.468 415.791 130.434 414.515 130.434C413.238 130.434 412.203 131.468 412.203 132.745C412.203 134.021 413.238 135.056 414.515 135.056Z" fill="white"/>
<path d="M423.288 135.056C424.564 135.056 425.599 134.021 425.599 132.745C425.599 131.468 424.564 130.434 423.288 130.434C422.011 130.434 420.977 131.468 420.977 132.745C420.977 134.021 422.011 135.056 423.288 135.056Z" fill="white"/>
<path d="M432.061 135.056C433.338 135.056 434.372 134.021 434.372 132.745C434.372 131.468 433.338 130.434 432.061 130.434C430.785 130.434 429.75 131.468 429.75 132.745C429.75 134.021 430.785 135.056 432.061 135.056Z" fill="white"/>
<path d="M573.136 190.187H510.107C509.167 190.187 508.266 189.814 507.602 189.149C506.937 188.485 506.564 187.584 506.564 186.644C506.564 185.704 506.937 184.803 507.602 184.139C508.266 183.474 509.167 183.101 510.107 183.101H573.136C574.076 183.101 574.977 183.474 575.641 184.139C576.306 184.803 576.679 185.704 576.679 186.644C576.679 187.584 576.306 188.485 575.641 189.149C574.977 189.814 574.076 190.187 573.136 190.187V190.187Z" fill="#CCCCCC"/>
<path d="M651.456 190.187H588.427C587.487 190.187 586.586 189.814 585.922 189.149C585.257 188.485 584.884 187.584 584.884 186.644C584.884 185.704 585.257 184.803 585.922 184.139C586.586 183.474 587.487 183.101 588.427 183.101H651.456C652.396 183.101 653.297 183.474 653.961 184.139C654.626 184.803 654.999 185.704 654.999 186.644C654.999 187.584 654.626 188.485 653.961 189.149C653.297 189.814 652.396 190.187 651.456 190.187V190.187Z" fill="#CCCCCC"/>
<path d="M651.456 203.613H541.808C540.868 203.613 539.967 203.24 539.302 202.576C538.638 201.911 538.265 201.01 538.265 200.07C538.265 199.131 538.638 198.23 539.302 197.565C539.967 196.901 540.868 196.527 541.808 196.527H651.456C652.396 196.527 653.297 196.901 653.961 197.565C654.626 198.23 654.999 199.131 654.999 200.07C654.999 201.01 654.626 201.911 653.961 202.576C653.297 203.24 652.396 203.613 651.456 203.613Z" fill="#CCCCCC"/>
<path d="M573.136 176.574H510.107C509.168 176.573 508.268 176.199 507.604 175.535C506.941 174.871 506.568 173.97 506.568 173.031C506.568 172.092 506.941 171.192 507.604 170.528C508.268 169.863 509.168 169.489 510.107 169.488H573.136C573.601 169.488 574.063 169.579 574.493 169.757C574.923 169.935 575.315 170.195 575.644 170.524C575.973 170.854 576.235 171.244 576.413 171.674C576.591 172.105 576.683 172.566 576.683 173.031C576.683 173.497 576.591 173.958 576.413 174.388C576.235 174.818 575.973 175.209 575.644 175.538C575.315 175.867 574.923 176.128 574.493 176.306C574.063 176.484 573.601 176.575 573.136 176.574V176.574Z" fill="#CCCCCC"/>
<path d="M607.82 176.761H589.919C588.979 176.761 588.078 176.388 587.413 175.723C586.749 175.059 586.376 174.157 586.376 173.218C586.376 172.278 586.749 171.377 587.413 170.713C588.078 170.048 588.979 169.675 589.919 169.675H607.82C608.76 169.675 609.661 170.048 610.326 170.713C610.99 171.377 611.364 172.278 611.364 173.218C611.364 174.157 610.99 175.059 610.326 175.723C609.661 176.388 608.76 176.761 607.82 176.761Z" fill="#CCCCCC"/>
<path d="M528.009 203.613H510.107C509.168 203.612 508.268 203.239 507.604 202.574C506.941 201.91 506.568 201.009 506.568 200.07C506.568 199.132 506.941 198.231 507.604 197.567C508.268 196.902 509.168 196.529 510.107 196.527H528.009C528.474 196.527 528.935 196.618 529.366 196.796C529.796 196.974 530.187 197.234 530.517 197.564C530.846 197.893 531.108 198.283 531.286 198.714C531.464 199.144 531.556 199.605 531.556 200.07C531.556 200.536 531.464 200.997 531.286 201.427C531.108 201.857 530.846 202.248 530.517 202.577C530.187 202.906 529.796 203.167 529.366 203.345C528.935 203.523 528.474 203.614 528.009 203.613Z" fill="#CCCCCC"/>
<path d="M573.136 315.913H510.107C509.167 315.913 508.266 315.539 507.602 314.875C506.937 314.211 506.564 313.309 506.564 312.37C506.564 311.43 506.937 310.529 507.602 309.864C508.266 309.2 509.167 308.827 510.107 308.827H573.136C573.601 308.827 574.062 308.918 574.492 309.096C574.922 309.274 575.312 309.535 575.641 309.864C575.97 310.193 576.231 310.584 576.409 311.014C576.587 311.444 576.679 311.904 576.679 312.37C576.679 312.835 576.587 313.296 576.409 313.726C576.231 314.155 575.97 314.546 575.641 314.875C575.312 315.204 574.922 315.465 574.492 315.643C574.062 315.821 573.601 315.913 573.136 315.913V315.913Z" fill="#CCCCCC"/>
<path d="M651.456 315.913H588.427C587.487 315.913 586.586 315.539 585.922 314.875C585.257 314.211 584.884 313.309 584.884 312.37C584.884 311.43 585.257 310.529 585.922 309.864C586.586 309.2 587.487 308.827 588.427 308.827H651.456C651.921 308.827 652.382 308.918 652.812 309.096C653.242 309.274 653.632 309.535 653.961 309.864C654.29 310.193 654.551 310.584 654.729 311.014C654.907 311.444 654.999 311.904 654.999 312.37C654.999 312.835 654.907 313.296 654.729 313.726C654.551 314.155 654.29 314.546 653.961 314.875C653.632 315.204 653.242 315.465 652.812 315.643C652.382 315.821 651.921 315.913 651.456 315.913V315.913Z" fill="#CCCCCC"/>
<path d="M651.456 329.339H541.808C540.868 329.339 539.967 328.966 539.302 328.301C538.638 327.637 538.265 326.736 538.265 325.796C538.265 324.856 538.638 323.955 539.302 323.291C539.967 322.626 540.868 322.253 541.808 322.253H651.456C651.922 322.252 652.383 322.344 652.813 322.521C653.244 322.699 653.635 322.96 653.964 323.289C654.294 323.618 654.555 324.009 654.733 324.439C654.912 324.869 655.003 325.33 655.003 325.796C655.003 326.262 654.912 326.723 654.733 327.153C654.555 327.583 654.294 327.974 653.964 328.303C653.635 328.632 653.244 328.893 652.813 329.071C652.383 329.248 651.922 329.34 651.456 329.339Z" fill="#CCCCCC"/>
<path d="M573.136 302.3H510.107C509.167 302.3 508.266 301.927 507.602 301.262C506.937 300.598 506.564 299.697 506.564 298.757C506.564 297.817 506.937 296.916 507.602 296.252C508.266 295.587 509.167 295.214 510.107 295.214H573.136C574.076 295.214 574.977 295.587 575.641 296.252C576.306 296.916 576.679 297.817 576.679 298.757C576.679 299.697 576.306 300.598 575.641 301.262C574.977 301.927 574.076 302.3 573.136 302.3Z" fill="#CCCCCC"/>
<path d="M607.82 302.486H589.919C588.979 302.486 588.078 302.113 587.413 301.449C586.749 300.784 586.376 299.883 586.376 298.943C586.376 298.004 586.749 297.102 587.413 296.438C588.078 295.774 588.979 295.4 589.919 295.4H607.82C608.76 295.4 609.661 295.774 610.326 296.438C610.99 297.102 611.364 298.004 611.364 298.943C611.364 299.883 610.99 300.784 610.326 301.449C609.661 302.113 608.76 302.486 607.82 302.486V302.486Z" fill="#CCCCCC"/>
<path d="M528.009 329.339H510.107C509.167 329.339 508.266 328.966 507.602 328.301C506.937 327.637 506.564 326.736 506.564 325.796C506.564 324.856 506.937 323.955 507.602 323.291C508.266 322.626 509.167 322.253 510.107 322.253H528.009C528.474 322.252 528.935 322.344 529.366 322.521C529.796 322.699 530.187 322.96 530.517 323.289C530.846 323.618 531.108 324.009 531.286 324.439C531.464 324.869 531.556 325.33 531.556 325.796C531.556 326.262 531.464 326.723 531.286 327.153C531.108 327.583 530.846 327.974 530.517 328.303C530.187 328.632 529.796 328.893 529.366 329.071C528.935 329.248 528.474 329.34 528.009 329.339Z" fill="#CCCCCC"/>
<path d="M556.675 277.875C555.337 277.878 554.053 277.353 553.101 276.413L529.408 253.016C528.943 252.557 528.573 252.01 528.321 251.407C528.069 250.804 527.939 250.156 527.939 249.503C527.939 248.849 528.069 248.202 528.321 247.599C528.573 246.996 528.943 246.448 529.408 245.989L553.005 222.687C553.988 221.721 555.312 221.182 556.691 221.186C558.069 221.19 559.39 221.738 560.367 222.71C561.345 223.69 561.894 225.018 561.894 226.403C561.894 227.787 561.345 229.115 560.367 230.095L542.832 247.631C542.286 248.178 541.979 248.92 541.979 249.694C541.979 250.467 542.286 251.209 542.832 251.757L560.272 269.196C560.984 269.907 561.469 270.813 561.666 271.8C561.863 272.787 561.762 273.81 561.377 274.739C560.991 275.669 560.339 276.463 559.502 277.021C558.665 277.579 557.681 277.877 556.675 277.875V277.875Z" fill="#00A0D2"/>
<path d="M594.428 277.875C593.422 277.877 592.438 277.579 591.6 277.021C590.763 276.463 590.111 275.669 589.726 274.739C589.34 273.81 589.24 272.787 589.436 271.8C589.633 270.813 590.118 269.907 590.83 269.196L608.27 251.757C608.816 251.209 609.123 250.467 609.123 249.694C609.123 248.92 608.816 248.178 608.27 247.631L590.735 230.095C590.25 229.611 589.866 229.035 589.603 228.401C589.341 227.768 589.206 227.089 589.206 226.403C589.206 225.717 589.341 225.038 589.603 224.404C589.866 223.771 590.25 223.195 590.735 222.71V222.71C591.712 221.738 593.033 221.19 594.412 221.186C595.79 221.182 597.114 221.721 598.097 222.687L621.695 245.989C622.16 246.448 622.529 246.996 622.781 247.599C623.033 248.202 623.163 248.849 623.163 249.503C623.163 250.156 623.033 250.804 622.781 251.407C622.529 252.01 622.16 252.557 621.695 253.016L598.002 276.413C597.05 277.353 595.765 277.878 594.428 277.875Z" fill="#00A0D2"/>
</g>
<defs>
<linearGradient id="paint0_linear_2_3" x1="0" y1="0" x2="800" y2="800" gradientUnits="userSpaceOnUse">
<stop stop-color="#E5F9FF"/>
<stop offset="1" stop-color="#F0FBFF"/>
</linearGradient>
<clipPath id="clip0_2_3">
<rect width="500" height="323.803" fill="white" transform="translate(262 126)"/>
</clipPath>
</defs>
</svg>
